<svg xmlns="http://www.w3.org/2000/svg" width="122" height="12" viewBox="0 0 122 12" fill="none">
  <g clip-path="url(#clip0_9818_7986)">
    <mask id="mask0_9818_7986" style="mask-type:luminance" maskUnits="userSpaceOnUse" x="0" y="0" width="122" height="12">
      <path d="M121.667 0H0.666992V12H121.667V0Z" fill="white"/>
    </mask>
    <g mask="url(#mask0_9818_7986)">
      <path d="M108.883 0H105.932L103.175 12H106.125L108.883 0Z" fill="white"/>
      <path d="M121.668 0H118.717L115.96 12H118.91L121.668 0Z" fill="white"/>
      <path d="M111.832 0L115.959 12H113.008L108.882 0H111.832Z" fill="white"/>
      <path d="M38.8573 9.15755L40.9616 0H38.0114L35.2539 12H50.989L51.642 9.15755H38.8573Z" fill="white"/>
      <path d="M54.992 0L52.2344 12H63.2096C65.8384 12 68.4412 9.94675 69.0228 7.41415L66.7259 4.57174H69.6761C70.2562 2.04691 68.6022 0.000234737 65.9817 0.000234737L54.992 0ZM63.878 9.15735H55.838L56.2384 7.41395H66.0731L66.07 7.42825C65.8504 8.38315 64.8689 9.15735 63.878 9.15735ZM66.7264 4.57151H56.8917L57.289 2.84243H65.329C66.3203 2.84243 66.9456 3.6166 66.7264 4.57151Z" fill="white"/>
      <path d="M101.929 12L102.982 7.41415L100.685 4.57174H103.636C104.216 2.04691 102.562 0 99.9411 0H88.9509L86.1934 11.9998H89.1436L90.1978 7.41395H100.032L98.9783 11.9998L101.929 12ZM100.685 4.57174H90.8506L91.2484 2.84266H99.2879C100.279 2.84266 100.904 3.61683 100.685 4.57174Z" fill="white"/>
      <path d="M71.9704 0L69.2129 12H84.9481L87.7056 0H71.9704ZM82.6506 9.15755H72.8164L74.2674 2.84266H84.1021L82.6506 9.15755Z" fill="white"/>
      <path d="M28.5864 0H25.3231L17.6484 12H20.5987L28.5864 0H31.8494L34.0092 12H31.059L28.5864 0Z" fill="white"/>
      <path d="M16.2092 0L15.1572 4.57878H5.32268L6.37471 0H3.42449L0.666992 12H3.61746L5.32268 4.57878L7.61971 7.42145H14.504L13.4517 12H16.4021L19.1594 0H16.2092Z" fill="white"/>
    </g>
  </g>
  <defs>
    <clipPath id="clip0_9818_7986">
      <rect width="121" height="12" fill="white" transform="translate(0.666992)"/>
    </clipPath>
  </defs>
</svg>
