<svg xmlns="http://www.w3.org/2000/svg" width="121" height="12" viewBox="0 0 121 12" fill="none">
  <g clip-path="url(#clip0_9818_7895)">
    <mask id="mask0_9818_7895" style="mask-type:luminance" maskUnits="userSpaceOnUse" x="0" y="0" width="121" height="12">
      <path d="M121 0H0V12H121V0Z" fill="white"/>
    </mask>
    <g mask="url(#mask0_9818_7895)">
      <path d="M108.216 0H105.265L102.508 12H105.458L108.216 0Z" fill="white"/>
      <path d="M121.001 0H118.05L115.293 12H118.243L121.001 0Z" fill="white"/>
      <path d="M111.165 0L115.292 12H112.341L108.215 0H111.165Z" fill="white"/>
      <path d="M38.1903 9.15755L40.2946 0H37.3444L34.5869 12H50.3221L50.975 9.15755H38.1903Z" fill="white"/>
      <path d="M54.325 0L51.5674 12H62.5427C65.1714 12 67.7742 9.94675 68.3558 7.41415L66.0589 4.57174H69.0091C69.5892 2.04691 67.9352 0.000234737 65.3148 0.000234737L54.325 0ZM63.211 9.15735H55.171L55.5714 7.41395H65.4061L65.403 7.42825C65.1834 8.38315 64.2019 9.15735 63.211 9.15735ZM66.0594 4.57151H56.2247L56.622 2.84243H64.662C65.6533 2.84243 66.2786 3.6166 66.0594 4.57151Z" fill="white"/>
      <path d="M101.262 12L102.315 7.41415L100.018 4.57174H102.969C103.549 2.04691 101.895 0 99.2742 0H88.2839L85.5264 11.9998H88.4766L89.5308 7.41395H99.365L98.3113 11.9998L101.262 12ZM100.018 4.57174H90.1836L90.5814 2.84266H98.6209C99.6122 2.84266 100.237 3.61683 100.018 4.57174Z" fill="white"/>
      <path d="M71.3035 0L68.5459 12H84.2811L87.0386 0H71.3035ZM81.9836 9.15755H72.1494L73.6004 2.84266H83.4351L81.9836 9.15755Z" fill="white"/>
      <path d="M27.9194 0H24.6561L16.9814 12H19.9317L27.9194 0H31.1824L33.3423 12H30.392L27.9194 0Z" fill="white"/>
      <path d="M15.5422 0L14.4902 4.57878H4.65569L5.70772 0H2.7575L0 12H2.95046L4.65569 4.57878L6.95272 7.42145H13.837L12.7847 12H15.7351L18.4924 0H15.5422Z" fill="white"/>
    </g>
  </g>
  <defs>
    <clipPath id="clip0_9818_7895">
      <rect width="121" height="12" fill="white"/>
    </clipPath>
  </defs>
</svg>
