<svg xmlns="http://www.w3.org/2000/svg" width="215" height="22" viewBox="0 0 215 22" fill="none">
  <g clip-path="url(#clip0_9773_7848)">
    <mask id="mask0_9773_7848" style="mask-type:luminance" maskUnits="userSpaceOnUse" x="0" y="0" width="215" height="22">
      <path d="M215 0H0V22H215V0Z" fill="white"/>
    </mask>
    <g mask="url(#mask0_9773_7848)">
      <path d="M192.284 0H187.041L182.142 22H187.384L192.284 0Z" fill="white"/>
      <path d="M215.001 0H209.758L204.859 22H210.101L215.001 0Z" fill="white"/>
      <path d="M197.525 0L204.858 22H199.615L192.283 0H197.525Z" fill="white"/>
      <path d="M67.8588 16.7888L71.5979 0H66.3557L61.4561 22H89.4152L90.5754 16.7888H67.8588Z" fill="white"/>
      <path d="M96.5279 0L91.6279 22H111.129C115.8 22 120.425 18.2357 121.459 13.5926L117.377 8.38152H122.619C123.65 3.75267 120.711 0.000430351 116.055 0.000430351L96.5279 0ZM112.317 16.7885H98.0311L98.7425 13.5922H116.217L116.212 13.6185C115.822 15.3691 114.078 16.7885 112.317 16.7885ZM117.378 8.38109H99.9033L100.609 5.21112H114.895C116.657 5.21112 117.768 6.63042 117.378 8.38109Z" fill="white"/>
      <path d="M179.927 22L181.799 13.5926L177.718 8.38152H182.96C183.991 3.75267 181.052 0 176.396 0H156.868L151.968 21.9995H157.21L159.083 13.5922H176.557L174.685 21.9995L179.927 22ZM177.718 8.38152H160.243L160.95 5.21155H175.235C176.996 5.21155 178.107 6.63086 177.718 8.38152Z" fill="white"/>
      <path d="M126.697 0L121.797 22H149.756L154.656 0H126.697ZM145.674 16.7888H128.2L130.778 5.21155H148.253L145.674 16.7888Z" fill="white"/>
      <path d="M49.608 0H43.8096L30.1729 22H35.415L49.608 0H55.406L59.2437 22H54.0016L49.608 0Z" fill="white"/>
      <path d="M27.6163 0L25.747 8.39444H8.27251L10.1418 0H4.89969L0 22H5.24256L8.27251 8.39444L12.354 13.606H24.5864L22.7166 22H27.9591L32.8585 0H27.6163Z" fill="white"/>
    </g>
  </g>
  <defs>
    <clipPath id="clip0_9773_7848">
      <rect width="215" height="22" fill="white"/>
    </clipPath>
  </defs>
</svg>
