<svg width="206" height="41" viewBox="0 0 206 41" fill="none" xmlns="http://www.w3.org/2000/svg">
<g clip-path="url(#clip0_9773_7844)">
<path d="M35.082 20.6829C35.082 17.5645 34.2091 14.4951 32.5427 11.8829L38.6846 5.53187L34.0822 0.764526L27.9403 7.11555C22.7664 3.62167 16.0691 3.62167 10.8953 7.11555L4.73748 0.764526L0.119141 5.53187L6.26105 11.8829C2.88062 17.238 2.88062 24.1441 6.26105 29.4992L0.119141 35.8339L4.73748 40.6013L10.8794 34.2502C16.0532 37.7441 22.7506 37.7441 27.9244 34.2502L34.0663 40.6013L38.6846 35.8339L32.5427 29.4829C34.2091 26.8706 35.0979 23.8176 35.082 20.6829ZM10.2604 20.6829C10.2604 16.8298 12.5141 13.3523 15.9738 11.9155C19.4336 10.4788 23.4013 11.3441 25.9882 14.1196C28.5751 16.8951 29.2734 21.0257 27.7339 24.536L21.7031 18.2992L17.1007 23.0666L23.1315 29.3033C20.3065 30.6094 17.0213 30.3645 14.4185 28.6176C11.8316 26.8706 10.2604 23.8829 10.2604 20.6829Z" fill="#4BBCFC"/>
<path d="M68.2994 20.8789C68.2994 24.7809 66.3949 28.2911 62.9827 29.9074L64.792 32.3401L61.0624 34.2829L58.5707 30.8707H58.4914C52.3336 30.8707 48.6992 26.2503 48.6992 20.8625C48.6992 15.4748 52.3336 10.8544 58.4914 10.8544C64.6491 10.8544 68.2994 15.4911 68.2994 20.8789ZM58.5072 26.9523C61.9829 26.9523 63.8715 24.1605 63.8715 20.8625C63.8715 17.5646 61.9829 14.7727 58.5072 14.7727C54.9998 14.7727 53.1112 17.5646 53.143 20.8625C53.1112 24.1768 54.9998 26.9523 58.5072 26.9523ZM75.1555 30.6911C72.1242 30.6911 70.4895 28.7482 70.4895 25.3687V17.3033H74.5524V24.438C74.5524 26.2176 75.1237 27.1972 76.6473 27.1972C78.3454 27.1972 79.0755 26.0544 79.0755 24.3074V17.3033H83.059V30.3319H79.0755V28.4707C78.3772 29.8585 77.0758 30.6911 75.1555 30.6911ZM91.4228 30.6911C87.6456 30.6911 85.4713 27.736 85.4713 23.8176C85.4713 19.9156 87.8043 16.9442 91.4704 16.9442C93.3114 16.9442 94.7397 17.8421 95.4222 19.1646V17.3033H99.4057V30.3319H95.4222V28.487C94.7556 29.7931 93.1844 30.6911 91.4228 30.6911ZM92.5813 27.2625C94.5652 27.2625 95.5967 25.7278 95.5967 23.834C95.5967 21.9727 94.581 20.4217 92.5813 20.4217C90.7245 20.4217 89.5659 21.8584 89.5659 23.834C89.5659 25.7931 90.7245 27.2625 92.5813 27.2625ZM102.739 17.3033H106.754V19.1972C107.484 17.7442 108.928 16.9605 110.832 16.9605C113.896 16.9605 115.435 18.7401 115.435 22.2829V30.3482H111.404V23.638C111.404 21.4503 110.801 20.4544 109.182 20.4544C107.579 20.4544 106.754 21.5319 106.754 23.5401V30.3482H102.739V17.3033ZM125.259 27.1156C125.751 27.1156 126.275 27.0829 126.64 27.034V30.3319C126.068 30.4462 125.116 30.5442 123.973 30.5442C122.085 30.5442 119.498 30.1033 119.498 25.7605V20.5687H117.514V17.3033H119.498V13.434H123.513V17.3033H126.37V20.5687H123.513V24.8952C123.513 26.8217 124.275 27.1156 125.259 27.1156ZM134.019 30.7401C130.322 30.7401 128.052 28.8789 128.052 26.4136H132.036C132.036 27.3115 132.877 27.9482 134.099 27.9482C134.956 27.9482 135.559 27.4911 135.559 26.7238C135.559 26.2176 135.321 25.7768 134.638 25.6136L131.544 24.7972C129.449 24.2585 128.369 22.9033 128.369 21.0421C128.369 18.6095 130.433 16.9115 133.765 16.9115C137.463 16.9115 139.4 18.5115 139.4 20.9605H135.448C135.448 20.0462 134.797 19.5238 133.718 19.5238C132.861 19.5238 132.274 19.9646 132.274 20.6013C132.274 21.1891 132.67 21.5809 133.353 21.7605L136.336 22.5931C138.273 23.1319 139.526 24.3564 139.526 26.2176C139.542 28.9278 137.463 30.7401 134.019 30.7401ZM148.652 27.1156C149.144 27.1156 149.668 27.0829 150.033 27.034V30.3319C149.461 30.4462 148.509 30.5442 147.367 30.5442C145.478 30.5442 142.891 30.1033 142.891 25.7605V20.5687H140.907V17.3033H142.891V13.434H146.906V17.3033H149.763V20.5687H146.906V24.8952C146.906 26.8217 147.652 27.1156 148.652 27.1156ZM157.381 30.6911C153.604 30.6911 151.429 27.736 151.429 23.8176C151.429 19.9156 153.762 16.9442 157.428 16.9442C159.269 16.9442 160.698 17.8421 161.38 19.1646V17.3033H165.364V30.3319H161.38V28.487C160.698 29.7931 159.127 30.6911 157.381 30.6911ZM158.524 27.2625C160.507 27.2625 161.539 25.7278 161.539 23.834C161.539 21.9727 160.523 20.4217 158.524 20.4217C156.667 20.4217 155.508 21.8584 155.508 23.834C155.508 25.7931 156.667 27.2625 158.524 27.2625ZM168.697 17.3033H172.712V19.1972C173.267 17.8911 174.569 16.9605 176.33 16.9605C178.584 16.9605 179.743 17.9891 180.282 19.3605C180.965 17.9564 182.456 16.9605 184.313 16.9605C187.932 16.9605 188.789 19.5238 188.789 22.2666V30.3482H184.758V23.0176C184.758 21.2054 184.107 20.4544 182.869 20.4544C181.615 20.4544 180.742 21.1891 180.742 23.638V30.3482H176.711V22.985C176.711 21.1727 176.076 20.438 174.854 20.438C173.569 20.438 172.712 21.1727 172.712 23.6217V30.3319H168.697V17.3033ZM191.947 17.3033H195.962V19.1646C196.613 17.9238 198.184 16.9442 200.073 16.9442C203.533 16.9442 205.881 19.7034 205.881 23.8176C205.881 27.8993 203.453 30.6911 199.962 30.6911C198.105 30.6911 196.581 29.7115 195.962 28.5033V35.7523H191.947V17.3033ZM198.803 27.2625C200.565 27.2625 201.787 25.8584 201.787 23.834C201.787 21.8258 200.549 20.4217 198.803 20.4217C196.994 20.4217 195.772 21.7931 195.772 23.834C195.772 25.8748 197.026 27.2625 198.803 27.2625Z" fill="white"/>
</g>
<defs>
<clipPath id="clip0_9773_7844">
<rect width="206" height="40" fill="white" transform="translate(0 0.666626)"/>
</clipPath>
</defs>
</svg>
