<svg xmlns="http://www.w3.org/2000/svg" width="122" height="24" viewBox="0 0 122 24" fill="none">
  <g clip-path="url(#clip0_9818_8004)">
    <path d="M20.7765 12.0097C20.7765 10.1387 20.2595 8.29708 19.2726 6.72974L22.9101 2.91912L20.1843 0.0587158L16.5469 3.86933C13.4828 1.773 9.51638 1.773 6.45228 3.86933L2.80544 0.0587158L0.0703125 2.91912L3.70775 6.72974C1.70575 9.9428 1.70575 14.0865 3.70775 17.2995L0.0703125 21.1003L2.80544 23.9608L6.44289 20.1501C9.50698 22.2465 13.4734 22.2465 16.5375 20.1501L20.1749 23.9608L22.9101 21.1003L19.2726 17.2897C20.2595 15.7224 20.7859 13.8906 20.7765 12.0097ZM6.07632 12.0097C6.07632 9.6979 7.41099 7.61137 9.45999 6.74933C11.509 5.88729 13.8588 6.40647 15.3908 8.07178C16.9229 9.73708 17.3364 12.2154 16.4247 14.3216L12.8531 10.5795L10.1273 13.4399L13.699 17.182C12.0259 17.9657 10.0803 17.8187 8.53888 16.7706C7.00683 15.7224 6.07632 13.9297 6.07632 12.0097Z" fill="#4BBCFC"/>
    <path d="M40.4487 12.1272C40.4487 14.4685 39.3208 16.5746 37.3 17.5444L38.3715 19.004L36.1627 20.1697L34.687 18.1223H34.64C30.9932 18.1223 28.8408 15.3501 28.8408 12.1174C28.8408 8.88479 30.9932 6.11255 34.64 6.11255C38.2869 6.11255 40.4487 8.89459 40.4487 12.1272ZM34.6494 15.7713C36.7078 15.7713 37.8263 14.0962 37.8263 12.1174C37.8263 10.1387 36.7078 8.46357 34.6494 8.46357C32.5723 8.46357 31.4538 10.1387 31.4726 12.1174C31.4538 14.106 32.5723 15.7713 34.6494 15.7713ZM44.5091 18.0146C42.7139 18.0146 41.7457 16.8489 41.7457 14.8211V9.98194H44.1519V14.2628C44.1519 15.3305 44.4903 15.9183 45.3926 15.9183C46.3983 15.9183 46.8307 15.2325 46.8307 14.1844V9.98194H49.1898V17.7991H46.8307V16.6823C46.4171 17.515 45.6464 18.0146 44.5091 18.0146ZM54.1431 18.0146C51.9061 18.0146 50.6185 16.2415 50.6185 13.8905C50.6185 11.5493 52.0001 9.76643 54.1713 9.76643C55.2616 9.76643 56.1075 10.3052 56.5117 11.0987V9.98194H58.8709V17.7991H56.5117V16.6921C56.1169 17.4758 55.1864 18.0146 54.1431 18.0146ZM54.8293 15.9574C56.0041 15.9574 56.6151 15.0366 56.6151 13.9003C56.6151 12.7836 56.0135 11.853 54.8293 11.853C53.7296 11.853 53.0434 12.715 53.0434 13.9003C53.0434 15.0758 53.7296 15.9574 54.8293 15.9574ZM60.8447 9.98194H63.2226V11.1183C63.655 10.2464 64.5103 9.77622 65.6382 9.77622C67.4522 9.77622 68.3639 10.844 68.3639 12.9697V17.8089H65.9766V13.7828C65.9766 12.4701 65.6194 11.8725 64.6607 11.8725C63.7114 11.8725 63.2226 12.5191 63.2226 13.724V17.8089H60.8447V9.98194ZM74.182 15.8693C74.4733 15.8693 74.7835 15.8497 74.9997 15.8203V17.7991C74.6613 17.8677 74.0974 17.9264 73.4206 17.9264C72.3021 17.9264 70.7701 17.6619 70.7701 15.0562V11.9411H69.5952V9.98194H70.7701V7.6603H73.1481V9.98194H74.8399V11.9411H73.1481V14.537C73.1481 15.693 73.5992 15.8693 74.182 15.8693ZM79.3702 18.044C77.1803 18.044 75.8362 16.9272 75.8362 15.4481H78.1954C78.1954 15.9868 78.6935 16.3689 79.4172 16.3689C79.9248 16.3689 80.282 16.0946 80.282 15.6342C80.282 15.3305 80.141 15.066 79.7368 14.9681L77.904 14.4783C76.6633 14.155 76.0242 13.3419 76.0242 12.2252C76.0242 10.7656 77.2461 9.74683 79.2199 9.74683C81.4098 9.74683 82.5565 10.7068 82.5565 12.1762H80.2162C80.2162 11.6277 79.8308 11.3142 79.1917 11.3142C78.6841 11.3142 78.3363 11.5787 78.3363 11.9607C78.3363 12.3134 78.5713 12.5485 78.9755 12.6562L80.7425 13.1558C81.8892 13.4791 82.6317 14.2138 82.6317 15.3305C82.6411 16.9566 81.4098 18.044 79.3702 18.044ZM88.0362 15.8693C88.3276 15.8693 88.6377 15.8497 88.8539 15.8203V17.7991C88.5155 17.8677 87.9516 17.9264 87.2749 17.9264C86.1564 17.9264 84.6243 17.6619 84.6243 15.0562V11.9411H83.4494V9.98194H84.6243V7.6603H87.0023V9.98194H88.6941V11.9411H87.0023V14.537C87.0023 15.693 87.4441 15.8693 88.0362 15.8693ZM93.2057 18.0146C90.9687 18.0146 89.681 16.2415 89.681 13.8905C89.681 11.5493 91.0627 9.76643 93.2339 9.76643C94.3242 9.76643 95.1701 10.3052 95.5743 11.0987V9.98194H97.9334V17.7991H95.5743V16.6921C95.1701 17.4758 94.2396 18.0146 93.2057 18.0146ZM93.8824 15.9574C95.0573 15.9574 95.6682 15.0366 95.6682 13.9003C95.6682 12.7836 95.0667 11.853 93.8824 11.853C92.7827 11.853 92.0966 12.715 92.0966 13.9003C92.0966 15.0758 92.7827 15.9574 93.8824 15.9574ZM99.9072 9.98194H102.285V11.1183C102.614 10.3346 103.385 9.77622 104.428 9.77622C105.763 9.77622 106.449 10.3934 106.769 11.2162C107.173 10.3738 108.056 9.77622 109.156 9.77622C111.299 9.77622 111.806 11.3142 111.806 12.9599V17.8089H109.419V13.4105C109.419 12.3232 109.034 11.8725 108.301 11.8725C107.558 11.8725 107.041 12.3134 107.041 13.7828V17.8089H104.654V13.3909C104.654 12.3036 104.278 11.8628 103.554 11.8628C102.793 11.8628 102.285 12.3036 102.285 13.773V17.7991H99.9072V9.98194ZM113.677 9.98194H116.055V11.0987C116.44 10.3542 117.371 9.76643 118.489 9.76643C120.538 9.76643 121.929 11.4219 121.929 13.8905C121.929 16.3395 120.491 18.0146 118.423 18.0146C117.324 18.0146 116.421 17.4268 116.055 16.7019V21.0513H113.677V9.98194ZM117.737 15.9574C118.781 15.9574 119.504 15.115 119.504 13.9003C119.504 12.6954 118.771 11.853 117.737 11.853C116.666 11.853 115.942 12.6758 115.942 13.9003C115.942 15.1248 116.685 15.9574 117.737 15.9574Z" fill="white"/>
  </g>
  <defs>
    <clipPath id="clip0_9818_8004">
      <rect width="122" height="24" fill="white"/>
    </clipPath>
  </defs>
</svg>
