<svg xmlns="http://www.w3.org/2000/svg" width="123" height="24" viewBox="0 0 123 24" fill="none">
  <g clip-path="url(#clip0_9818_7912)">
    <path d="M21.4435 12.0099C21.4435 10.1388 20.9265 8.2972 19.9396 6.72986L23.5771 2.91925L20.8513 0.0588379L17.2139 3.86945C14.1498 1.77312 10.1834 1.77312 7.11928 3.86945L3.47244 0.0588379L0.737305 2.91925L4.37475 6.72986C2.37274 9.94292 2.37274 14.0866 4.37475 17.2997L0.737305 21.1005L3.47244 23.9609L7.10988 20.1503C10.174 22.2466 14.1404 22.2466 17.2045 20.1503L20.8419 23.9609L23.5771 21.1005L19.9396 17.2899C20.9265 15.7225 21.4529 13.8907 21.4435 12.0099ZM6.74331 12.0099C6.74331 9.69802 8.07798 7.61149 10.127 6.74945C12.176 5.88741 14.5257 6.40659 16.0578 8.0719C17.5898 9.73721 18.0034 12.2156 17.0917 14.3217L13.52 10.5797L10.7943 13.4401L14.366 17.1821C12.6929 17.9658 10.7473 17.8188 9.20587 16.7707C7.67382 15.7225 6.74331 13.9299 6.74331 12.0099Z" fill="#4BBCFC"/>
    <path d="M41.1157 12.1275C41.1157 14.4687 39.9878 16.5748 37.967 17.5446L39.0385 19.0042L36.8297 20.1699L35.354 18.1226H35.307C31.6602 18.1226 29.5078 15.3503 29.5078 12.1177C29.5078 8.88504 31.6602 6.11279 35.307 6.11279C38.9539 6.11279 41.1157 8.89483 41.1157 12.1275ZM35.3164 15.7716C37.3748 15.7716 38.4933 14.0965 38.4933 12.1177C38.4933 10.1389 37.3748 8.46381 35.3164 8.46381C33.2392 8.46381 32.1208 10.1389 32.1396 12.1177C32.1208 14.1063 33.2392 15.7716 35.3164 15.7716ZM45.1761 18.0148C43.3808 18.0148 42.4127 16.8491 42.4127 14.8214V9.98218H44.8189V14.263C44.8189 15.3308 45.1573 15.9185 46.0596 15.9185C47.0653 15.9185 47.4976 15.2328 47.4976 14.1846V9.98218H49.8568V17.7993H47.4976V16.6826C47.0841 17.5152 46.3134 18.0148 45.1761 18.0148ZM54.8101 18.0148C52.5731 18.0148 51.2855 16.2418 51.2855 13.8908C51.2855 11.5495 52.6671 9.76667 54.8383 9.76667C55.9286 9.76667 56.7745 10.3054 57.1787 11.0989V9.98218H59.5379V17.7993H57.1787V16.6924C56.7839 17.4761 55.8534 18.0148 54.8101 18.0148ZM55.4963 15.9577C56.6711 15.9577 57.2821 15.0369 57.2821 13.9005C57.2821 12.7838 56.6805 11.8532 55.4963 11.8532C54.3966 11.8532 53.7104 12.7152 53.7104 13.9005C53.7104 15.0761 54.3966 15.9577 55.4963 15.9577ZM61.5117 9.98218H63.8896V11.1185C64.322 10.2467 65.1773 9.77647 66.3052 9.77647C68.1192 9.77647 69.0309 10.8442 69.0309 12.9699V17.8091H66.6436V13.783C66.6436 12.4703 66.2864 11.8728 65.3277 11.8728C64.3784 11.8728 63.8896 12.5193 63.8896 13.7242V17.8091H61.5117V9.98218ZM74.8489 15.8695C75.1403 15.8695 75.4505 15.8499 75.6667 15.8205V17.7993C75.3283 17.8679 74.7644 17.9267 74.0876 17.9267C72.9691 17.9267 71.4371 17.6622 71.4371 15.0565V11.9414H70.2622V9.98218H71.4371V7.66055H73.8151V9.98218H75.5069V11.9414H73.8151V14.5373C73.8151 15.6932 74.2662 15.8695 74.8489 15.8695ZM80.0372 18.0442C77.8473 18.0442 76.5032 16.9275 76.5032 15.4483H78.8624C78.8624 15.9871 79.3605 16.3691 80.0842 16.3691C80.5918 16.3691 80.949 16.0948 80.949 15.6344C80.949 15.3308 80.808 15.0663 80.4038 14.9683L78.571 14.4785C77.3303 14.1552 76.6912 13.3422 76.6912 12.2254C76.6912 10.7659 77.913 9.74708 79.8869 9.74708C82.0768 9.74708 83.2235 10.7071 83.2235 12.1765H80.8832C80.8832 11.6279 80.4978 11.3144 79.8587 11.3144C79.3511 11.3144 79.0033 11.5789 79.0033 11.961C79.0033 12.3136 79.2383 12.5487 79.6425 12.6565L81.4095 13.1561C82.5562 13.4793 83.2987 14.214 83.2987 15.3308C83.3081 16.9569 82.0768 18.0442 80.0372 18.0442ZM88.7032 15.8695C88.9946 15.8695 89.3047 15.8499 89.5209 15.8205V17.7993C89.1825 17.8679 88.6186 17.9267 87.9419 17.9267C86.8234 17.9267 85.2913 17.6622 85.2913 15.0565V11.9414H84.1164V9.98218H85.2913V7.66055H87.6693V9.98218H89.3611V11.9414H87.6693V14.5373C87.6693 15.6932 88.111 15.8695 88.7032 15.8695ZM93.8727 18.0148C91.6357 18.0148 90.348 16.2418 90.348 13.8908C90.348 11.5495 91.7297 9.76667 93.9009 9.76667C94.9912 9.76667 95.8371 10.3054 96.2412 11.0989V9.98218H98.6004V17.7993H96.2412V16.6924C95.8371 17.4761 94.9066 18.0148 93.8727 18.0148ZM94.5494 15.9577C95.7243 15.9577 96.3352 15.0369 96.3352 13.9005C96.3352 12.7838 95.7337 11.8532 94.5494 11.8532C93.4497 11.8532 92.7636 12.7152 92.7636 13.9005C92.7636 15.0761 93.4497 15.9577 94.5494 15.9577ZM100.574 9.98218H102.952V11.1185C103.281 10.3348 104.052 9.77647 105.095 9.77647C106.43 9.77647 107.116 10.3936 107.436 11.2165C107.84 10.374 108.723 9.77647 109.823 9.77647C111.966 9.77647 112.473 11.3144 112.473 12.9601V17.8091H110.086V13.4108C110.086 12.3234 109.701 11.8728 108.968 11.8728C108.225 11.8728 107.708 12.3136 107.708 13.783V17.8091H105.321V13.3912C105.321 12.3038 104.945 11.863 104.221 11.863C103.46 11.863 102.952 12.3038 102.952 13.7732V17.7993H100.574V9.98218ZM114.344 9.98218H116.722V11.0989C117.107 10.3544 118.038 9.76667 119.156 9.76667C121.205 9.76667 122.596 11.4222 122.596 13.8908C122.596 16.3397 121.158 18.0148 119.09 18.0148C117.991 18.0148 117.088 17.4271 116.722 16.7022V21.0516H114.344V9.98218ZM118.404 15.9577C119.448 15.9577 120.171 15.1152 120.171 13.9005C120.171 12.6956 119.438 11.8532 118.404 11.8532C117.333 11.8532 116.609 12.6761 116.609 13.9005C116.609 15.125 117.352 15.9577 118.404 15.9577Z" fill="white"/>
  </g>
  <defs>
    <clipPath id="clip0_9818_7912">
      <rect width="122" height="24" fill="white" transform="translate(0.666992)"/>
    </clipPath>
  </defs>
</svg>
