<svg width="462" height="677" viewBox="0 0 462 677" fill="none" xmlns="http://www.w3.org/2000/svg">
<g opacity="0.7">
<path d="M264.971 459.412C120.135 459.412 2.24524 416.175 2.24524 363.079C2.24524 309.984 120.135 266.746 264.971 266.746C409.806 266.746 527.696 309.984 527.696 363.079C527.696 416.175 409.806 459.412 264.971 459.412Z" fill="#F2F9FF"/>
<path d="M264.971 269.211C335.255 269.211 401.274 279.292 450.675 297.886C498.055 315.585 525.451 339.332 525.451 363.303C525.451 387.275 498.28 411.022 450.675 428.72C401.049 447.091 335.255 457.396 264.971 457.396C194.686 457.396 128.668 447.315 79.2667 428.72C31.6618 411.022 4.49103 387.051 4.49103 363.079C4.49103 339.108 31.6618 315.361 79.2667 297.662C128.668 279.292 194.686 269.211 264.971 269.211ZM264.971 264.73C118.563 264.73 0 308.864 0 363.303C0 417.743 118.563 461.877 264.971 461.877C411.378 461.877 529.942 417.743 529.942 363.303C529.942 308.864 411.154 264.73 264.971 264.73Z" fill="white"/>
<path d="M0 676.946H529.942V364.871C529.942 419.311 411.378 463.445 264.971 463.445C118.563 463.445 0 419.311 0 364.871V676.946Z" fill="url(#paint0_linear_195_1401)"/>
<path opacity="0.7" d="M264.971 363.079L452.92 427.376C458.534 429.392 462.127 433.425 462.127 438.13V676.946" stroke="#3083FF" stroke-width="2" stroke-miterlimit="10"/>
<path opacity="0.7" d="M264.97 363.079L77.0203 427.376C71.4065 429.392 67.8137 433.425 67.8137 438.13V676.946" stroke="#C4DFFF" stroke-width="2" stroke-miterlimit="10"/>
<path d="M274.851 537.823H255.315V655.888H274.851V537.823Z" fill="#3083FF"/>
<path d="M269.013 599.879H260.929V648.718H269.013V599.879Z" fill="#FFDD33"/>
<path d="M264.971 419.012C169.536 419.012 91.8416 390.784 91.8416 356.059C91.8416 321.335 169.536 293.107 264.971 293.107C360.405 293.107 438.1 321.335 438.1 356.059C438.1 390.784 360.405 419.012 264.971 419.012Z" fill="#E8F4FF"/>
<path d="M264.971 295.347C311.229 295.347 354.792 302.068 387.352 314.166C418.115 325.591 435.855 340.825 435.855 356.059C435.855 371.294 418.115 386.528 387.352 397.953C354.792 410.051 311.229 416.772 264.971 416.772C218.713 416.772 175.15 410.051 142.59 397.953C111.827 386.528 94.0873 371.294 94.0873 356.059C94.0873 340.825 111.827 325.591 142.59 314.166C175.15 302.068 218.489 295.347 264.971 295.347ZM264.971 290.866C168.189 290.866 89.5963 319.99 89.5963 356.059C89.5963 392.128 168.189 421.252 264.971 421.252C361.753 421.252 440.346 392.128 440.346 356.059C440.346 319.99 361.753 290.866 264.971 290.866Z" fill="white"/>
<path d="M264.971 348.443C169.536 348.443 91.8416 320.215 91.8416 285.49C91.8416 250.765 169.536 222.537 264.971 222.537C360.405 222.537 438.1 250.765 438.1 285.49C438.1 320.215 360.405 348.443 264.971 348.443Z" fill="#FFF2BB"/>
<path d="M264.971 224.554C311.229 224.554 354.792 231.275 387.352 243.372C418.115 254.798 435.855 270.032 435.855 285.266C435.855 300.5 418.115 315.734 387.352 327.16C354.792 339.257 311.229 345.978 264.971 345.978C218.713 345.978 175.15 339.257 142.59 327.16C111.827 315.734 94.0873 300.5 94.0873 285.266C94.0873 270.032 111.827 254.798 142.59 243.372C175.15 231.275 218.489 224.554 264.971 224.554ZM264.971 220.073C168.189 220.073 89.5963 249.197 89.5963 285.266C89.5963 321.335 168.189 350.459 264.971 350.459C361.753 350.459 440.346 321.335 440.346 285.266C440.346 249.197 361.753 220.073 264.971 220.073Z" fill="white"/>
<path d="M162.575 290.866C176.497 278.545 217.141 269.36 264.97 269.36C312.8 269.36 353.444 278.321 367.366 290.866C370.734 287.954 372.531 284.594 372.531 281.457C372.531 264.431 324.252 250.541 264.97 250.541C205.464 250.541 157.41 264.431 157.41 281.457C157.41 284.594 159.207 287.954 162.575 290.866Z" fill="#EAD994"/>
<path d="M89.5963 350.683C89.5963 386.752 168.189 415.876 264.971 415.876C361.753 415.876 440.346 386.752 440.346 350.683V286.61C440.346 322.679 361.753 351.803 264.971 351.803C168.189 351.803 89.5963 322.679 89.5963 286.61V350.683Z" fill="url(#paint1_linear_195_1401)"/>
<path d="M156 285.07C156 306.62 204.454 324.331 263.951 324.331C323.448 324.331 371.902 306.834 371.902 285.07V0.5H156V285.07Z" fill="url(#paint2_linear_195_1401)"/>
<g filter="url(#filter0_bi_195_1401)">
<path d="M340.21 292.858V440.46C441.016 430.5 515.221 396.438 515.221 355.803V208.201C515.221 248.837 441.016 282.899 340.21 292.858Z" fill="#E8F4FF" fill-opacity="0.2"/>
</g>
</g>
<defs>
<filter id="filter0_bi_195_1401" x="332.21" y="200.201" width="191.012" height="248.258" filterUnits="userSpaceOnUse" color-interpolation-filters="sRGB">
<feFlood flood-opacity="0" result="BackgroundImageFix"/>
<feGaussianBlur in="BackgroundImageFix" stdDeviation="4"/>
<feComposite in2="SourceAlpha" operator="in" result="effect1_backgroundBlur_195_1401"/>
<feBlend mode="normal" in="SourceGraphic" in2="effect1_backgroundBlur_195_1401" result="shape"/>
<feColorMatrix in="SourceAlpha" type="matrix" values="0 0 0 0 0 0 0 0 0 0 0 0 0 0 0 0 0 0 127 0" result="hardAlpha"/>
<feOffset dy="3"/>
<feGaussianBlur stdDeviation="2"/>
<feComposite in2="hardAlpha" operator="arithmetic" k2="-1" k3="1"/>
<feColorMatrix type="matrix" values="0 0 0 0 1 0 0 0 0 1 0 0 0 0 1 0 0 0 0.78 0"/>
<feBlend mode="normal" in2="shape" result="effect2_innerShadow_195_1401"/>
</filter>
<linearGradient id="paint0_linear_195_1401" x1="0" y1="520.93" x2="529.856" y2="520.93" gradientUnits="userSpaceOnUse">
<stop stop-color="#FAFCFF"/>
<stop offset="1" stop-color="#C4D9FF"/>
</linearGradient>
<linearGradient id="paint1_linear_195_1401" x1="89.4926" y1="351.151" x2="440.364" y2="351.151" gradientUnits="userSpaceOnUse">
<stop offset="0.3352" stop-color="#F5E5A9"/>
<stop offset="1" stop-color="#F0D042"/>
</linearGradient>
<linearGradient id="paint2_linear_195_1401" x1="263.908" y1="296.727" x2="263.908" y2="-120.753" gradientUnits="userSpaceOnUse">
<stop stop-color="#D6EBFF" stop-opacity="0.52"/>
<stop offset="1" stop-color="white" stop-opacity="0"/>
</linearGradient>
</defs>
</svg>
