<svg width="102" height="48" viewBox="0 0 102 48" fill="none" xmlns="http://www.w3.org/2000/svg">
<path d="M48 34.428L24.0295 0L0 34.4368L24.1101 48L48 34.428ZM22.5307 21.7646L6.19765 30.9847L22.5307 7.32604V21.7646ZM25.5624 7.32604L41.9026 30.9847L25.5696 21.7663L25.5624 7.32604ZM38.0974 36.6267L24.0152 28.6792L21.0641 30.3562L35.1463 38.3037L31.2891 40.4937L17.2087 32.5462L13.878 34.4368L27.9602 42.3842L24.1048 44.5742L6.14393 34.4368L23.9955 24.2993L41.9564 34.4368L38.0974 36.6267Z" fill="url(#paint0_linear_4096_10569)"/>
<path d="M69 32.5H58V15.5H69V18.6174H61.4193V22.5013H68.2771V25.4534H61.4193V29.3895H69V32.5Z" fill="url(#paint1_linear_4096_10569)"/>
<path d="M81.0339 32.5L77.446 25.9543H75.5879V32.5H72V15.5H79.1494C80.905 15.5 82.3174 15.9956 83.3867 16.9869C84.4559 17.9781 84.9891 19.2245 84.9862 20.7262C84.9862 21.907 84.6381 22.9261 83.9417 23.7835C83.2454 24.6409 82.2917 25.2284 81.0805 25.5459L85 32.5H81.0339ZM75.5879 23.1006H78.4778C79.3732 23.1006 80.0745 22.8848 80.5816 22.4531C81.0886 22.0215 81.3425 21.454 81.3432 20.7508C81.3432 20.0291 81.0893 19.4538 80.5816 19.0248C80.0738 18.5957 79.3725 18.3799 78.4778 18.3773H75.5879V23.1006Z" fill="url(#paint2_linear_4096_10569)"/>
<path d="M93.8665 32.5H88V15.5H93.8875C96.2828 15.5 98.2336 16.2593 99.7398 17.778C101.246 19.2967 101.999 21.3746 102 24.0118C102 26.6359 101.243 28.7059 99.7283 30.222C98.2139 31.738 96.26 32.4974 93.8665 32.5ZM91.203 29.4308H93.7524C95.1895 29.4308 96.3716 28.967 97.2988 28.0394C98.226 27.1118 98.6895 25.7693 98.6895 24.0118C98.6895 22.2543 98.226 20.9095 97.2988 19.9773C96.3716 19.0451 95.1983 18.5774 93.779 18.5741H91.2011L91.203 29.4308Z" fill="url(#paint3_linear_4096_10569)"/>
<defs>
<linearGradient id="paint0_linear_4096_10569" x1="11.5" y1="45.5" x2="31.5" y2="4.5" gradientUnits="userSpaceOnUse">
<stop stop-color="#863CFF"/>
<stop offset="1" stop-color="#FF7878"/>
</linearGradient>
<linearGradient id="paint1_linear_4096_10569" x1="60.6354" y1="31.6146" x2="69.2763" y2="20.1527" gradientUnits="userSpaceOnUse">
<stop stop-color="#863CFF"/>
<stop offset="1" stop-color="#FF7878"/>
</linearGradient>
<linearGradient id="paint2_linear_4096_10569" x1="75.1146" y1="31.6146" x2="83.265" y2="18.8376" gradientUnits="userSpaceOnUse">
<stop stop-color="#863CFF"/>
<stop offset="1" stop-color="#FF7878"/>
</linearGradient>
<linearGradient id="paint3_linear_4096_10569" x1="91.3542" y1="31.6146" x2="99.2365" y2="18.3074" gradientUnits="userSpaceOnUse">
<stop stop-color="#863CFF"/>
<stop offset="1" stop-color="#FF7878"/>
</linearGradient>
</defs>
</svg>
