<svg xmlns="http://www.w3.org/2000/svg" viewBox="0 0 703.37 232.31"><defs><style>.cls-1{font-size:33.16px;font-family:CircularStd-Medium, Circular Std;font-weight:500;letter-spacing:0.03em;}.cls-1,.cls-11{fill:#fff;}.cls-2{letter-spacing:0.01em;}.cls-3{letter-spacing:0.02em;}.cls-4{letter-spacing:0.02em;}.cls-5{letter-spacing:0.01em;}.cls-6{letter-spacing:0.01em;}.cls-7{letter-spacing:0.04em;}.cls-8{letter-spacing:0.01em;}.cls-9{letter-spacing:0.03em;}.cls-10{letter-spacing:0.02em;}</style></defs><g id="layer_2" data-name="layer 2"><g id="layer_1-2" data-name="layer 1"><text class="cls-1" transform="translate(308.54 210.77)">E<tspan class="cls-2" x="20.13" y="0">t</tspan><tspan class="cls-3" x="32.67" y="0">he</tspan><tspan class="cls-4" x="71.53" y="0">r</tspan><tspan class="cls-5" x="84.87" y="0">e</tspan><tspan class="cls-3" x="103.54" y="0">um </tspan><tspan class="cls-6" x="162.33" y="0">R</tspan><tspan class="cls-3" x="183.23" y="0">e</tspan><tspan class="cls-4" x="202.23" y="0">s</tspan><tspan class="cls-3" x="218.12" y="0">e</tspan><tspan class="cls-7" x="237.12" y="0">r</tspan><tspan class="cls-8" x="251.11" y="0">v</tspan><tspan x="268.85" y="0">e </tspan><tspan class="cls-9" x="296.91" y="0">D</tspan><tspan class="cls-3" x="321.75" y="0">ol</tspan><tspan class="cls-10" x="351.43" y="0">l</tspan><tspan x="361.01" y="0">ar</tspan></text><path class="cls-11" d="M398.29,160H306.63V13.65h91.66V40.49H335.12V73.93H392.3V99.32H335.12v33.86h63.17Z"/><path class="cls-11" d="M511.36,160l-28.7-56.35H467.8V160H439.1V13.65h57.18q21.06,0,33.86,12.8t12.8,32.2q0,15.29-8.36,26.33t-22.81,15.17L543.15,160ZM467.8,79.09h23.12q10.72,0,16.82-5.57t6.09-14.66q0-9.28-6.09-14.86t-16.82-5.58H467.8Z"/><path class="cls-11" d="M630.91,160H578.68V13.65h52.44q32,0,52.12,19.61t20.13,53.68q0,33.86-20.23,53.46T630.91,160Zm-23.74-26.42h22.71q19.2,0,31.58-12t12.39-34.68q0-22.71-12.39-34.79T630.09,40.08H607.17Z"/><path class="cls-11" d="M227.1,166.62,113.69,0,0,166.67l114.07,65.64ZM106.6,105.33,29.32,150,106.6,35.46ZM121,35.46,198.22,150,121,105.33Zm59.28,141.81L113.61,138.8l-14,8.12,66.63,38.46L148,196,81.4,157.52l-15.74,9.15,66.62,38.46-18.23,10.6-85-49.06,84.42-49.07,85,49.06Z"/></g></g></svg>
