<svg width="80" height="80" viewBox="0 0 80 80" fill="none" xmlns="http://www.w3.org/2000/svg">
<g filter="url(#filter0_dii_140_157)">
<path fill-rule="evenodd" clip-rule="evenodd" d="M37.6179 22.5269C37.6179 21.1313 38.7663 20 40.183 20C41.5997 20 42.7482 21.1313 42.7482 22.5269V23.8268C42.7482 24.5264 43.2981 25.2513 44.2162 25.5667C45.8959 26.1437 47.4414 27.0464 48.7541 28.2241C49.8723 29.2271 49.8331 30.8217 49.0206 31.8645C47.8916 33.3137 45.8803 33.2422 44.6305 32.374C44.217 32.0867 43.775 31.8364 43.3099 31.6271C42.3045 31.1748 41.2129 30.9238 40.1018 30.8904C38.8411 30.893 37.9042 31.1942 37.3115 31.6391C36.7541 32.0576 36.4148 32.6624 36.4148 33.5369C36.4148 34.2924 36.8451 34.9114 38.0268 35.5979C38.9074 36.1095 39.9799 36.5328 41.2063 37.0168C41.6864 37.2063 42.1902 37.4051 42.7152 37.6222C44.4908 38.3563 46.4263 39.2745 47.9143 40.6951C49.4463 42.1577 50.4669 44.1166 50.4718 46.8012C50.5467 49.1567 49.6541 51.4411 47.9954 53.1602C46.9834 54.209 45.7364 54.9957 44.3687 55.4722C43.3399 55.8307 42.7482 56.5778 42.7482 57.2543V58.4128C42.7482 59.8154 41.594 60.9524 40.1702 60.9524C38.7463 60.9524 37.5921 59.8154 37.5921 58.4128V57.2331C37.5921 56.5565 37.0402 55.8614 36.1437 55.6254C34.0622 55.0776 32.1253 54.0904 30.4776 52.7288C29.3895 51.8297 29.2739 50.3432 29.9203 49.2587C30.9198 47.5817 33.1071 47.484 34.4731 48.3984C34.9749 48.7343 35.5104 49.0246 36.0727 49.2646C37.253 49.7683 38.5271 50.0397 39.8196 50.062C41.5848 50.0608 42.6945 49.7196 43.3382 49.2469C43.922 48.8182 44.2602 48.1806 44.2602 47.1677C44.2602 46.2442 43.7655 45.5396 42.6131 44.8159C41.6635 44.2196 40.4692 43.7344 39.1036 43.1795C38.7333 43.0291 38.3505 42.8735 37.9565 42.7092C36.1938 41.9742 34.2626 41.0805 32.778 39.719C31.2451 38.3132 30.2086 36.4283 30.2032 33.8298C30.1282 31.5553 30.989 29.3488 32.5907 27.6892C33.5414 26.7042 34.707 25.9593 35.9856 25.4971C37.0242 25.1216 37.6179 24.3717 37.6179 23.6961V22.5269Z" fill="#3083FF"/>
</g>
<path d="M2.04032 60.2052C4.51958 59.3429 7.22434 60.4633 8.68087 62.6471C12.3573 68.1591 17.3449 72.6576 23.2037 75.6984C30.4057 79.4364 38.5663 80.7859 46.5521 79.5596C54.5378 78.3333 61.9522 74.592 67.7651 68.8554C73.578 63.1188 77.501 55.6718 78.9889 47.5488C79.0713 47.1023 79.0669 46.6435 78.9761 46.1987C78.8852 45.7539 78.7096 45.3318 78.4594 44.9564C78.2091 44.5811 77.8891 44.2598 77.5175 44.0111C77.1459 43.7623 76.7301 43.5909 76.2938 43.5065C75.8575 43.4222 75.4093 43.4267 74.9747 43.5197C74.5401 43.6127 74.1276 43.7924 73.7608 44.0485C73.3941 44.3046 73.0802 44.6322 72.8371 45.0125C72.5941 45.3927 72.4266 45.8183 72.3442 46.2648C69.07 64.0806 52.2465 75.845 34.8434 72.4894C26.6253 70.9072 19.5728 66.2556 14.8515 59.6311C13.7079 58.0265 14.5443 55.8503 16.4053 55.2028C16.6614 55.1138 16.8901 54.9573 17.0683 54.7491C17.2466 54.5409 17.3682 54.2883 17.4208 54.0168C17.4734 53.7452 17.4552 53.4643 17.368 53.2022C17.2808 52.9402 17.1277 52.7062 16.9242 52.524L5.51285 42.2954C5.3095 42.1131 5.06284 41.9888 4.79765 41.9349C4.53247 41.8811 4.25811 41.8996 4.00215 41.9887C3.74619 42.0778 3.51764 42.2342 3.33948 42.4423C3.16132 42.6504 3.03983 42.9029 2.98721 43.1743L0.0299082 58.4052C-0.023228 58.6771 -0.00533504 58.9586 0.0817807 59.2212C0.168896 59.4837 0.322152 59.7182 0.526079 59.9007C0.730005 60.0833 0.977386 60.2076 1.24325 60.2611C1.50912 60.3145 1.78406 60.2953 2.04032 60.2052Z" fill="#897DFE"/>
<path d="M2.04032 60.2052C4.51958 59.3429 7.22434 60.4633 8.68087 62.6471C12.3573 68.1591 17.3449 72.6576 23.2037 75.6984C30.4057 79.4364 38.5663 80.7859 46.5521 79.5596C54.5378 78.3333 61.9522 74.592 67.7651 68.8554C73.578 63.1188 77.501 55.6718 78.9889 47.5488C79.0713 47.1023 79.0669 46.6435 78.9761 46.1987C78.8852 45.7539 78.7096 45.3318 78.4594 44.9564C78.2091 44.5811 77.8891 44.2598 77.5175 44.0111C77.1459 43.7623 76.7301 43.5909 76.2938 43.5065C75.8575 43.4222 75.4093 43.4267 74.9747 43.5197C74.5401 43.6127 74.1276 43.7924 73.7608 44.0485C73.3941 44.3046 73.0802 44.6322 72.8371 45.0125C72.5941 45.3927 72.4266 45.8183 72.3442 46.2648C69.07 64.0806 52.2465 75.845 34.8434 72.4894C26.6253 70.9072 19.5728 66.2556 14.8515 59.6311C13.7079 58.0265 14.5443 55.8503 16.4053 55.2028C16.6614 55.1138 16.8901 54.9573 17.0683 54.7491C17.2466 54.5409 17.3682 54.2883 17.4208 54.0168C17.4734 53.7452 17.4552 53.4643 17.368 53.2022C17.2808 52.9402 17.1277 52.7062 16.9242 52.524L5.51285 42.2954C5.3095 42.1131 5.06284 41.9888 4.79765 41.9349C4.53247 41.8811 4.25811 41.8996 4.00215 41.9887C3.74619 42.0778 3.51764 42.2342 3.33948 42.4423C3.16132 42.6504 3.03983 42.9029 2.98721 43.1743L0.0299082 58.4052C-0.023228 58.6771 -0.00533504 58.9586 0.0817807 59.2212C0.168896 59.4837 0.322152 59.7182 0.526079 59.9007C0.730005 60.0833 0.977386 60.2076 1.24325 60.2611C1.50912 60.3145 1.78406 60.2953 2.04032 60.2052Z" fill="url(#paint0_linear_140_157)"/>
<path d="M56.7967 4.30128C62.6544 7.34138 67.6415 11.8387 71.3182 17.3494C72.776 19.5345 75.4827 20.6555 77.9637 19.7926C78.2201 19.7033 78.4949 19.6848 78.7605 19.7389C79.0261 19.793 79.273 19.9179 79.4764 20.1008C79.6798 20.2837 79.8325 20.5183 79.9191 20.7809C80.0057 21.0435 80.0231 21.3249 79.9697 21.5965L77.0168 36.8256C76.9642 37.097 76.8427 37.3495 76.6645 37.5576C76.4863 37.7658 76.2578 37.9222 76.0018 38.0113C75.7458 38.1004 75.4714 38.1189 75.2062 38.0651C74.941 38.0112 74.6944 37.8869 74.491 37.7046L63.0791 27.471C62.8755 27.2887 62.7224 27.0547 62.6353 26.7926C62.5481 26.5306 62.5299 26.2496 62.5825 25.978C62.6351 25.7064 62.7566 25.4538 62.9349 25.2456C63.1132 25.0374 63.3419 24.8809 63.598 24.7918C65.4585 24.1464 66.2954 21.9717 65.1527 20.3679C60.4312 13.742 53.3779 9.08941 45.1589 7.50686C27.7549 4.15553 10.9305 15.9204 7.65618 33.7347C7.48981 34.6366 6.9802 35.4339 6.23946 35.9513C5.49872 36.4686 4.58752 36.6636 3.70633 36.4933C2.82513 36.323 2.04612 35.8014 1.54067 35.0432C1.29039 34.6678 1.11481 34.2456 1.02395 33.8008C0.933081 33.3559 0.928714 32.8971 1.01109 32.4505C2.49994 24.3275 6.42335 16.8807 12.2364 11.1443C18.0495 5.40789 25.4636 1.66675 33.449 0.440444C41.4345 -0.785858 49.5948 0.563561 56.7967 4.30128Z" fill="#5E9EFF"/>
<path d="M56.7967 4.30128C62.6544 7.34138 67.6415 11.8387 71.3182 17.3494C72.776 19.5345 75.4827 20.6555 77.9637 19.7926C78.2201 19.7033 78.4949 19.6848 78.7605 19.7389C79.0261 19.793 79.273 19.9179 79.4764 20.1008C79.6798 20.2837 79.8325 20.5183 79.9191 20.7809C80.0057 21.0435 80.0231 21.3249 79.9697 21.5965L77.0168 36.8256C76.9642 37.097 76.8427 37.3495 76.6645 37.5576C76.4863 37.7658 76.2578 37.9222 76.0018 38.0113C75.7458 38.1004 75.4714 38.1189 75.2062 38.0651C74.941 38.0112 74.6944 37.8869 74.491 37.7046L63.0791 27.471C62.8755 27.2887 62.7224 27.0547 62.6353 26.7926C62.5481 26.5306 62.5299 26.2496 62.5825 25.978C62.6351 25.7064 62.7566 25.4538 62.9349 25.2456C63.1132 25.0374 63.3419 24.8809 63.598 24.7918C65.4585 24.1464 66.2954 21.9717 65.1527 20.3679C60.4312 13.742 53.3779 9.08941 45.1589 7.50686C27.7549 4.15553 10.9305 15.9204 7.65618 33.7347C7.48981 34.6366 6.9802 35.4339 6.23946 35.9513C5.49872 36.4686 4.58752 36.6636 3.70633 36.4933C2.82513 36.323 2.04612 35.8014 1.54067 35.0432C1.29039 34.6678 1.11481 34.2456 1.02395 33.8008C0.933081 33.3559 0.928714 32.8971 1.01109 32.4505C2.49994 24.3275 6.42335 16.8807 12.2364 11.1443C18.0495 5.40789 25.4636 1.66675 33.449 0.440444C41.4345 -0.785858 49.5948 0.563561 56.7967 4.30128Z" fill="url(#paint1_linear_140_157)"/>
<defs>
<filter id="filter0_dii_140_157" x="25.5238" y="19" width="28.9524" height="48.9524" filterUnits="userSpaceOnUse" color-interpolation-filters="sRGB">
<feFlood flood-opacity="0" result="BackgroundImageFix"/>
<feColorMatrix in="SourceAlpha" type="matrix" values="0 0 0 0 0 0 0 0 0 0 0 0 0 0 0 0 0 0 127 0" result="hardAlpha"/>
<feOffset dy="3"/>
<feGaussianBlur stdDeviation="2"/>
<feComposite in2="hardAlpha" operator="out"/>
<feColorMatrix type="matrix" values="0 0 0 0 1 0 0 0 0 1 0 0 0 0 1 0 0 0 1 0"/>
<feBlend mode="normal" in2="BackgroundImageFix" result="effect1_dropShadow_140_157"/>
<feBlend mode="normal" in="SourceGraphic" in2="effect1_dropShadow_140_157" result="shape"/>
<feColorMatrix in="SourceAlpha" type="matrix" values="0 0 0 0 0 0 0 0 0 0 0 0 0 0 0 0 0 0 127 0" result="hardAlpha"/>
<feOffset dy="1"/>
<feGaussianBlur stdDeviation="0.5"/>
<feComposite in2="hardAlpha" operator="arithmetic" k2="-1" k3="1"/>
<feColorMatrix type="matrix" values="0 0 0 0 1 0 0 0 0 1 0 0 0 0 1 0 0 0 0.44 0"/>
<feBlend mode="normal" in2="shape" result="effect2_innerShadow_140_157"/>
<feColorMatrix in="SourceAlpha" type="matrix" values="0 0 0 0 0 0 0 0 0 0 0 0 0 0 0 0 0 0 127 0" result="hardAlpha"/>
<feOffset dy="-1"/>
<feGaussianBlur stdDeviation="0.5"/>
<feComposite in2="hardAlpha" operator="arithmetic" k2="-1" k3="1"/>
<feColorMatrix type="matrix" values="0 0 0 0 0.188235 0 0 0 0 0.188235 0 0 0 0 0.188235 0 0 0 0.3 0"/>
<feBlend mode="normal" in2="effect2_innerShadow_140_157" result="effect3_innerShadow_140_157"/>
</filter>
<linearGradient id="paint0_linear_140_157" x1="79.0476" y1="46.1905" x2="52.3512" y2="92.3446" gradientUnits="userSpaceOnUse">
<stop stop-color="white"/>
<stop offset="1" stop-color="white" stop-opacity="0"/>
</linearGradient>
<linearGradient id="paint1_linear_140_157" x1="4.28572" y1="38.0952" x2="46.1853" y2="5.26787" gradientUnits="userSpaceOnUse">
<stop stop-color="white"/>
<stop offset="1" stop-color="white" stop-opacity="0"/>
</linearGradient>
</defs>
</svg>
