<svg width="80" height="80" viewBox="0 0 80 80" fill="none" xmlns="http://www.w3.org/2000/svg">
<g filter="url(#filter0_i_200_662)">
<rect width="80" height="80" rx="40" fill="#DAE7FA"/>
<rect width="80" height="80" rx="40" fill="url(#paint0_radial_200_662)"/>
<rect width="80" height="80" rx="40" fill="url(#paint1_radial_200_662)"/>
</g>
<g filter="url(#filter1_dii_200_662)">
<path fill-rule="evenodd" clip-rule="evenodd" d="M24 24C24 22.3431 25.3431 21 27 21C28.6569 21 30 22.3431 30 24V55C30 56.6569 28.6569 58 27 58C25.3431 58 24 56.6569 24 55V24ZM37 36.3333C37 34.6765 38.3431 33.3333 40 33.3333C41.6569 33.3333 43 34.6765 43 36.3333V55C43 56.6569 41.6569 58 40 58C38.3431 58 37 56.6569 37 55V36.3333ZM53 42.8205C51.3431 42.8205 50 44.1637 50 45.8205V55C50 56.6569 51.3431 58 53 58C54.6569 58 56 56.6569 56 55V45.8205C56 44.1637 54.6569 42.8205 53 42.8205Z" fill="#3083FF"/>
</g>
<defs>
<filter id="filter0_i_200_662" x="0" y="0" width="80" height="80" filterUnits="userSpaceOnUse" color-interpolation-filters="sRGB">
<feFlood flood-opacity="0" result="BackgroundImageFix"/>
<feBlend mode="normal" in="SourceGraphic" in2="BackgroundImageFix" result="shape"/>
<feColorMatrix in="SourceAlpha" type="matrix" values="0 0 0 0 0 0 0 0 0 0 0 0 0 0 0 0 0 0 127 0" result="hardAlpha"/>
<feOffset/>
<feGaussianBlur stdDeviation="4"/>
<feComposite in2="hardAlpha" operator="arithmetic" k2="-1" k3="1"/>
<feColorMatrix type="matrix" values="0 0 0 0 0 0 0 0 0 0 0 0 0 0 0 0 0 0 0.08 0"/>
<feBlend mode="normal" in2="shape" result="effect1_innerShadow_200_662"/>
</filter>
<filter id="filter1_dii_200_662" x="22" y="20" width="36" height="42" filterUnits="userSpaceOnUse" color-interpolation-filters="sRGB">
<feFlood flood-opacity="0" result="BackgroundImageFix"/>
<feColorMatrix in="SourceAlpha" type="matrix" values="0 0 0 0 0 0 0 0 0 0 0 0 0 0 0 0 0 0 127 0" result="hardAlpha"/>
<feOffset dy="2"/>
<feGaussianBlur stdDeviation="1"/>
<feComposite in2="hardAlpha" operator="out"/>
<feColorMatrix type="matrix" values="0 0 0 0 1 0 0 0 0 1 0 0 0 0 1 0 0 0 1 0"/>
<feBlend mode="normal" in2="BackgroundImageFix" result="effect1_dropShadow_200_662"/>
<feBlend mode="normal" in="SourceGraphic" in2="effect1_dropShadow_200_662" result="shape"/>
<feColorMatrix in="SourceAlpha" type="matrix" values="0 0 0 0 0 0 0 0 0 0 0 0 0 0 0 0 0 0 127 0" result="hardAlpha"/>
<feOffset dy="1"/>
<feGaussianBlur stdDeviation="0.5"/>
<feComposite in2="hardAlpha" operator="arithmetic" k2="-1" k3="1"/>
<feColorMatrix type="matrix" values="0 0 0 0 1 0 0 0 0 1 0 0 0 0 1 0 0 0 0.44 0"/>
<feBlend mode="normal" in2="shape" result="effect2_innerShadow_200_662"/>
<feColorMatrix in="SourceAlpha" type="matrix" values="0 0 0 0 0 0 0 0 0 0 0 0 0 0 0 0 0 0 127 0" result="hardAlpha"/>
<feOffset dy="-1"/>
<feGaussianBlur stdDeviation="0.5"/>
<feComposite in2="hardAlpha" operator="arithmetic" k2="-1" k3="1"/>
<feColorMatrix type="matrix" values="0 0 0 0 0.188235 0 0 0 0 0.188235 0 0 0 0 0.188235 0 0 0 0.3 0"/>
<feBlend mode="normal" in2="effect2_innerShadow_200_662" result="effect3_innerShadow_200_662"/>
</filter>
<radialGradient id="paint0_radial_200_662" cx="0" cy="0" r="1" gradientUnits="userSpaceOnUse" gradientTransform="translate(60.5714 22.2857) rotate(129.806) scale(40.167)">
<stop stop-color="white"/>
<stop offset="1" stop-color="white" stop-opacity="0"/>
</radialGradient>
<radialGradient id="paint1_radial_200_662" cx="0" cy="0" r="1" gradientUnits="userSpaceOnUse" gradientTransform="translate(-86 -52) rotate(43.3038) scale(155.278)">
<stop stop-color="#897DFE" stop-opacity="0.75"/>
<stop offset="1" stop-color="#897DFE" stop-opacity="0"/>
</radialGradient>
</defs>
</svg>
