<svg width="390" height="358" viewBox="0 0 390 358" fill="none" xmlns="http://www.w3.org/2000/svg">
<path fill-rule="evenodd" clip-rule="evenodd" d="M-69.1496 0.000318943L-84.9997 15.4348L-69.1496 0.000318943ZM-69.1496 0.000318943L-53.2995 15.4348L-69.1496 0.000318943ZM-53.2995 0L-37.4494 15.4348L-53.2995 0ZM-37.4494 0L-21.5997 15.4348L-37.4494 0ZM-21.5997 0L-5.7496 15.4348L-21.5997 0ZM10.1005 0L-5.7496 15.4348L10.1005 0ZM25.9506 0L10.1005 15.4348L25.9506 0ZM25.9506 0L41.8007 15.4348L25.9506 0ZM41.8007 0L57.6507 15.4348L41.8007 0ZM57.6507 0L73.5005 15.4348L57.6507 0ZM89.3505 0L73.5005 15.4348L89.3505 0ZM105.201 0L89.3505 15.4348L105.201 0ZM105.201 0L121.051 15.4348L105.201 0ZM121.051 0L136.901 15.4348L121.051 0ZM136.901 0L152.751 15.4348L136.901 0ZM152.751 0L168.601 15.4348L152.751 0ZM168.601 0L184.451 15.4348L168.601 0ZM184.451 0L200.301 15.4348L184.451 0ZM200.301 0L216.151 15.4348L200.301 0ZM216.151 0L232.001 15.4348L216.151 0ZM232.001 0L247.849 15.4348L232.001 0ZM247.849 0L263.7 15.4348L247.849 0ZM263.7 0L279.552 15.4348L263.7 0ZM295.399 0L279.552 15.4348L295.399 0ZM295.399 0L311.25 15.4348L295.399 0ZM327.102 0L311.25 15.4348L327.102 0ZM342.949 0L327.102 15.4348L342.949 0ZM342.949 0L358.8 15.4348L342.949 0ZM374.651 0L358.8 15.4348L374.651 0ZM374.651 0L390.502 15.4348L374.651 0ZM390.502 0L406.35 15.4348L390.502 0ZM406.35 0L422.201 15.4348L406.35 0ZM438.052 0L422.201 15.4348L438.052 0ZM438.052 0L453.9 15.4348L438.052 0ZM453.9 0L469.751 15.4348L453.9 0ZM469.751 0L485.602 15.4348L469.751 0ZM485.602 0L501.45 15.4348L485.602 0ZM501.45 0L517.301 15.4348L501.45 0ZM517.301 0L533.152 15.4348L517.301 0ZM533.152 0L549 15.4348L533.152 0ZM-84.9997 15.4348L-69.1496 30.8696L-84.9997 15.4348ZM-69.1496 15.4348L-53.2995 30.8696L-69.1496 15.4348ZM-37.4494 15.4348L-53.2995 30.8696L-37.4494 15.4348ZM-37.4494 15.4348L-21.5997 30.8696L-37.4494 15.4348ZM-21.5997 15.4348L-5.7496 30.8696L-21.5997 15.4348ZM-5.7496 15.4348L10.1005 30.8696L-5.7496 15.4348ZM10.1005 15.4348L25.9506 30.8696L10.1005 15.4348ZM25.9506 15.4348L41.8007 30.8696L25.9506 15.4348ZM57.6507 15.4348L41.8007 30.8696L57.6507 15.4348ZM57.6507 15.4348L73.5005 30.8696L57.6507 15.4348ZM89.3505 15.4348L73.5005 30.8696L89.3505 15.4348ZM89.3505 15.4348L105.201 30.8696L89.3505 15.4348ZM105.201 15.4348L121.051 30.8696L105.201 15.4348ZM121.051 15.4348L136.901 30.8696L121.051 15.4348ZM136.901 15.4348L152.751 30.8696L136.901 15.4348ZM152.751 15.4348L168.601 30.8696L152.751 15.4348ZM168.601 15.4348L184.451 30.8696L168.601 15.4348ZM184.451 15.4348L200.301 30.8696L184.451 15.4348ZM216.151 15.4348L200.301 30.8696L216.151 15.4348ZM232.001 15.4348L216.151 30.8696L232.001 15.4348ZM232.001 15.4348L247.849 30.8696L232.001 15.4348ZM263.7 15.4348L247.849 30.8696L263.7 15.4348ZM263.7 15.4348L279.552 30.8696L263.7 15.4348ZM279.552 15.4348L295.399 30.8696L279.552 15.4348ZM295.399 15.4348L311.25 30.8696L295.399 15.4348ZM311.25 15.4348L327.102 30.8696L311.25 15.4348ZM327.102 15.4348L342.949 30.8696L327.102 15.4348ZM342.949 15.4348L358.8 30.8696L342.949 15.4348ZM358.8 15.4348L374.651 30.8696L358.8 15.4348ZM374.651 15.4348L390.502 30.8696L374.651 15.4348ZM390.502 15.4348L406.35 30.8696L390.502 15.4348ZM406.35 15.4348L422.201 30.8696L406.35 15.4348ZM438.052 15.4348L422.201 30.8696L438.052 15.4348ZM438.052 15.4348L453.9 30.8696L438.052 15.4348ZM453.9 15.4348L469.751 30.8696L453.9 15.4348ZM469.751 15.4348L485.602 30.8696L469.751 15.4348ZM485.602 15.4348L501.45 30.8696L485.602 15.4348ZM501.45 15.4348L517.301 30.8696L501.45 15.4348ZM517.301 15.4348L533.152 30.8696L517.301 15.4348ZM533.152 15.4348L549 30.8696L533.152 15.4348ZM-84.9997 30.8696L-69.1496 46.3044L-84.9997 30.8696ZM-69.1496 30.8696L-53.2995 46.3044L-69.1496 30.8696ZM-53.2995 30.8696L-37.4494 46.3044L-53.2995 30.8696ZM-37.4494 30.8696L-21.5997 46.3044L-37.4494 30.8696ZM-21.5997 30.8696L-5.7496 46.3044L-21.5997 30.8696ZM10.1005 30.8696L-5.7496 46.3044L10.1005 30.8696ZM25.9506 30.8696L10.1005 46.3044L25.9506 30.8696ZM25.9506 30.8696L41.8007 46.3044L25.9506 30.8696ZM41.8007 30.8696L57.6507 46.3044L41.8007 30.8696ZM73.5005 30.8696L57.6507 46.3044L73.5005 30.8696ZM73.5005 30.8696L89.3505 46.3044L73.5005 30.8696ZM89.3505 30.8696L105.201 46.3044L89.3505 30.8696ZM105.201 30.8696L121.051 46.3044L105.201 30.8696ZM121.051 30.8696L136.901 46.3044L121.051 30.8696ZM152.751 30.8696L136.901 46.3044L152.751 30.8696ZM168.601 30.8696L152.751 46.3044L168.601 30.8696ZM168.601 30.8696L184.451 46.3044L168.601 30.8696ZM184.451 30.8696L200.301 46.3044L184.451 30.8696ZM200.301 30.8696L216.151 46.3044L200.301 30.8696ZM232.001 30.8696L216.151 46.3044L232.001 30.8696ZM247.849 30.8696L232.001 46.3044L247.849 30.8696ZM247.849 30.8696L263.7 46.3044L247.849 30.8696ZM263.7 30.8696L279.552 46.3044L263.7 30.8696ZM279.552 30.8696L295.399 46.3044L279.552 30.8696ZM295.399 30.8696L311.25 46.3044L295.399 30.8696ZM327.102 30.8696L311.25 46.3044L327.102 30.8696ZM327.102 30.8696L342.949 46.3044L327.102 30.8696ZM342.949 30.8696L358.8 46.3044L342.949 30.8696ZM358.8 30.8696L374.651 46.3044L358.8 30.8696ZM374.651 30.8696L390.502 46.3044L374.651 30.8696ZM390.502 30.8696L406.35 46.3044L390.502 30.8696ZM406.35 30.8696L422.201 46.3044L406.35 30.8696ZM438.052 30.8696L422.201 46.3044L438.052 30.8696ZM453.9 30.8696L438.052 46.3044L453.9 30.8696ZM453.9 30.8696L469.751 46.3044L453.9 30.8696ZM469.751 30.8696L485.602 46.3044L469.751 30.8696ZM501.45 30.8696L485.602 46.3044L501.45 30.8696ZM501.45 30.8696L517.301 46.3044L501.45 30.8696ZM517.301 30.8696L533.152 46.3044L517.301 30.8696ZM533.152 30.8696L549 46.3044L533.152 30.8696ZM-84.9997 46.3044L-69.1496 61.7392L-84.9997 46.3044ZM-69.1496 46.3044L-53.2995 61.7392L-69.1496 46.3044ZM-37.4494 46.3044L-53.2995 61.7392L-37.4494 46.3044ZM-37.4494 46.3044L-21.5997 61.7392L-37.4494 46.3044ZM-21.5997 46.3044L-5.7496 61.7392L-21.5997 46.3044ZM10.1005 46.3044L-5.7496 61.7392L10.1005 46.3044ZM25.9506 46.3044L10.1005 61.7392L25.9506 46.3044ZM41.8007 46.3044L25.9506 61.7392L41.8007 46.3044ZM57.6507 46.3044L41.8007 61.7392L57.6507 46.3044ZM57.6507 46.3044L73.5005 61.7392L57.6507 46.3044ZM73.5005 46.3044L89.3505 61.7392L73.5005 46.3044ZM89.3505 46.3044L105.201 61.7392L89.3505 46.3044ZM105.201 46.3044L121.051 61.7392L105.201 46.3044ZM121.051 46.3044L136.901 61.7392L121.051 46.3044ZM136.901 46.3044L152.751 61.7392L136.901 46.3044ZM152.751 46.3044L168.601 61.7392L152.751 46.3044ZM168.601 46.3044L184.451 61.7392L168.601 46.3044ZM184.451 46.3044L200.301 61.7392L184.451 46.3044ZM216.151 46.3044L200.301 61.7392L216.151 46.3044ZM216.151 46.3044L232.001 61.7392L216.151 46.3044ZM247.849 46.3044L232.001 61.7392L247.849 46.3044ZM247.849 46.3044L263.7 61.7392L247.849 46.3044ZM263.7 46.3044L279.552 61.7392L263.7 46.3044ZM279.552 46.3044L295.399 61.7392L279.552 46.3044ZM311.25 46.3044L295.399 61.7392L311.25 46.3044ZM327.102 46.3044L311.25 61.7392L327.102 46.3044ZM327.102 46.3044L342.949 61.7392L327.102 46.3044ZM342.949 46.3044L358.8 61.7392L342.949 46.3044ZM374.651 46.3044L358.8 61.7392L374.651 46.3044ZM374.651 46.3044L390.502 61.7392L374.651 46.3044ZM390.502 46.3044L406.35 61.7392L390.502 46.3044ZM422.201 46.3044L406.35 61.7392L422.201 46.3044ZM438.052 46.3044L422.201 61.7392L438.052 46.3044ZM438.052 46.3044L453.9 61.7392L438.052 46.3044ZM453.9 46.3044L469.751 61.7392L453.9 46.3044ZM469.751 46.3044L485.602 61.7392L469.751 46.3044ZM485.602 46.3044L501.45 61.7392L485.602 46.3044ZM501.45 46.3044L517.301 61.7392L501.45 46.3044ZM517.301 46.3044L533.152 61.7392L517.301 46.3044ZM549 46.3044L533.152 61.7392L549 46.3044ZM-69.1496 61.7392L-84.9997 77.174L-69.1496 61.7392ZM-69.1496 61.7392L-53.2995 77.174L-69.1496 61.7392ZM-37.4494 61.7392L-53.2995 77.174L-37.4494 61.7392ZM-21.5997 61.7392L-37.4494 77.174L-21.5997 61.7392ZM-21.5997 61.7392L-5.7496 77.174L-21.5997 61.7392ZM-5.7496 61.7392L10.1005 77.174L-5.7496 61.7392ZM10.1005 61.7392L25.9506 77.174L10.1005 61.7392ZM25.9506 61.7392L41.8007 77.174L25.9506 61.7392ZM41.8007 61.7392L57.6507 77.174L41.8007 61.7392ZM57.6507 61.7392L73.5005 77.174L57.6507 61.7392ZM73.5005 61.7392L89.3505 77.174L73.5005 61.7392ZM89.3505 61.7392L105.201 77.174L89.3505 61.7392ZM105.201 61.7392L121.051 77.174L105.201 61.7392ZM136.901 61.7392L121.051 77.174L136.901 61.7392ZM136.901 61.7392L152.751 77.174L136.901 61.7392ZM168.601 61.7392L152.751 77.174L168.601 61.7392ZM168.601 61.7392L184.451 77.174L168.601 61.7392ZM184.451 61.7392L200.301 77.174L184.451 61.7392ZM200.301 61.7392L216.151 77.174L200.301 61.7392ZM232.001 61.7392L216.151 77.174L232.001 61.7392ZM232.001 61.7392L247.849 77.174L232.001 61.7392ZM247.849 61.7392L263.7 77.174L247.849 61.7392ZM263.7 61.7392L279.552 77.174L263.7 61.7392ZM279.552 61.7392L295.399 77.174L279.552 61.7392ZM295.399 61.7392L311.25 77.174L295.399 61.7392ZM327.102 61.7392L311.25 77.174L327.102 61.7392ZM342.949 61.7392L327.102 77.174L342.949 61.7392ZM342.949 61.7392L358.8 77.174L342.949 61.7392ZM358.8 61.7392L374.651 77.174L358.8 61.7392ZM374.651 61.7392L390.502 77.174L374.651 61.7392ZM390.502 61.7392L406.35 77.174L390.502 61.7392ZM406.35 61.7392L422.201 77.174L406.35 61.7392ZM422.201 61.7392L438.052 77.174L422.201 61.7392ZM438.052 61.7392L453.9 77.174L438.052 61.7392ZM453.9 61.7392L469.751 77.174L453.9 61.7392ZM469.751 61.7392L485.602 77.174L469.751 61.7392ZM501.45 61.7392L485.602 77.174L501.45 61.7392ZM501.45 61.7392L517.301 77.174L501.45 61.7392ZM517.301 61.7392L533.152 77.174L517.301 61.7392ZM533.152 61.7392L549 77.174L533.152 61.7392ZM-84.9997 77.174L-69.1496 92.6085L-84.9997 77.174ZM-69.1496 77.174L-53.2995 92.6085L-69.1496 77.174ZM-37.4494 77.174L-21.5997 92.6085L-37.4494 77.174ZM-5.7496 77.174L-21.5997 92.6085L-5.7496 77.174ZM-5.7496 77.174L10.1005 92.6085L-5.7496 77.174ZM10.1005 77.174L25.9506 92.6085L10.1005 77.174ZM25.9506 77.174L41.8007 92.6085L25.9506 77.174ZM57.6507 77.174L41.8007 92.6085L57.6507 77.174ZM57.6507 77.174L73.5005 92.6085L57.6507 77.174ZM89.3505 77.174L73.5005 92.6085L89.3505 77.174ZM89.3505 77.174L105.201 92.6085L89.3505 77.174ZM105.201 77.174L121.051 92.6085L105.201 77.174ZM121.051 77.174L136.901 92.6085L121.051 77.174ZM136.901 77.174L152.751 92.6085L136.901 77.174ZM152.751 77.174L168.601 92.6085L152.751 77.174ZM184.451 77.174L168.601 92.6085L184.451 77.174ZM184.451 77.174L200.301 92.6085L184.451 77.174ZM200.301 77.174L216.151 92.6085L200.301 77.174ZM216.151 77.174L232.001 92.6085L216.151 77.174ZM232.001 77.174L247.849 92.6085L232.001 77.174ZM247.849 77.174L263.7 92.6085L247.849 77.174ZM263.7 77.174L279.552 92.6085L263.7 77.174ZM295.399 77.174L311.25 92.6085L295.399 77.174ZM311.25 77.174L327.102 92.6085L311.25 77.174ZM327.102 77.174L342.949 92.6085L327.102 77.174ZM358.8 77.174L342.949 92.6085L358.8 77.174ZM358.8 77.174L374.651 92.6085L358.8 77.174ZM390.502 77.174L374.651 92.6085L390.502 77.174ZM390.502 77.174L406.35 92.6085L390.502 77.174ZM406.35 77.174L422.201 92.6085L406.35 77.174ZM422.201 77.174L438.052 92.6085L422.201 77.174ZM453.9 77.174L438.052 92.6085L453.9 77.174ZM453.9 77.174L469.751 92.6085L453.9 77.174ZM485.602 77.174L469.751 92.6085L485.602 77.174ZM485.602 77.174L501.45 92.6085L485.602 77.174ZM501.45 77.174L517.301 92.6085L501.45 77.174ZM517.301 77.174L533.152 92.6085L517.301 77.174ZM533.152 77.174L549 92.6085L533.152 77.174ZM-84.9997 92.6085L-69.1496 108.043L-84.9997 92.6085ZM-69.1496 92.6085L-53.2995 108.043L-69.1496 92.6085ZM-21.5997 92.6085L-5.7496 108.043L-21.5997 92.6085ZM-5.7496 92.6085L10.1005 108.043L-5.7496 92.6085ZM10.1005 92.6085L25.9506 108.043L10.1005 92.6085ZM25.9506 92.6085L41.8007 108.043L25.9506 92.6085ZM41.8007 92.6085L57.6507 108.043L41.8007 92.6085ZM73.5005 92.6085L57.6507 108.043L73.5005 92.6085ZM73.5005 92.6085L89.3505 108.043L73.5005 92.6085ZM89.3505 92.6085L105.201 108.043L89.3505 92.6085ZM121.051 92.6085L105.201 108.043L121.051 92.6085ZM136.901 92.6085L121.051 108.043L136.901 92.6085ZM136.901 92.6085L152.751 108.043L136.901 92.6085ZM168.601 92.6085L152.751 108.043L168.601 92.6085ZM200.301 92.6085L216.151 108.043L200.301 92.6085ZM216.151 92.6085L232 108.043L216.151 92.6085ZM232.001 92.6085L247.849 108.043L232.001 92.6085ZM247.849 92.6085L263.7 108.043L247.849 92.6085ZM263.7 92.6085L279.551 108.043L263.7 92.6085ZM311.25 92.6085L327.101 108.043L311.25 92.6085ZM342.949 92.6085L327.101 108.043L342.949 92.6085ZM358.8 92.6085L342.949 108.043L358.8 92.6085ZM358.8 92.6085L374.651 108.043L358.8 92.6085ZM374.651 92.6085L390.502 108.043L374.651 92.6085ZM390.502 92.6085L406.35 108.043L390.502 92.6085ZM406.35 92.6085L422.201 108.043L406.35 92.6085ZM422.201 92.6085L438.052 108.043L422.201 92.6085ZM438.052 92.6085L453.9 108.043L438.052 92.6085ZM453.9 92.6085L469.751 108.043L453.9 92.6085ZM469.751 92.6085L485.602 108.043L469.751 92.6085ZM485.602 92.6085L501.45 108.043L485.602 92.6085ZM501.45 92.6085L517.301 108.043L501.45 92.6085ZM517.301 92.6085L533.152 108.043L517.301 92.6085ZM533.152 92.6085L549 108.043L533.152 92.6085ZM-85 108.043L-69.1499 123.478L-85 108.043ZM-69.1496 108.043L-53.2998 123.478L-69.1496 108.043ZM-53.2995 108.043L-37.4498 123.478L-53.2995 108.043ZM-21.6 108.043L-37.4498 123.478L-21.6 108.043ZM-21.6 108.043L-5.74992 123.478L-21.6 108.043ZM-5.7496 108.043L10.1002 123.478L-5.7496 108.043ZM25.9502 108.043L10.1002 123.478L25.9502 108.043ZM25.9502 108.043L41.8003 123.478L25.9502 108.043ZM41.8003 108.043L57.6504 123.478L41.8003 108.043ZM57.6504 108.043L73.5002 123.478L57.6504 108.043ZM73.5002 108.043L89.3502 123.478L73.5002 108.043ZM89.3505 108.043L105.2 123.478L89.3505 108.043ZM105.201 108.043L121.05 123.478L105.201 108.043ZM121.051 108.043L136.9 123.478L121.051 108.043ZM216.151 108.043L232 123.478L216.151 108.043ZM232 108.043L247.849 123.478L232 108.043ZM247.849 108.043L263.7 123.478L247.849 108.043ZM263.7 108.043L279.551 123.478L263.7 108.043ZM279.551 108.043L295.399 123.478L279.551 108.043ZM311.25 108.043L295.399 123.478L311.25 108.043ZM311.25 108.043L327.101 123.478L311.25 108.043ZM327.101 108.043L342.949 123.478L327.101 108.043ZM342.949 108.043L358.8 123.478L342.949 108.043ZM406.35 108.043L390.502 123.478L406.35 108.043ZM406.35 108.043L422.201 123.478L406.35 108.043ZM438.052 108.043L422.201 123.478L438.052 108.043ZM438.052 108.043L453.9 123.478L438.052 108.043ZM453.9 108.043L469.751 123.478L453.9 108.043ZM469.751 108.043L485.602 123.478L469.751 108.043ZM485.602 108.043L501.45 123.478L485.602 108.043ZM501.45 108.043L517.301 123.478L501.45 108.043ZM533.152 108.043L517.301 123.478L533.152 108.043ZM533.152 108.043L549 123.478L533.152 108.043ZM-85 123.478L-69.1499 138.913L-85 123.478ZM-69.1499 123.478L-53.2998 138.913L-69.1499 123.478ZM-37.4498 123.478L-53.2998 138.913L-37.4498 123.478ZM-37.4494 123.478L-21.5997 138.913L-37.4494 123.478ZM-21.5997 123.478L-5.7496 138.913L-21.5997 123.478ZM10.1002 123.478L-5.7496 138.913L10.1002 123.478ZM10.1002 123.478L25.9506 138.913L10.1002 123.478ZM25.9506 123.478L41.8007 138.913L25.9506 123.478ZM57.6507 123.478L41.8007 138.913L57.6507 123.478ZM57.6507 123.478L73.5005 138.913L57.6507 123.478ZM73.5002 123.478L89.3505 138.913L73.5002 123.478ZM89.3502 123.478L105.201 138.913L89.3502 123.478ZM105.2 123.478L121.051 138.913L105.2 123.478ZM121.05 123.478L136.901 138.913L121.05 123.478ZM136.9 123.478L152.751 138.913L136.9 123.478ZM232 123.478L247.849 138.913L232 123.478ZM263.7 123.478L247.849 138.913L263.7 123.478ZM263.7 123.478L279.552 138.913L263.7 123.478ZM279.551 123.478L295.399 138.913L279.551 123.478ZM295.399 123.478L311.25 138.913L295.399 123.478ZM327.101 123.478L311.25 138.913L327.101 123.478ZM327.101 123.478L342.949 138.913L327.101 123.478ZM342.949 123.478L358.8 138.913L342.949 123.478ZM358.8 123.478L374.651 138.913L358.8 123.478ZM390.502 123.478L374.651 138.913L390.502 123.478ZM390.502 123.478L406.35 138.913L390.502 123.478ZM406.35 123.478L422.201 138.913L406.35 123.478ZM422.201 123.478L438.052 138.913L422.201 123.478ZM438.052 123.478L453.9 138.913L438.052 123.478ZM453.9 123.478L469.751 138.913L453.9 123.478ZM469.751 123.478L485.602 138.913L469.751 123.478ZM485.602 123.478L501.45 138.913L485.602 123.478ZM517.301 123.478L501.45 138.913L517.301 123.478ZM533.152 123.478L517.301 138.913L533.152 123.478ZM549 123.478L533.152 138.913L549 123.478ZM-84.9997 138.913L-69.1496 154.348L-84.9997 138.913ZM-53.2998 138.913L-69.1496 154.348L-53.2998 138.913ZM-53.2998 138.913L-37.4494 154.348L-53.2998 138.913ZM-37.4494 138.913L-21.5997 154.348L-37.4494 138.913ZM-21.5997 138.913L-5.7496 154.348L-21.5997 138.913ZM-5.7496 138.913L10.1005 154.348L-5.7496 138.913ZM10.1005 138.913L25.9506 154.348L10.1005 138.913ZM25.9506 138.913L41.8007 154.348L25.9506 138.913ZM57.6507 138.913L41.8007 154.348L57.6507 138.913ZM73.5005 138.913L57.6507 154.348L73.5005 138.913ZM89.3505 138.913L73.5005 154.348L89.3505 138.913ZM89.3505 138.913L105.201 154.348L89.3505 138.913ZM105.201 138.913L121.051 154.348L105.201 138.913ZM121.051 138.913L136.901 154.348L121.051 138.913ZM136.901 138.913L152.751 154.348L136.901 138.913ZM152.751 138.913L168.601 154.348L152.751 138.913ZM232.001 138.913L247.849 154.348L232.001 138.913ZM247.849 138.913L263.7 154.348L247.849 138.913ZM263.7 138.913L279.552 154.348L263.7 138.913ZM295.399 138.913L279.552 154.348L295.399 138.913ZM295.399 138.913L311.25 154.348L295.399 138.913ZM311.25 138.913L327.102 154.348L311.25 138.913ZM327.102 138.913L342.949 154.348L327.102 138.913ZM342.949 138.913L358.8 154.348L342.949 138.913ZM358.8 138.913L374.651 154.348L358.8 138.913ZM374.651 138.913L390.502 154.348L374.651 138.913ZM390.502 138.913L406.35 154.348L390.502 138.913ZM406.35 138.913L422.201 154.348L406.35 138.913ZM438.052 138.913L422.201 154.348L438.052 138.913ZM438.052 138.913L453.9 154.348L438.052 138.913ZM453.9 138.913L469.751 154.348L453.9 138.913ZM469.751 138.913L485.602 154.348L469.751 138.913ZM485.602 138.913L501.45 154.348L485.602 138.913ZM501.45 138.913L517.301 154.348L501.45 138.913ZM517.301 138.913L533.152 154.348L517.301 138.913ZM549 138.913L533.152 154.348L549 138.913ZM-84.9997 154.348L-69.1496 169.782L-84.9997 154.348ZM-69.1496 154.348L-53.2995 169.782L-69.1496 154.348ZM-53.2995 154.348L-37.4494 169.782L-53.2995 154.348ZM-37.4494 154.348L-21.5997 169.782L-37.4494 154.348ZM-21.5997 154.348L-5.7496 169.782L-21.5997 154.348ZM-5.7496 154.348L10.1005 169.782L-5.7496 154.348ZM10.1005 154.348L25.9506 169.782L10.1005 154.348ZM41.8007 154.348L25.9506 169.782L41.8007 154.348ZM57.6507 154.348L41.8007 169.782L57.6507 154.348ZM57.6507 154.348L73.5005 169.782L57.6507 154.348ZM73.5005 154.348L89.3505 169.782L73.5005 154.348ZM89.3505 154.348L105.201 169.782L89.3505 154.348ZM105.201 154.348L121.051 169.782L105.201 154.348ZM136.901 154.348L121.051 169.782L136.901 154.348ZM136.901 154.348L152.751 169.782L136.901 154.348ZM152.751 154.348L168.601 169.782L152.751 154.348ZM168.601 154.348L184.451 169.782L168.601 154.348ZM200.301 154.348L184.451 169.782L200.301 154.348ZM200.301 154.348L216.151 169.782L200.301 154.348ZM232.001 154.348L247.849 169.782L232.001 154.348ZM247.849 154.348L263.7 169.782L247.849 154.348ZM263.7 154.348L279.552 169.782L263.7 154.348ZM279.552 154.348L295.399 169.782L279.552 154.348ZM295.399 154.348L311.25 169.782L295.399 154.348ZM311.25 154.348L327.102 169.782L311.25 154.348ZM327.102 154.348L342.949 169.782L327.102 154.348ZM342.949 154.348L358.8 169.782L342.949 154.348ZM358.8 154.348L374.651 169.782L358.8 154.348ZM390.502 154.348L374.651 169.782L390.502 154.348ZM406.35 154.348L390.502 169.782L406.35 154.348ZM406.35 154.348L422.201 169.782L406.35 154.348ZM422.201 154.348L438.052 169.782L422.201 154.348ZM438.052 154.348L453.9 169.782L438.052 154.348ZM469.751 154.348L453.9 169.782L469.751 154.348ZM469.751 154.348L485.602 169.782L469.751 154.348ZM485.602 154.348L501.45 169.782L485.602 154.348ZM501.45 154.348L517.301 169.782L501.45 154.348ZM517.301 154.348L533.152 169.782L517.301 154.348ZM533.152 154.348L549 169.782L533.152 154.348ZM-84.9997 169.782L-69.1496 185.217L-84.9997 169.782ZM-69.1496 169.782L-53.2995 185.217L-69.1496 169.782ZM-53.2995 169.782L-37.4494 185.217L-53.2995 169.782ZM-37.4494 169.782L-21.5997 185.217L-37.4494 169.782ZM-21.5997 169.782L-5.7496 185.217L-21.5997 169.782ZM-5.7496 169.782L10.1005 185.217L-5.7496 169.782ZM25.9506 169.782L10.1005 185.217L25.9506 169.782ZM25.9506 169.782L41.8007 185.217L25.9506 169.782ZM57.6507 169.782L41.8007 185.217L57.6507 169.782ZM57.6507 169.782L73.5005 185.217L57.6507 169.782ZM73.5005 169.782L89.3505 185.217L73.5005 169.782ZM89.3505 169.782L105.201 185.217L89.3505 169.782ZM121.051 169.782L105.201 185.217L121.051 169.782ZM136.901 169.782L121.051 185.217L136.901 169.782ZM136.901 169.782L152.751 185.217L136.901 169.782ZM152.751 169.782L168.601 185.217L152.751 169.782ZM168.601 169.782L184.451 185.217L168.601 169.782ZM184.451 169.782L200.301 185.217L184.451 169.782ZM200.301 169.782L216.151 185.217L200.301 169.782ZM216.151 169.782L232.001 185.217L216.151 169.782ZM232.001 169.782L247.849 185.217L232.001 169.782ZM247.849 169.782L263.7 185.217L247.849 169.782ZM263.7 169.782L279.552 185.217L263.7 169.782ZM279.552 169.782L295.399 185.217L279.552 169.782ZM295.399 169.782L311.25 185.217L295.399 169.782ZM311.25 169.782L327.102 185.217L311.25 169.782ZM327.102 169.782L342.949 185.217L327.102 169.782ZM342.949 169.782L351.719 178.221L342.949 169.782ZM390.502 169.782L406.35 185.217L390.502 169.782ZM406.35 169.782L422.201 185.217L406.35 169.782ZM422.201 169.782L438.052 185.217L422.201 169.782ZM438.052 169.782L453.9 185.217L438.052 169.782ZM453.9 169.782L469.751 185.217L453.9 169.782ZM485.602 169.782L469.751 185.217L485.602 169.782ZM501.45 169.782L485.602 185.217L501.45 169.782ZM501.45 169.782L517.301 185.217L501.45 169.782ZM533.152 169.782L517.301 185.217L533.152 169.782ZM533.152 169.782L549 185.217L533.152 169.782ZM-84.9997 185.217L-69.1496 200.652L-84.9997 185.217ZM-69.1496 185.217L-53.2995 200.652L-69.1496 185.217ZM-53.2995 185.217L-37.4494 200.652L-53.2995 185.217ZM-21.5997 185.217L-5.7496 200.652L-21.5997 185.217ZM-5.7496 185.217L10.1005 200.652L-5.7496 185.217ZM10.1005 185.217L25.9506 200.652L10.1005 185.217ZM25.9506 185.217L41.8007 200.652L25.9506 185.217ZM89.3505 185.217L105.201 200.652L89.3505 185.217ZM105.201 185.217L121.051 200.652L105.201 185.217ZM121.051 185.217L136.901 200.652L121.051 185.217ZM136.901 185.217L152.751 200.652L136.901 185.217ZM152.751 185.217L168.601 200.652L152.751 185.217ZM168.601 185.217L184.451 200.652L168.601 185.217ZM184.451 185.217L200.301 200.652L184.451 185.217ZM200.301 185.217L216.151 200.652L200.301 185.217ZM216.151 185.217L232.001 200.652L216.151 185.217ZM247.849 185.217L232.001 200.652L247.849 185.217ZM247.849 185.217L263.7 200.652L247.849 185.217ZM263.7 185.217L279.552 200.652L263.7 185.217ZM279.552 185.217L295.399 200.652L279.552 185.217ZM295.399 185.217L311.25 200.652L295.399 185.217ZM311.25 185.217L327.102 200.652L311.25 185.217ZM327.102 185.217L342.949 200.652L327.102 185.217ZM390.502 185.217L406.35 200.652L390.502 185.217ZM422.201 185.217L406.35 200.652L422.201 185.217ZM422.201 185.217L438.052 200.652L422.201 185.217ZM438.052 185.217L453.9 200.652L438.052 185.217ZM469.751 185.217L453.9 200.652L469.751 185.217ZM485.602 185.217L469.751 200.652L485.602 185.217ZM501.45 185.217L485.602 200.652L501.45 185.217ZM501.45 185.217L517.301 200.652L501.45 185.217ZM517.301 185.217L533.152 200.652L517.301 185.217ZM549 185.217L533.152 200.652L549 185.217ZM-84.9997 200.652L-69.1496 216.087L-84.9997 200.652ZM-69.1496 200.652L-53.2995 216.087L-69.1496 200.652ZM-53.2995 200.652L-37.4494 216.087L-53.2995 200.652ZM-37.4494 200.652L-21.5997 216.087L-37.4494 200.652ZM-5.7496 200.652L10.1005 216.087L-5.7496 200.652ZM10.1005 200.652L25.9506 216.087L10.1005 200.652ZM25.9506 200.652L41.8007 216.087L25.9506 200.652ZM41.8007 200.652L57.6507 216.087L41.8007 200.652ZM89.3505 200.652L73.5005 216.087L89.3505 200.652ZM89.3505 200.652L105.201 216.087L89.3505 200.652ZM121.051 200.652L105.201 216.087L121.051 200.652ZM121.051 200.652L136.901 216.087L121.051 200.652ZM152.751 200.652L136.901 216.087L152.751 200.652ZM152.751 200.652L168.601 216.087L152.751 200.652ZM168.601 200.652L184.451 216.087L168.601 200.652ZM200.301 200.652L184.451 216.087L200.301 200.652ZM200.301 200.652L216.151 216.087L200.301 200.652ZM232.001 200.652L216.151 216.087L232.001 200.652ZM232.001 200.652L247.849 216.087L232.001 200.652ZM263.7 200.652L247.849 216.087L263.7 200.652ZM263.7 200.652L279.552 216.087L263.7 200.652ZM279.552 200.652L295.399 216.087L279.552 200.652ZM311.25 200.652L295.399 216.087L311.25 200.652ZM311.25 200.652L327.102 216.087L311.25 200.652ZM342.949 200.652L327.102 216.087L342.949 200.652ZM406.35 200.652L422.201 216.087L406.35 200.652ZM422.201 200.652L438.052 216.087L422.201 200.652ZM438.052 200.652L453.9 216.087L438.052 200.652ZM453.9 200.652L469.751 216.087L453.9 200.652ZM469.751 200.652L485.602 216.087L469.751 200.652ZM485.602 200.652L501.45 216.087L485.602 200.652ZM501.45 200.652L517.301 216.087L501.45 200.652ZM-84.9997 216.087L-69.1496 231.521L-84.9997 216.087ZM-69.1496 216.087L-53.2995 231.521L-69.1496 216.087ZM-53.2995 216.087L-37.4494 231.521L-53.2995 216.087ZM-37.4494 216.087L-21.5997 231.521L-37.4494 216.087ZM-21.5997 216.087L-5.7496 231.521L-21.5997 216.087ZM-5.7496 216.087L10.1005 231.521L-5.7496 216.087ZM10.1005 216.087L25.9506 231.521L10.1005 216.087ZM25.9506 216.087L41.8007 231.521L25.9506 216.087ZM41.8007 216.087L57.6507 231.521L41.8007 216.087ZM73.5005 216.087L57.6507 231.521L73.5005 216.087ZM89.3505 216.087L73.5005 231.521L89.3505 216.087ZM89.3505 216.087L105.201 231.521L89.3505 216.087ZM105.201 216.087L121.051 231.521L105.201 216.087ZM121.051 216.087L136.901 231.521L121.051 216.087ZM136.901 216.087L152.751 231.521L136.901 216.087ZM152.751 216.087L168.601 231.521L152.751 216.087ZM168.601 216.087L184.451 231.521L168.601 216.087ZM216.151 216.087L232.001 231.521L216.151 216.087ZM232.001 216.087L247.849 231.521L232.001 216.087ZM247.849 216.087L263.7 231.521L247.849 216.087ZM263.7 216.087L279.552 231.521L263.7 216.087ZM295.399 216.087L279.552 231.521L295.399 216.087ZM295.399 216.087L311.25 231.521L295.399 216.087ZM327.102 216.087L311.25 231.521L327.102 216.087ZM327.102 216.087L342.949 231.521L327.102 216.087ZM422.201 216.087L406.35 231.521L422.201 216.087ZM422.201 216.087L438.052 231.521L422.201 216.087ZM438.052 216.087L453.9 231.521L438.052 216.087ZM453.9 216.087L469.751 231.521L453.9 216.087ZM485.602 216.087L469.751 231.521L485.602 216.087ZM485.602 216.087L501.45 231.521L485.602 216.087ZM501.45 216.087L517.301 231.521L501.45 216.087ZM-69.1496 231.521L-84.9997 246.956L-69.1496 231.521ZM-53.2995 231.521L-69.1496 246.956L-53.2995 231.521ZM-53.2995 231.521L-37.4494 246.956L-53.2995 231.521ZM-37.4494 231.521L-21.5997 246.956L-37.4494 231.521ZM-21.5997 231.521L-5.7496 246.956L-21.5997 231.521ZM-5.7496 231.521L10.1005 246.956L-5.7496 231.521ZM10.1005 231.521L25.9506 246.956L10.1005 231.521ZM41.8007 231.521L25.9506 246.956L41.8007 231.521ZM41.8007 231.521L57.6507 246.956L41.8007 231.521ZM73.5005 231.521L57.6507 246.956L73.5005 231.521ZM73.5005 231.521L89.3505 246.956L73.5005 231.521ZM89.3505 231.521L105.201 246.956L89.3505 231.521ZM105.201 231.521L121.051 246.956L105.201 231.521ZM136.901 231.521L121.051 246.956L136.901 231.521ZM136.901 231.521L152.751 246.956L136.901 231.521ZM152.751 231.521L168.601 246.956L152.751 231.521ZM168.601 231.521L184.451 246.956L168.601 231.521ZM247.849 231.521L232.001 246.956L247.849 231.521ZM247.849 231.521L263.7 246.956L247.849 231.521ZM263.7 231.521L279.552 246.956L263.7 231.521ZM279.552 231.521L295.399 246.956L279.552 231.521ZM295.399 231.521L311.25 246.956L295.399 231.521ZM311.25 231.521L327.102 246.956L311.25 231.521ZM342.949 231.521L327.102 246.956L342.949 231.521ZM342.949 231.521L358.8 246.956L342.949 231.521ZM366.465 239.173L374.651 246.956L366.465 239.173ZM374.651 231.521L390.502 246.956L374.651 231.521ZM406.35 231.521L390.502 246.956L406.35 231.521ZM406.35 231.521L422.201 246.956L406.35 231.521ZM422.201 231.521L438.052 246.956L422.201 231.521ZM453.9 231.521L438.052 246.956L453.9 231.521ZM453.9 231.521L469.751 246.956L453.9 231.521ZM485.602 231.521L469.751 246.956L485.602 231.521ZM485.602 231.521L501.45 246.956L485.602 231.521ZM501.45 231.521L517.301 246.956L501.45 231.521ZM517.301 231.521L533.152 246.956L517.301 231.521ZM533.152 231.521L549 246.956L533.152 231.521ZM-84.9997 246.956L-69.1496 262.391L-84.9997 246.956ZM-69.1496 246.956L-53.2995 262.391L-69.1496 246.956ZM-53.2995 246.956L-37.4494 262.391L-53.2995 246.956ZM-37.4494 246.956L-21.5997 262.391L-37.4494 246.956ZM-5.7496 246.956L-21.5997 262.391L-5.7496 246.956ZM10.1005 246.956L-5.7496 262.391L10.1005 246.956ZM10.1005 246.956L25.9506 262.391L10.1005 246.956ZM41.8007 246.956L25.9506 262.391L41.8007 246.956ZM41.8007 246.956L57.6507 262.391L41.8007 246.956ZM57.6507 246.956L73.5005 262.391L57.6507 246.956ZM73.5005 246.956L89.3505 262.391L73.5005 246.956ZM89.3505 246.956L105.201 262.391L89.3505 246.956ZM105.201 246.956L121.051 262.391L105.201 246.956ZM121.051 246.956L136.901 262.391L121.051 246.956ZM136.901 246.956L152.751 262.391L136.901 246.956ZM168.601 246.956L152.751 262.391L168.601 246.956ZM168.601 246.956L184.451 262.391L168.601 246.956ZM184.451 246.956L200.301 262.391L184.451 246.956ZM200.301 246.956L216.151 262.391L200.301 246.956ZM216.151 246.956L232.001 262.391L216.151 246.956ZM232.001 246.956L247.849 262.391L232.001 246.956ZM247.849 246.956L263.7 262.391L247.849 246.956ZM263.7 246.956L279.552 262.391L263.7 246.956ZM279.552 246.956L295.399 262.391L279.552 246.956ZM295.399 246.956L311.25 262.391L295.399 246.956ZM311.25 246.956L327.102 262.391L311.25 246.956ZM327.102 246.956L342.949 262.391L327.102 246.956ZM342.949 246.956L358.8 262.391L342.949 246.956ZM358.8 246.956L374.651 262.391L358.8 246.956ZM374.651 246.956L390.502 262.391L374.651 246.956ZM390.502 246.956L406.35 262.391L390.502 246.956ZM422.201 246.956L406.35 262.391L422.201 246.956ZM422.201 246.956L438.052 262.391L422.201 246.956ZM438.052 246.956L453.9 262.391L438.052 246.956ZM453.9 246.956L469.751 262.391L453.9 246.956ZM469.751 246.956L485.602 262.391L469.751 246.956ZM485.602 246.956L501.45 262.391L485.602 246.956ZM501.45 246.956L517.301 262.391L501.45 246.956ZM533.152 246.956L517.301 262.391L533.152 246.956ZM533.152 246.956L549 262.391L533.152 246.956ZM-84.9997 262.391L-69.1496 277.825L-84.9997 262.391ZM-69.1496 262.391L-53.2995 277.825L-69.1496 262.391ZM-37.4494 262.391L-53.2995 277.825L-37.4494 262.391ZM-37.4494 262.391L-21.5997 277.825L-37.4494 262.391ZM-21.5997 262.391L-5.7496 277.825L-21.5997 262.391ZM10.1005 262.391L-5.7496 277.825L10.1005 262.391ZM10.1005 262.391L25.9506 277.825L10.1005 262.391ZM25.9506 262.391L41.8007 277.825L25.9506 262.391ZM41.8007 262.391L57.6507 277.825L41.8007 262.391ZM57.6507 262.391L73.5005 277.825L57.6507 262.391ZM73.5005 262.391L89.3505 277.825L73.5005 262.391ZM89.3505 262.391L105.201 277.825L89.3505 262.391ZM105.201 262.391L121.051 277.825L105.201 262.391ZM121.051 262.391L136.901 277.825L121.051 262.391ZM136.901 262.391L152.751 277.825L136.901 262.391ZM152.751 262.391L168.601 277.825L152.751 262.391ZM184.451 262.391L168.601 277.825L184.451 262.391ZM200.301 262.391L184.451 277.825L200.301 262.391ZM200.301 262.391L216.151 277.825L200.301 262.391ZM232.001 262.391L216.151 277.825L232.001 262.391ZM232.001 262.391L247.849 277.825L232.001 262.391ZM247.849 262.391L263.7 277.825L247.849 262.391ZM263.7 262.391L279.552 277.825L263.7 262.391ZM295.399 262.391L279.552 277.825L295.399 262.391ZM311.25 262.391L295.399 277.825L311.25 262.391ZM327.102 262.391L311.25 277.825L327.102 262.391ZM327.102 262.391L342.949 277.825L327.102 262.391ZM342.949 262.391L358.8 277.825L342.949 262.391ZM358.8 262.391L374.651 277.825L358.8 262.391ZM374.651 262.391L390.502 277.825L374.651 262.391ZM390.502 262.391L406.35 277.825L390.502 262.391ZM406.35 262.391L422.201 277.825L406.35 262.391ZM422.201 262.391L438.052 277.825L422.201 262.391ZM438.052 262.391L453.9 277.825L438.052 262.391ZM453.9 262.391L469.751 277.825L453.9 262.391ZM469.751 262.391L485.602 277.825L469.751 262.391ZM485.602 262.391L501.45 277.825L485.602 262.391ZM501.45 262.391L517.301 277.825L501.45 262.391ZM517.301 262.391L533.152 277.825L517.301 262.391ZM533.152 262.391L549 277.825L533.152 262.391ZM-69.1489 277.825L-84.9997 293.26L-69.1489 277.825ZM-69.1496 277.825L-53.2995 293.26L-69.1496 277.825ZM-53.2995 277.825L-37.4494 293.26L-53.2995 277.825ZM-21.5997 277.825L-37.4494 293.26L-21.5997 277.825ZM-21.5997 277.825L-5.7496 293.26L-21.5997 277.825ZM10.1005 277.825L-5.7496 293.26L10.1005 277.825ZM10.1005 277.825L25.9506 293.26L10.1005 277.825ZM25.9506 277.825L41.8007 293.26L25.9506 277.825ZM57.6507 277.825L41.8007 293.26L57.6507 277.825ZM57.6507 277.825L73.5005 293.26L57.6507 277.825ZM89.3505 277.825L73.5005 293.26L89.3505 277.825ZM89.3505 277.825L105.201 293.26L89.3505 277.825ZM105.201 277.825L121.051 293.26L105.201 277.825ZM136.901 277.825L121.051 293.26L136.901 277.825ZM136.901 277.825L152.751 293.26L136.901 277.825ZM152.751 277.825L168.601 293.26L152.751 277.825ZM168.601 277.825L184.451 293.26L168.601 277.825ZM184.451 277.825L200.301 293.26L184.451 277.825ZM200.301 277.825L216.151 293.26L200.301 277.825ZM216.151 277.825L232.001 293.26L216.151 277.825ZM247.849 277.825L232.001 293.26L247.849 277.825ZM247.849 277.825L263.7 293.26L247.849 277.825ZM263.7 277.825L279.552 293.26L263.7 277.825ZM279.552 277.825L295.399 293.26L279.552 277.825ZM295.399 277.825L311.25 293.26L295.399 277.825ZM311.25 277.825L327.102 293.26L311.25 277.825ZM327.102 277.825L342.949 293.26L327.102 277.825ZM342.949 277.825L358.8 293.26L342.949 277.825ZM358.8 277.825L374.651 293.26L358.8 277.825ZM374.651 277.825L390.502 293.26L374.651 277.825ZM390.502 277.825L406.35 293.26L390.502 277.825ZM406.35 277.825L422.201 293.26L406.35 277.825ZM422.201 277.825L438.052 293.26L422.201 277.825ZM453.9 277.825L438.052 293.26L453.9 277.825ZM453.9 277.825L469.751 293.26L453.9 277.825ZM469.751 277.825L485.602 293.26L469.751 277.825ZM485.602 277.825L501.45 293.26L485.602 277.825ZM501.45 277.825L517.301 293.26L501.45 277.825ZM533.152 277.825L517.301 293.26L533.152 277.825ZM533.152 277.825L549 293.26L533.152 277.825ZM-84.9997 293.26L-69.1496 308.695L-84.9997 293.26ZM-69.1496 293.26L-53.2995 308.695L-69.1496 293.26ZM-37.4494 293.26L-53.2995 308.695L-37.4494 293.26ZM-37.4494 293.26L-21.5997 308.695L-37.4494 293.26ZM-21.5997 293.26L-5.7496 308.695L-21.5997 293.26ZM-5.7496 293.26L10.1005 308.695L-5.7496 293.26ZM10.1005 293.26L25.9506 308.695L10.1005 293.26ZM25.9506 293.26L41.8007 308.695L25.9506 293.26ZM41.8007 293.26L57.6507 308.695L41.8007 293.26ZM57.6507 293.26L73.5005 308.695L57.6507 293.26ZM73.5005 293.26L89.3505 308.695L73.5005 293.26ZM89.3505 293.26L105.201 308.695L89.3505 293.26ZM105.201 293.26L121.051 308.695L105.201 293.26ZM121.051 293.26L136.901 308.695L121.051 293.26ZM136.901 293.26L152.751 308.695L136.901 293.26ZM152.751 293.26L168.601 308.695L152.751 293.26ZM168.601 293.26L184.451 308.695L168.601 293.26ZM184.451 293.26L200.301 308.695L184.451 293.26ZM200.301 293.26L216.151 308.695L200.301 293.26ZM216.151 293.26L232.001 308.695L216.151 293.26ZM232.001 293.26L247.849 308.695L232.001 293.26ZM263.7 293.26L247.849 308.695L263.7 293.26ZM263.7 293.26L279.552 308.695L263.7 293.26ZM279.552 293.26L295.399 308.695L279.552 293.26ZM295.399 293.26L311.25 308.695L295.399 293.26ZM311.25 293.26L327.102 308.695L311.25 293.26ZM342.949 293.26L327.102 308.695L342.949 293.26ZM342.949 293.26L358.8 308.695L342.949 293.26ZM358.8 293.26L374.651 308.695L358.8 293.26ZM406.35 293.26L422.201 308.695L406.35 293.26ZM422.201 293.26L438.052 308.695L422.201 293.26ZM453.9 293.26L438.052 308.695L453.9 293.26ZM453.9 293.26L469.751 308.695L453.9 293.26ZM469.751 293.26L485.602 308.695L469.751 293.26ZM485.602 293.26L501.45 308.695L485.602 293.26ZM501.45 293.26L517.301 308.695L501.45 293.26ZM533.152 293.26L517.301 308.695L533.152 293.26ZM533.152 293.26L549 308.695L533.152 293.26ZM-69.1489 308.695L-84.999 324.129L-69.1489 308.695ZM-69.1489 308.695L-53.2989 324.129L-69.1489 308.695ZM-53.2989 308.695L-37.4488 324.129L-53.2989 308.695ZM-21.599 308.695L-37.4488 324.129L-21.599 308.695ZM-5.74894 308.695L-21.599 324.129L-5.74894 308.695ZM-5.74894 308.695L10.1012 324.129L-5.74894 308.695ZM10.1012 308.695L25.9512 324.129L10.1012 308.695ZM25.9512 308.695L41.8013 324.129L25.9512 308.695ZM41.8013 308.695L57.6514 324.129L41.8013 308.695ZM57.6514 308.695L73.5011 324.129L57.6514 308.695ZM73.5011 308.695L89.3512 324.129L73.5011 308.695ZM89.3512 308.695L105.201 324.129L89.3512 308.695ZM105.201 308.695L121.051 324.129L105.201 308.695ZM121.051 308.695L136.901 324.129L121.051 308.695ZM136.901 308.695L152.751 324.129L136.901 308.695ZM152.751 308.695L168.601 324.129L152.751 308.695ZM184.451 308.695L168.601 324.129L184.451 308.695ZM184.451 308.695L200.301 324.129L184.451 308.695ZM216.151 308.695L200.301 324.129L216.151 308.695ZM232.001 308.695L216.151 324.129L232.001 308.695ZM232.001 308.695L247.849 324.129L232.001 308.695ZM247.849 308.695L263.7 324.129L247.849 308.695ZM263.7 308.695L279.552 324.129L263.7 308.695ZM279.552 308.695L295.399 324.129L279.552 308.695ZM295.399 308.695L311.25 324.129L295.399 308.695ZM311.25 308.695L327.102 324.129L311.25 308.695ZM327.102 308.695L342.949 324.129L327.102 308.695ZM342.949 308.695L358.8 324.129L342.949 308.695ZM358.8 308.695L374.651 324.129L358.8 308.695ZM422.201 308.695L438.052 324.129L422.201 308.695ZM453.9 308.695L438.052 324.129L453.9 308.695ZM453.9 308.695L469.751 324.129L453.9 308.695ZM485.602 308.695L469.751 324.129L485.602 308.695ZM485.602 308.695L501.45 324.129L485.602 308.695ZM501.45 308.695L517.301 324.129L501.45 308.695ZM517.301 308.695L533.152 324.129L517.301 308.695ZM533.152 308.695L549 324.129L533.152 308.695ZM-84.9997 324.129L-69.1496 339.564L-84.9997 324.129ZM-53.2995 324.129L-69.1496 339.564L-53.2995 324.129ZM-53.2995 324.129L-37.4494 339.564L-53.2995 324.129ZM-37.4494 324.129L-21.5997 339.564L-37.4494 324.129ZM-21.5997 324.129L-5.7496 339.564L-21.5997 324.129ZM-5.7496 324.129L10.1005 339.564L-5.7496 324.129ZM10.1005 324.129L25.9506 339.564L10.1005 324.129ZM25.9506 324.129L41.8007 339.564L25.9506 324.129ZM41.8007 324.129L57.6507 339.564L41.8007 324.129ZM57.6507 324.129L73.5005 339.564L57.6507 324.129ZM73.5005 324.129L89.3505 339.564L73.5005 324.129ZM105.201 324.129L89.3505 339.564L105.201 324.129ZM105.201 324.129L121.051 339.564L105.201 324.129ZM121.051 324.129L136.901 339.564L121.051 324.129ZM136.901 324.129L152.751 339.564L136.901 324.129ZM168.601 324.129L152.751 339.564L168.601 324.129ZM168.601 324.129L184.451 339.564L168.601 324.129ZM200.301 324.129L184.451 339.564L200.301 324.129ZM216.151 324.129L200.301 339.564L216.151 324.129ZM216.151 324.129L232.001 339.564L216.151 324.129ZM247.849 324.129L232.001 339.564L247.849 324.129ZM247.849 324.129L263.7 339.564L247.849 324.129ZM263.7 324.129L279.552 339.564L263.7 324.129ZM295.399 324.129L279.552 339.564L295.399 324.129ZM295.399 324.129L311.25 339.564L295.399 324.129ZM311.25 324.129L327.102 339.564L311.25 324.129ZM327.102 324.129L342.949 339.564L327.102 324.129ZM342.949 324.129L358.8 339.564L342.949 324.129ZM358.8 324.129L374.651 339.564L358.8 324.129ZM422.201 324.129L438.052 339.564L422.201 324.129ZM438.052 324.129L453.9 339.564L438.052 324.129ZM469.751 324.129L453.9 339.564L469.751 324.129ZM469.751 324.129L485.602 339.564L469.751 324.129ZM485.602 324.129L501.45 339.564L485.602 324.129ZM501.45 324.129L517.301 339.564L501.45 324.129ZM533.152 324.129L517.301 339.564L533.152 324.129ZM533.152 324.129L549 339.564L533.152 324.129ZM-84.9997 339.564L-69.1496 355L-84.9997 339.564ZM-69.1496 339.564L-53.2995 355L-69.1496 339.564ZM-53.2995 339.564L-37.4494 355L-53.2995 339.564ZM-37.4494 339.564L-21.5997 355L-37.4494 339.564ZM-21.5997 339.564L-5.7496 355L-21.5997 339.564ZM-5.7496 339.564L10.1005 355L-5.7496 339.564ZM10.1005 339.564L25.9506 355L10.1005 339.564ZM25.9506 339.564L41.8007 355L25.9506 339.564ZM57.6507 339.564L41.8007 355L57.6507 339.564ZM57.6507 339.564L73.5005 355L57.6507 339.564ZM73.5005 339.564L89.3505 355L73.5005 339.564ZM89.3505 339.564L105.201 355L89.3505 339.564ZM105.201 339.564L121.051 355L105.201 339.564ZM136.901 339.564L121.051 355L136.901 339.564ZM152.751 339.564L136.901 355L152.751 339.564ZM152.751 339.564L168.601 355L152.751 339.564ZM168.601 339.564L184.451 355L168.601 339.564ZM184.451 339.564L200.301 355L184.451 339.564ZM200.301 339.564L216.151 355L200.301 339.564ZM232.001 339.564L216.151 355L232.001 339.564ZM247.849 339.564L232.001 355L247.849 339.564ZM247.849 339.564L263.7 355L247.849 339.564ZM279.552 339.564L263.7 355L279.552 339.564ZM295.399 339.564L279.552 355L295.399 339.564ZM295.399 339.564L311.25 355L295.399 339.564ZM311.25 339.564L327.102 355L311.25 339.564ZM327.102 339.564L342.949 355L327.102 339.564ZM342.949 339.564L358.8 355L342.949 339.564ZM358.8 339.564L374.651 355L358.8 339.564ZM374.651 339.564L390.502 355L374.651 339.564ZM390.502 339.564L406.35 355L390.502 339.564ZM422.201 339.564L406.35 355L422.201 339.564ZM422.201 339.564L438.052 355L422.201 339.564ZM453.9 339.564L438.052 355L453.9 339.564ZM453.9 339.564L469.751 355L453.9 339.564ZM469.751 339.564L485.602 355L469.751 339.564ZM501.45 339.564L485.602 355L501.45 339.564ZM517.301 339.564L501.45 355L517.301 339.564ZM517.301 339.564L533.152 355L517.301 339.564ZM533.152 339.564L549 355L533.152 339.564ZM342.949 154.348L358.8 169.782L342.949 154.348Z" fill="url(#paint0_linear_4340_14784)"/>
<path d="M-53.2995 15.4348L-69.1496 0.000318943L-84.9997 15.4348L-69.1496 30.8696L-53.2995 46.3044M-53.2995 0L-37.4494 15.4348M-37.4494 15.4348L-53.2995 30.8696M-37.4494 15.4348L-21.5997 30.8696L-5.74959 46.3044L10.1005 30.8696L-5.74959 15.4348M-37.4494 0L-21.5997 15.4348L-5.74959 30.8696M-21.5997 0L-5.74959 15.4348M-5.74959 15.4348L10.1005 0M41.8007 15.4348L25.9506 0L10.1005 15.4348L25.9506 30.8696M41.8007 0L57.6507 15.4348M57.6507 15.4348L41.8007 30.8696M57.6507 15.4348L73.5005 30.8696M57.6507 0L73.5005 15.4348L89.3505 0M89.3505 15.4348L105.201 0L121.051 15.4348L136.901 30.8696M89.3505 15.4348L73.5005 30.8696M89.3505 15.4348L105.201 30.8696L121.051 46.3044L136.901 61.7392M121.051 0L136.901 15.4348L152.751 30.8696L136.901 46.3044M136.901 0L152.751 15.4348L168.601 30.8696M152.751 0L168.601 15.4348L184.451 30.8696L200.301 46.3044M168.601 0L184.451 15.4348L200.301 30.8696M184.451 0L200.301 15.4348M200.301 0L216.151 15.4348L200.301 30.8696M216.151 0L232.001 15.4348M232.001 15.4348L216.151 30.8696M232.001 15.4348L247.849 30.8696M232.001 0L247.849 15.4348M247.849 0L263.7 15.4348M263.7 15.4348L247.849 30.8696M263.7 15.4348L279.552 30.8696L295.399 46.3044M263.7 0L279.552 15.4348M279.552 15.4348L295.399 0L311.25 15.4348M279.552 15.4348L295.399 30.8696L311.25 46.3044M311.25 15.4348L327.101 0M311.25 15.4348L327.101 30.8696M358.8 15.4348L342.949 0L327.101 15.4348L342.949 30.8696L358.8 46.3044M358.8 15.4348L374.651 0L390.502 15.4348L406.35 30.8696L422.201 46.3044M358.8 15.4348L374.651 30.8696L390.502 46.3044L406.35 61.7392M390.502 0L406.35 15.4348L422.201 30.8696L438.052 15.4348L453.9 30.8696M406.35 0L422.201 15.4348L438.052 0L453.9 15.4348L469.751 30.8696L485.602 46.3044M453.9 0L469.751 15.4348L485.602 30.8696M469.751 0L485.602 15.4348L501.45 30.8696M485.602 0L501.45 15.4348L517.301 30.8696L533.152 46.3044M501.45 0L517.301 15.4348L533.152 30.8696L549 46.3044L533.152 61.7392M517.301 0L533.152 15.4348L549 30.8696M533.152 0L549 15.4348M-69.1496 15.4348L-53.2995 30.8696M-53.2995 30.8696L-37.4494 46.3044M25.9506 30.8696L10.1005 46.3044L-5.74959 61.7392M25.9506 30.8696L41.8007 46.3044L25.9506 61.7392L41.8007 77.174M25.9506 15.4348L41.8007 30.8696M41.8007 30.8696L57.6507 46.3044M73.5005 30.8696L57.6507 46.3044M73.5005 30.8696L89.3505 46.3044L105.201 61.7392L121.051 77.174M105.201 15.4348L121.051 30.8696L136.901 46.3044M168.601 30.8696L152.751 46.3044L168.601 61.7392M168.601 30.8696L184.451 46.3044L200.301 61.7392M200.301 30.8696L216.151 46.3044M247.849 30.8696L232.001 46.3044M247.849 30.8696L263.7 46.3044L279.552 61.7392L295.399 77.174L311.25 92.6085L327.101 108.043M295.399 15.4348L311.25 30.8696M327.101 30.8696L311.25 46.3044M327.101 30.8696L342.949 46.3044L358.8 61.7392M342.949 15.4348L358.8 30.8696L374.651 46.3044M374.651 15.4348L390.502 30.8696L406.35 46.3044M453.9 30.8696L438.052 46.3044M453.9 30.8696L469.751 46.3044L485.602 61.7392M501.45 30.8696L485.602 46.3044M501.45 30.8696L517.301 46.3044L533.152 61.7392M-84.9997 30.8696L-69.1496 46.3044L-53.2995 61.7392L-37.4494 46.3044M-37.4494 46.3044L-21.5997 61.7392M-37.4494 30.8696L-21.5997 46.3044L-5.74959 61.7392M57.6507 46.3044L41.8007 61.7392L57.6507 77.174M57.6507 46.3044L73.5005 61.7392L89.3505 77.174M89.3505 30.8696L105.201 46.3044L121.051 61.7392M136.901 46.3044L152.751 61.7392M216.151 46.3044L232.001 30.8696M216.151 46.3044L200.301 61.7392M216.151 46.3044L232.001 61.7392M263.7 30.8696L279.552 46.3044L295.399 61.7392M311.25 46.3044L295.399 61.7392M374.651 46.3044L358.8 61.7392M374.651 46.3044L390.502 61.7392L406.35 77.174L422.201 92.6085L438.052 108.043M422.201 46.3044L438.052 30.8696M422.201 46.3044L406.35 61.7392M438.052 46.3044L422.201 61.7392L438.052 77.174M438.052 46.3044L453.9 61.7392L469.751 77.174M485.602 46.3044L501.45 61.7392M-84.9997 46.3044L-69.1496 61.7392M-69.1496 61.7392L-84.9997 77.174L-69.1496 92.6085L-53.2995 108.043L-37.4498 123.478M-69.1496 61.7392L-53.2995 77.174L-37.4494 61.7392M-21.5997 61.7392L-37.4494 77.174L-21.5997 92.6085M-21.5997 61.7392L-5.74959 77.174M-5.74959 61.7392L10.1005 77.174L25.9506 92.6085L41.8007 108.043M25.9506 46.3044L10.1005 61.7392L25.9506 77.174L41.8007 92.6085M73.5005 46.3044L89.3505 61.7392L105.201 77.174L121.051 92.6085L105.201 108.043M136.901 61.7392L121.051 77.174M136.901 61.7392L152.751 77.174M168.601 61.7392L152.751 77.174M168.601 61.7392L184.451 77.174M168.601 46.3044L184.451 61.7392L200.301 77.174L216.151 92.6085L232 108.043L247.849 123.478M200.301 61.7392L216.151 77.174M232.001 61.7392L247.849 46.3044L263.7 61.7392L279.552 77.174M232.001 61.7392L216.151 77.174M232.001 61.7392L247.849 77.174L263.7 92.6085L279.551 108.043L295.399 123.478M295.399 61.7392L311.25 77.174M311.25 61.7392L327.101 46.3044L342.949 61.7392M342.949 61.7392L327.101 77.174L342.949 92.6085M342.949 61.7392L358.8 77.174M358.8 61.7392L374.651 77.174M406.35 61.7392L422.201 77.174L438.052 92.6085M453.9 46.3044L469.751 61.7392L485.602 77.174M501.45 61.7392L485.602 77.174M501.45 61.7392L517.301 77.174L533.152 92.6085L549 108.043M501.45 46.3044L517.301 61.7392L533.152 77.174L549 92.6085M533.152 61.7392L549 77.174M-5.74959 77.174L-21.5997 92.6085M-5.74959 77.174L10.1005 92.6085L25.9506 108.043M57.6507 77.174L41.8007 92.6085M57.6507 77.174L73.5005 92.6085M57.6507 61.7392L73.5005 77.174M89.3505 77.174L73.5005 92.6085M89.3505 77.174L105.201 92.6085M121.051 77.174L136.901 92.6085M152.751 77.174L168.601 92.6085M184.451 77.174L168.601 92.6085M184.451 77.174L200.301 92.6085L216.151 108.043L232 123.478L247.849 138.913M216.151 77.174L232.001 92.6085L247.849 108.043L263.7 123.478M247.849 61.7392L263.7 77.174L279.552 92.6085M311.25 77.174L327.101 61.7392M311.25 77.174L327.101 92.6085M358.8 77.174L342.949 92.6085M358.8 77.174L374.651 92.6085M374.651 61.7392L390.502 77.174M390.502 77.174L374.651 92.6085M390.502 77.174L406.35 92.6085L422.201 108.043M438.052 61.7392L453.9 77.174M453.9 77.174L438.052 92.6085M453.9 77.174L469.751 92.6085L485.602 77.174M485.602 77.174L501.45 92.6085L517.301 108.043M-69.1496 77.174L-53.2995 92.6085M-21.5997 92.6085L-5.74959 108.043L10.1002 123.478M41.8007 92.6085L57.6507 108.043L73.5005 92.6085M73.5005 92.6085L89.3505 108.043L105.2 123.478L121.051 138.913L136.901 154.348M136.901 92.6085L121.051 108.043L136.9 123.478L152.751 138.913L168.601 154.348L184.451 169.782M136.901 92.6085L152.751 108.043L168.601 92.6085M136.901 77.174L152.751 92.6085M232.001 77.174L247.849 92.6085L263.7 108.043L279.551 123.478L295.399 138.913M342.949 92.6085L327.101 108.043M374.651 92.6085L390.502 108.043M438.052 92.6085L453.9 108.043L469.751 123.478M501.45 77.174L517.301 92.6085L533.152 108.043M-84.9997 92.6085L-69.1496 108.043L-53.2998 123.478M-5.74959 92.6085L10.1005 108.043M89.3505 92.6085L105.201 108.043M105.201 108.043L121.05 123.478L136.901 138.913L152.751 154.348L168.601 169.782L184.451 185.217L200.301 200.652M327.101 108.043L342.949 123.478L358.8 138.913L374.651 154.348M374.651 108.043L358.8 92.6085L342.949 108.043L358.8 123.478L374.651 138.913M390.502 92.6085L406.35 108.043M406.35 108.043L390.502 123.478M406.35 108.043L422.201 123.478M438.052 108.043L422.201 123.478M438.052 108.043L453.9 123.478M453.9 92.6085L469.751 108.043L485.602 123.478M469.751 92.6085L485.602 108.043L501.45 123.478M485.602 92.6085L501.45 108.043L517.301 123.478M533.152 108.043L517.301 123.478M533.152 108.043L549 123.478L533.152 138.913M-85 108.043L-69.1499 123.478L-53.2998 138.913M-37.4498 123.478L-21.6 108.043L-5.74992 123.478M-37.4498 123.478L-53.2998 138.913M10.1002 123.478L25.9502 108.043L41.8003 123.478M10.1002 123.478L-5.74959 138.913M10.1002 123.478L25.9506 138.913L41.8007 154.348M41.8003 108.043L57.6504 123.478M57.6504 108.043L73.5002 123.478L89.3505 138.913M73.5002 108.043L89.3502 123.478L105.201 138.913L121.051 154.348M263.7 123.478L247.849 138.913M263.7 123.478L279.552 138.913M295.399 123.478L311.25 108.043L327.101 123.478M295.399 123.478L311.25 138.913M327.101 123.478L311.25 138.913M327.101 123.478L342.949 138.913L358.8 154.348L374.651 169.782L390.502 154.348L374.651 138.913M390.502 123.478L374.651 138.913M390.502 123.478L406.35 138.913L422.201 154.348M422.201 123.478L438.052 138.913M517.301 123.478L501.45 138.913M-85 123.478L-69.1499 138.913M-53.2998 138.913L-69.1496 154.348M-53.2998 138.913L-37.4494 154.348L-21.5997 169.782L-5.74959 185.217L10.1005 200.652L25.9506 216.087L41.8007 231.521M-37.4494 123.478L-21.5997 138.913L-5.74959 154.348L10.1005 169.782M-21.5997 123.478L-5.74959 138.913M-5.74959 138.913L10.1005 154.348L25.9506 169.782M25.9506 123.478L41.8007 138.913L57.6507 123.478L73.5005 138.913L57.6507 154.348M89.3505 138.913L73.5005 154.348L89.3505 169.782L105.201 185.217M89.3505 138.913L105.201 154.348L121.051 169.782M247.849 138.913L263.7 154.348L279.552 169.782L295.399 185.217L311.25 200.652M295.399 138.913L279.552 154.348M295.399 138.913L311.25 154.348L327.101 169.782L342.949 185.217M311.25 138.913L327.101 154.348L342.949 169.782L351.719 178.221M406.35 123.478L422.201 138.913M438.052 138.913L422.201 154.348M438.052 138.913L453.9 154.348M438.052 123.478L453.9 138.913L469.751 154.348M453.9 123.478L469.751 138.913L485.602 154.348L501.45 169.782M469.751 123.478L485.602 138.913L501.45 154.348L517.301 169.782M485.602 123.478L501.45 138.913M501.45 138.913L517.301 154.348L533.152 169.782M533.152 123.478L517.301 138.913L533.152 154.348M-84.9997 138.913L-69.1496 154.348M-69.1496 154.348L-53.2995 169.782L-37.4494 185.217M-37.4494 138.913L-21.5997 154.348L-5.74959 169.782L10.1005 185.217M10.1005 138.913L25.9506 154.348M41.8007 154.348L57.6507 138.913M41.8007 154.348L25.9506 169.782M57.6507 154.348L41.8007 169.782M57.6507 154.348L73.5005 169.782L89.3505 185.217L105.201 200.652M136.901 154.348L121.051 169.782M136.901 154.348L152.751 169.782L168.601 185.217L184.451 200.652M232.001 138.913L247.849 154.348L263.7 169.782L279.552 185.217L295.399 200.652M263.7 138.913L279.552 154.348M279.552 154.348L295.399 169.782L311.25 185.217L327.101 200.652M327.101 138.913L342.949 154.348L358.8 169.782M390.502 138.913L406.35 154.348M406.35 154.348L390.502 169.782L406.35 185.217M406.35 154.348L422.201 169.782L438.052 185.217L453.9 200.652M422.201 154.348L438.052 169.782L453.9 185.217M469.751 154.348L453.9 169.782M469.751 154.348L485.602 169.782L469.751 185.217M533.152 154.348L549 138.913M533.152 154.348L549 169.782M-84.9997 154.348L-69.1496 169.782L-53.2995 185.217L-37.4494 200.652L-21.5997 216.087L-5.74959 231.521L10.1005 246.956M-53.2995 154.348L-37.4494 169.782L-21.5997 185.217L-5.74959 200.652L10.1005 216.087L25.9506 231.521M25.9506 169.782L10.1005 185.217M25.9506 169.782L41.8007 185.217L57.6507 169.782L73.5005 185.217M89.3505 154.348L105.201 169.782M121.051 169.782L105.201 185.217M184.451 169.782L200.301 154.348L216.151 169.782L232.001 185.217M184.451 169.782L200.301 185.217L216.151 200.652M232.001 154.348L247.849 169.782L263.7 185.217L279.552 200.652L295.399 216.087M295.399 154.348L311.25 169.782L327.101 185.217L342.949 200.652L327.101 216.087M438.052 154.348L453.9 169.782M453.9 169.782L469.751 185.217M501.45 169.782L485.602 185.217L469.751 200.652L485.602 216.087M501.45 169.782L517.301 185.217M533.152 169.782L517.301 185.217M533.152 169.782L549 185.217L533.152 200.652L517.301 185.217M-84.9997 169.782L-69.1496 185.217L-53.2995 200.652L-37.4494 216.087L-21.5997 231.521L-5.74959 246.956L-21.5997 262.391M10.1005 185.217L25.9506 200.652L41.8007 216.087L57.6507 231.521L73.5005 216.087L89.3505 200.652L105.201 216.087M105.201 185.217L121.051 200.652M200.301 169.782L216.151 185.217L232.001 200.652M232.001 169.782L247.849 185.217M247.849 185.217L232.001 200.652M247.849 185.217L263.7 200.652M406.35 169.782L422.201 185.217M422.201 185.217L406.35 200.652M422.201 185.217L438.052 200.652L453.9 216.087L469.751 231.521L485.602 216.087M469.751 185.217L453.9 200.652M-84.9997 185.217L-69.1496 200.652L-53.2995 216.087L-37.4494 231.521L-21.5997 246.956M25.9506 185.217L41.8007 200.652L57.6507 216.087M121.051 200.652L105.201 216.087M121.051 200.652L136.901 216.087M136.901 200.652L121.051 185.217L136.901 169.782L152.751 185.217L168.601 200.652L184.451 216.087L200.301 200.652M136.901 185.217L152.751 200.652M152.751 200.652L136.901 216.087M152.751 200.652L168.601 216.087L184.451 231.521M200.301 200.652L216.151 216.087M232.001 200.652L216.151 216.087M232.001 200.652L247.849 216.087M263.7 200.652L247.849 216.087M263.7 200.652L279.552 216.087M311.25 200.652L295.399 216.087M311.25 200.652L327.101 216.087M390.502 185.217L406.35 200.652M406.35 200.652L422.201 216.087M453.9 200.652L469.751 216.087M517.301 200.652L501.45 185.217L485.602 200.652L501.45 216.087L517.301 231.521L533.152 246.956M-84.9997 200.652L-69.1496 216.087L-53.2995 231.521M105.201 216.087L121.051 231.521M136.901 216.087L152.751 231.521L168.601 246.956M216.151 216.087L232.001 231.521M247.849 216.087L263.7 231.521L279.552 246.956L295.399 262.391L279.552 277.825M295.399 216.087L279.552 231.521M295.399 216.087L311.25 231.521M327.101 216.087L311.25 231.521M327.101 216.087L342.949 231.521M422.201 216.087L406.35 231.521M422.201 216.087L438.052 231.521M422.201 200.652L438.052 216.087L453.9 231.521M485.602 216.087L501.45 231.521L517.301 246.956M501.45 200.652L517.301 216.087M-84.9997 216.087L-69.1496 231.521L-84.9997 246.956L-69.1496 262.391L-53.2995 277.825M-53.2995 231.521L-69.1496 246.956L-53.2995 262.391M-53.2995 231.521L-37.4494 246.956L-21.5997 262.391M-5.74959 216.087L10.1005 231.521L25.9506 246.956L41.8007 231.521M41.8007 231.521L57.6507 246.956M73.5005 231.521L89.3505 216.087L105.201 231.521L121.051 246.956M73.5005 231.521L57.6507 246.956M73.5005 231.521L89.3505 246.956L105.201 262.391L121.051 277.825M121.051 216.087L136.901 231.521M136.901 231.521L121.051 246.956M136.901 231.521L152.751 246.956M152.751 216.087L168.601 231.521L184.451 246.956L200.301 262.391M232.001 216.087L247.849 231.521M247.849 231.521L232.001 246.956L247.849 262.391L263.7 277.825L279.552 293.26L295.399 308.695L311.25 324.129L327.101 339.564L342.949 355M247.849 231.521L263.7 246.956L279.552 262.391M263.7 216.087L279.552 231.521M279.552 231.521L295.399 246.956L311.25 262.391L295.399 277.825L311.25 293.26L327.101 308.695M311.25 231.521L327.101 246.956M342.949 231.521L327.101 246.956M342.949 231.521L358.8 246.956L374.651 262.391L390.502 277.825L406.35 293.26L422.201 308.695L438.052 324.129M406.35 231.521L390.502 246.956M406.35 231.521L422.201 246.956M453.9 231.521L438.052 246.956M453.9 231.521L469.751 246.956M10.1005 246.956L-5.74959 262.391M10.1005 246.956L25.9506 262.391M57.6507 246.956L73.5005 262.391L89.3505 277.825M89.3505 231.521L105.201 246.956L121.051 262.391L136.901 277.825M121.051 246.956L136.901 262.391L152.751 277.825L168.601 293.26L184.451 308.695L200.301 324.129M168.601 246.956L152.751 262.391M168.601 246.956L184.451 262.391L168.601 277.825M295.399 231.521L311.25 246.956L327.101 262.391M327.101 246.956L342.949 262.391L358.8 277.825L374.651 293.26M366.465 239.173L374.651 246.956L390.502 262.391L406.35 277.825L422.201 293.26L438.052 308.695L453.9 293.26L469.751 308.695M374.651 231.521L390.502 246.956M390.502 246.956L406.35 262.391M422.201 246.956L406.35 262.391M422.201 246.956L438.052 262.391L453.9 277.825M422.201 231.521L438.052 246.956M438.052 246.956L453.9 262.391L469.751 277.825L485.602 293.26L501.45 308.695L517.301 324.129M469.751 246.956L485.602 231.521L501.45 246.956L517.301 262.391M469.751 246.956L485.602 262.391L501.45 277.825L517.301 293.26L533.152 277.825M533.152 246.956L517.301 262.391M533.152 246.956L549 262.391M533.152 231.521L549 246.956M-53.2995 246.956L-37.4494 262.391M-37.4494 262.391L-53.2995 277.825M-37.4494 262.391L-21.5997 277.825M-21.5997 262.391L-5.74959 277.825L10.1005 262.391L25.9506 277.825L41.8007 293.26M25.9506 262.391L41.8007 246.956L57.6507 262.391L73.5005 277.825M25.9506 262.391L41.8007 277.825M73.5005 246.956L89.3505 262.391L105.201 277.825L121.051 293.26M136.901 246.956L152.751 262.391M152.751 262.391L168.601 277.825M200.301 262.391L184.451 277.825L200.301 293.26L216.151 308.695L200.301 324.129M200.301 262.391L216.151 277.825M200.301 246.956L216.151 262.391M216.151 246.956L232.001 262.391M232.001 262.391L216.151 277.825M232.001 262.391L247.849 277.825M247.849 246.956L263.7 262.391L279.552 277.825M327.101 262.391L311.25 277.825L327.101 293.26M327.101 262.391L342.949 277.825L358.8 293.26L374.651 308.695M342.949 246.956L358.8 262.391L374.651 277.825L390.502 293.26M406.35 262.391L422.201 277.825L438.052 293.26L453.9 277.825M453.9 246.956L469.751 262.391L485.602 277.825L501.45 293.26L517.301 308.695M485.602 246.956L501.45 262.391L517.301 277.825M517.301 262.391L533.152 277.825M-84.9997 262.391L-69.1496 277.825L-53.2995 293.26M-53.2995 277.825L-37.4494 293.26M-21.5997 277.825L-37.4494 293.26M-21.5997 277.825L-5.74959 293.26M41.8007 262.391L57.6507 277.825M57.6507 277.825L41.8007 293.26M57.6507 277.825L73.5005 293.26M89.3505 277.825L73.5005 293.26M89.3505 277.825L105.201 293.26L121.051 308.695M136.901 277.825L121.051 293.26M136.901 277.825L152.751 293.26L168.601 308.695M168.601 277.825L184.451 293.26L200.301 308.695M216.151 277.825L232.001 293.26M247.849 277.825L232.001 293.26M247.849 277.825L263.7 293.26M279.552 277.825L295.399 293.26L311.25 308.695L327.101 324.129L342.949 339.564L358.8 355M422.201 262.391L438.052 277.825M453.9 277.825L469.751 293.26L485.602 308.695M533.152 277.825L549 293.26M533.152 262.391L549 277.825M-69.1489 277.825L-84.9997 293.26L-69.1496 308.695M-37.4494 293.26L-53.2995 308.695L-69.1496 293.26M-37.4494 293.26L-21.5997 308.695M-5.74959 293.26L10.1005 277.825L25.9506 293.26L41.8007 308.695M-5.74959 293.26L10.1005 308.695M41.8007 293.26L57.6507 308.695M73.5005 293.26L89.3505 308.695M121.051 293.26L136.901 308.695M200.301 277.825L216.151 293.26L232.001 308.695M232.001 293.26L247.849 308.695M263.7 293.26L247.849 308.695M263.7 293.26L279.552 308.695L295.399 324.129M327.101 277.825L342.949 293.26M342.949 293.26L327.101 308.695M342.949 293.26L358.8 308.695L374.651 324.129M-21.5997 293.26L-5.74959 308.695M10.1005 293.26L25.9506 308.695M57.6507 293.26L73.5005 308.695M89.3505 293.26L105.201 308.695M136.901 293.26L152.751 308.695M232.001 308.695L216.151 324.129M232.001 308.695L247.849 324.129M247.849 308.695L263.7 324.129L279.552 339.564M327.101 308.695L342.949 324.129L358.8 339.564L374.651 355M485.602 308.695L469.751 324.129M485.602 308.695L501.45 324.129L517.301 339.564M517.301 308.695L533.152 293.26L549 308.695M517.301 308.695L533.152 324.129M-84.999 324.129L-69.1489 308.695L-53.2989 324.129M-53.2989 308.695L-37.4488 324.129L-21.599 308.695M-21.599 324.129L-5.74894 308.695L10.1011 324.129M10.1011 308.695L25.9512 324.129M25.9512 308.695L41.8013 324.129M41.8013 308.695L57.6514 324.129M57.6514 308.695L73.5011 324.129M73.5011 308.695L89.3512 324.129M89.3512 308.695L105.201 324.129M105.201 308.695L121.051 324.129M121.051 308.695L136.901 324.129M136.901 308.695L152.751 324.129M152.751 308.695L168.601 324.129M184.451 308.695L168.601 324.129M168.601 324.129L152.751 339.564M168.601 324.129L184.451 339.564M200.301 324.129L184.451 339.564M216.151 324.129L200.301 339.564L216.151 355L232.001 339.564M216.151 324.129L232.001 339.564M247.849 324.129L232.001 339.564M247.849 324.129L263.7 339.564M263.7 308.695L279.552 324.129M295.399 324.129L279.552 339.564M295.399 324.129L311.25 339.564L327.101 355M342.949 308.695L358.8 324.129L374.651 339.564L390.502 355M438.052 324.129L453.9 308.695L469.751 324.129M438.052 324.129L453.9 339.564M469.751 324.129L453.9 339.564M469.751 324.129L485.602 339.564M533.152 324.129L517.301 339.564M533.152 324.129L549 339.564M533.152 308.695L549 324.129M-84.9997 324.129L-69.1496 339.564M-69.1496 339.564L-53.2995 324.129L-37.4494 339.564L-21.5997 355M-69.1496 339.564L-53.2995 355M-37.4494 324.129L-21.5997 339.564L-5.74959 355M-21.5997 324.129L-5.74959 339.564L10.1005 355M-5.74959 324.129L10.1005 339.564L25.9506 355M10.1005 324.129L25.9506 339.564L41.8007 355L57.6507 339.564M25.9506 324.129L41.8007 339.564M41.8007 324.129L57.6507 339.564M57.6507 339.564L73.5005 355M57.6507 324.129L73.5005 339.564L89.3505 355M73.5005 324.129L89.3505 339.564M89.3505 339.564L105.201 324.129L121.051 339.564M89.3505 339.564L105.201 355M121.051 324.129L136.901 339.564L121.051 355L105.201 339.564M136.901 324.129L152.751 339.564M152.751 339.564L136.901 355M152.751 339.564L168.601 355M184.451 339.564L200.301 355M279.552 339.564L263.7 355L247.849 339.564L232.001 355M422.201 324.129L438.052 339.564M453.9 339.564L438.052 355L422.201 339.564L406.35 355L390.502 339.564M453.9 339.564L469.751 355M485.602 324.129L501.45 339.564L485.602 355L469.751 339.564M517.301 339.564L501.45 355M517.301 339.564L533.152 355M-84.9997 339.564L-69.1496 355M-53.2995 339.564L-37.4494 355M168.601 339.564L184.451 355M279.552 355L295.399 339.564L311.25 355M533.152 339.564L549 355" stroke="url(#paint1_linear_4340_14784)" stroke-width="3"/>
<defs>
<linearGradient id="paint0_linear_4340_14784" x1="66.8958" y1="336.51" x2="162.31" y2="-12.8119" gradientUnits="userSpaceOnUse">
<stop stop-color="#863CFF"/>
<stop offset="1" stop-color="#FF7878"/>
</linearGradient>
<linearGradient id="paint1_linear_4340_14784" x1="66.8958" y1="336.51" x2="162.31" y2="-12.8119" gradientUnits="userSpaceOnUse">
<stop stop-color="#863CFF"/>
<stop offset="1" stop-color="#FF7878"/>
</linearGradient>
</defs>
</svg>
