<svg width="744" height="421" viewBox="0 0 744 421" fill="none" xmlns="http://www.w3.org/2000/svg">
<path fill-rule="evenodd" clip-rule="evenodd" d="M18.6005 0.000375544L0.00038435 18.1739L18.6005 0.000375544ZM18.6005 0.000375544L37.2006 18.1739L18.6005 0.000375544ZM37.2006 0L55.8007 18.1739L37.2006 0ZM55.8007 0L74.4004 18.1739L55.8007 0ZM74.4004 0L93.0005 18.1739L74.4004 0ZM111.601 0L93.0005 18.1739L111.601 0ZM130.201 0L111.601 18.1739L130.201 0ZM130.201 0L148.801 18.1739L130.201 0ZM148.801 0L167.401 18.1739L148.801 0ZM167.401 0L186.001 18.1739L167.401 0ZM204.601 0L186.001 18.1739L204.601 0ZM223.201 0L204.601 18.1739L223.201 0ZM223.201 0L241.801 18.1739L223.201 0ZM241.801 0L260.401 18.1739L241.801 0ZM260.401 0L279.001 18.1739L260.401 0ZM279.001 0L297.601 18.1739L279.001 0ZM297.601 0L316.201 18.1739L297.601 0ZM316.201 0L334.801 18.1739L316.201 0ZM334.801 0L353.401 18.1739L334.801 0ZM353.401 0L372.001 18.1739L353.401 0ZM372.001 0L390.599 18.1739L372.001 0ZM390.599 0L409.201 18.1739L390.599 0ZM409.201 0L427.802 18.1739L409.201 0ZM446.399 0L427.802 18.1739L446.399 0ZM446.399 0L465 18.1739L446.399 0ZM483.602 0L465 18.1739L483.602 0ZM502.199 0L483.602 18.1739L502.199 0ZM502.199 0L520.8 18.1739L502.199 0ZM539.402 0L520.8 18.1739L539.402 0ZM539.402 0L558.003 18.1739L539.402 0ZM558.003 0L576.6 18.1739L558.003 0ZM576.6 0L595.201 18.1739L576.6 0ZM613.803 0L595.201 18.1739L613.803 0ZM613.803 0L632.4 18.1739L613.803 0ZM632.4 0L651.001 18.1739L632.4 0ZM651.001 0L669.603 18.1739L651.001 0ZM669.603 0L688.2 18.1739L669.603 0ZM688.2 0L706.801 18.1739L688.2 0ZM706.801 0L725.403 18.1739L706.801 0ZM725.403 0L744 18.1739L725.403 0ZM0.00038435 18.1739L18.6005 36.3479L0.00038435 18.1739ZM18.6005 18.1739L37.2006 36.3479L18.6005 18.1739ZM55.8007 18.1739L37.2006 36.3479L55.8007 18.1739ZM55.8007 18.1739L74.4004 36.3479L55.8007 18.1739ZM74.4004 18.1739L93.0005 36.3479L74.4004 18.1739ZM93.0005 18.1739L111.601 36.3479L93.0005 18.1739ZM111.601 18.1739L130.201 36.3479L111.601 18.1739ZM130.201 18.1739L148.801 36.3479L130.201 18.1739ZM167.401 18.1739L148.801 36.3479L167.401 18.1739ZM167.401 18.1739L186.001 36.3479L167.401 18.1739ZM204.601 18.1739L186.001 36.3479L204.601 18.1739ZM204.601 18.1739L223.201 36.3479L204.601 18.1739ZM223.201 18.1739L241.801 36.3479L223.201 18.1739ZM241.801 18.1739L260.401 36.3479L241.801 18.1739ZM260.401 18.1739L279.001 36.3479L260.401 18.1739ZM279.001 18.1739L297.601 36.3479L279.001 18.1739ZM297.601 18.1739L316.201 36.3479L297.601 18.1739ZM316.201 18.1739L334.801 36.3479L316.201 18.1739ZM353.401 18.1739L334.801 36.3479L353.401 18.1739ZM372.001 18.1739L353.401 36.3479L372.001 18.1739ZM372.001 18.1739L390.599 36.3479L372.001 18.1739ZM409.201 18.1739L390.599 36.3479L409.201 18.1739ZM409.201 18.1739L427.802 36.3479L409.201 18.1739ZM427.802 18.1739L446.399 36.3479L427.802 18.1739ZM446.399 18.1739L465 36.3479L446.399 18.1739ZM465 18.1739L483.602 36.3479L465 18.1739ZM483.602 18.1739L502.199 36.3479L483.602 18.1739ZM502.199 18.1739L520.8 36.3479L502.199 18.1739ZM520.8 18.1739L539.402 36.3479L520.8 18.1739ZM539.402 18.1739L558.003 36.3479L539.402 18.1739ZM558.003 18.1739L576.6 36.3479L558.003 18.1739ZM576.6 18.1739L595.201 36.3479L576.6 18.1739ZM613.803 18.1739L595.201 36.3479L613.803 18.1739ZM613.803 18.1739L632.4 36.3479L613.803 18.1739ZM632.4 18.1739L651.001 36.3479L632.4 18.1739ZM651.001 18.1739L669.603 36.3479L651.001 18.1739ZM669.603 18.1739L688.2 36.3479L669.603 18.1739ZM688.2 18.1739L706.801 36.3479L688.2 18.1739ZM706.801 18.1739L725.403 36.3479L706.801 18.1739ZM725.403 18.1739L744 36.3479L725.403 18.1739ZM0.00038435 36.3479L18.6005 54.5218L0.00038435 36.3479ZM18.6005 36.3479L37.2006 54.5218L18.6005 36.3479ZM37.2006 36.3479L55.8007 54.5218L37.2006 36.3479ZM55.8007 36.3479L74.4004 54.5218L55.8007 36.3479ZM74.4004 36.3479L93.0005 54.5218L74.4004 36.3479ZM111.601 36.3479L93.0005 54.5218L111.601 36.3479ZM130.201 36.3479L111.601 54.5218L130.201 36.3479ZM130.201 36.3479L148.801 54.5218L130.201 36.3479ZM148.801 36.3479L167.401 54.5218L148.801 36.3479ZM186.001 36.3479L167.401 54.5218L186.001 36.3479ZM186.001 36.3479L204.601 54.5218L186.001 36.3479ZM204.601 36.3479L223.201 54.5218L204.601 36.3479ZM223.201 36.3479L241.801 54.5218L223.201 36.3479ZM241.801 36.3479L260.401 54.5218L241.801 36.3479ZM279.001 36.3479L260.401 54.5218L279.001 36.3479ZM297.601 36.3479L279.001 54.5218L297.601 36.3479ZM297.601 36.3479L316.201 54.5218L297.601 36.3479ZM316.201 36.3479L334.801 54.5218L316.201 36.3479ZM334.801 36.3479L353.401 54.5218L334.801 36.3479ZM372.001 36.3479L353.401 54.5218L372.001 36.3479ZM390.599 36.3479L372.001 54.5218L390.599 36.3479ZM390.599 36.3479L409.201 54.5218L390.599 36.3479ZM409.201 36.3479L427.802 54.5218L409.201 36.3479ZM427.802 36.3479L446.399 54.5218L427.802 36.3479ZM446.399 36.3479L465 54.5218L446.399 36.3479ZM483.602 36.3479L465 54.5218L483.602 36.3479ZM483.602 36.3479L502.199 54.5218L483.602 36.3479ZM502.199 36.3479L520.8 54.5218L502.199 36.3479ZM520.8 36.3479L539.402 54.5218L520.8 36.3479ZM539.402 36.3479L558.003 54.5218L539.402 36.3479ZM558.003 36.3479L576.6 54.5218L558.003 36.3479ZM576.6 36.3479L595.201 54.5218L576.6 36.3479ZM613.803 36.3479L595.201 54.5218L613.803 36.3479ZM632.4 36.3479L613.803 54.5218L632.4 36.3479ZM632.4 36.3479L651.001 54.5218L632.4 36.3479ZM651.001 36.3479L669.603 54.5218L651.001 36.3479ZM688.2 36.3479L669.603 54.5218L688.2 36.3479ZM688.2 36.3479L706.801 54.5218L688.2 36.3479ZM706.801 36.3479L725.403 54.5218L706.801 36.3479ZM725.403 36.3479L744 54.5218L725.403 36.3479ZM0.00038435 54.5218L18.6005 72.6957L0.00038435 54.5218ZM18.6005 54.5218L37.2006 72.6957L18.6005 54.5218ZM55.8007 54.5218L37.2006 72.6957L55.8007 54.5218ZM55.8007 54.5218L74.4004 72.6957L55.8007 54.5218ZM74.4004 54.5218L93.0005 72.6957L74.4004 54.5218ZM111.601 54.5218L93.0005 72.6957L111.601 54.5218ZM130.201 54.5218L111.601 72.6957L130.201 54.5218ZM148.801 54.5218L130.201 72.6957L148.801 54.5218ZM167.401 54.5218L148.801 72.6957L167.401 54.5218ZM167.401 54.5218L186.001 72.6957L167.401 54.5218ZM186.001 54.5218L204.601 72.6957L186.001 54.5218ZM204.601 54.5218L223.201 72.6957L204.601 54.5218ZM223.201 54.5218L241.801 72.6957L223.201 54.5218ZM241.801 54.5218L260.401 72.6957L241.801 54.5218ZM260.401 54.5218L279.001 72.6957L260.401 54.5218ZM279.001 54.5218L297.601 72.6957L279.001 54.5218ZM297.601 54.5218L316.201 72.6957L297.601 54.5218ZM316.201 54.5218L334.801 72.6957L316.201 54.5218ZM353.401 54.5218L334.801 72.6957L353.401 54.5218ZM353.401 54.5218L372.001 72.6957L353.401 54.5218ZM390.599 54.5218L372.001 72.6957L390.599 54.5218ZM390.599 54.5218L409.201 72.6957L390.599 54.5218ZM409.201 54.5218L427.802 72.6957L409.201 54.5218ZM427.802 54.5218L446.399 72.6957L427.802 54.5218ZM465 54.5218L446.399 72.6957L465 54.5218ZM483.602 54.5218L465 72.6957L483.602 54.5218ZM483.602 54.5218L502.199 72.6957L483.602 54.5218ZM502.199 54.5218L520.8 72.6957L502.199 54.5218ZM539.402 54.5218L520.8 72.6957L539.402 54.5218ZM539.402 54.5218L558.003 72.6957L539.402 54.5218ZM558.003 54.5218L576.6 72.6957L558.003 54.5218ZM595.201 54.5218L576.6 72.6957L595.201 54.5218ZM613.803 54.5218L595.201 72.6957L613.803 54.5218ZM613.803 54.5218L632.4 72.6957L613.803 54.5218ZM632.4 54.5218L651.001 72.6957L632.4 54.5218ZM651.001 54.5218L669.603 72.6957L651.001 54.5218ZM669.603 54.5218L688.2 72.6957L669.603 54.5218ZM688.2 54.5218L706.801 72.6957L688.2 54.5218ZM706.801 54.5218L725.403 72.6957L706.801 54.5218ZM744 54.5218L725.403 72.6957L744 54.5218ZM18.6005 72.6957L0.00038435 90.8697L18.6005 72.6957ZM18.6005 72.6957L37.2006 90.8697L18.6005 72.6957ZM55.8007 72.6957L37.2006 90.8697L55.8007 72.6957ZM74.4004 72.6957L55.8007 90.8697L74.4004 72.6957ZM74.4004 72.6957L93.0005 90.8697L74.4004 72.6957ZM93.0005 72.6957L111.601 90.8697L93.0005 72.6957ZM111.601 72.6957L130.201 90.8697L111.601 72.6957ZM130.201 72.6957L148.801 90.8697L130.201 72.6957ZM148.801 72.6957L167.401 90.8697L148.801 72.6957ZM167.401 72.6957L186.001 90.8697L167.401 72.6957ZM186.001 72.6957L204.601 90.8697L186.001 72.6957ZM204.601 72.6957L223.201 90.8697L204.601 72.6957ZM223.201 72.6957L241.801 90.8697L223.201 72.6957ZM260.401 72.6957L241.801 90.8697L260.401 72.6957ZM260.401 72.6957L279.001 90.8697L260.401 72.6957ZM297.601 72.6957L279.001 90.8697L297.601 72.6957ZM297.601 72.6957L316.201 90.8697L297.601 72.6957ZM316.201 72.6957L334.801 90.8697L316.201 72.6957ZM334.801 72.6957L353.401 90.8697L334.801 72.6957ZM372.001 72.6957L353.401 90.8697L372.001 72.6957ZM372.001 72.6957L390.599 90.8697L372.001 72.6957ZM390.599 72.6957L409.201 90.8697L390.599 72.6957ZM409.201 72.6957L427.802 90.8697L409.201 72.6957ZM427.802 72.6957L446.399 90.8697L427.802 72.6957ZM446.399 72.6957L465 90.8697L446.399 72.6957ZM483.602 72.6957L465 90.8697L483.602 72.6957ZM502.199 72.6957L483.602 90.8697L502.199 72.6957ZM502.199 72.6957L520.8 90.8697L502.199 72.6957ZM520.8 72.6957L539.402 90.8697L520.8 72.6957ZM539.402 72.6957L558.003 90.8697L539.402 72.6957ZM558.003 72.6957L576.6 90.8697L558.003 72.6957ZM576.6 72.6957L595.201 90.8697L576.6 72.6957ZM595.201 72.6957L613.803 90.8697L595.201 72.6957ZM613.803 72.6957L632.4 90.8697L613.803 72.6957ZM632.4 72.6957L651.001 90.8697L632.4 72.6957ZM651.001 72.6957L669.603 90.8697L651.001 72.6957ZM688.2 72.6957L669.603 90.8697L688.2 72.6957ZM688.2 72.6957L706.801 90.8697L688.2 72.6957ZM706.801 72.6957L725.403 90.8697L706.801 72.6957ZM725.403 72.6957L744 90.8697L725.403 72.6957ZM0.00038435 90.8697L18.6005 109.043L0.00038435 90.8697ZM18.6005 90.8697L37.2006 109.043L18.6005 90.8697ZM55.8007 90.8697L74.4004 109.043L55.8007 90.8697ZM93.0005 90.8697L74.4004 109.043L93.0005 90.8697ZM93.0005 90.8697L111.601 109.043L93.0005 90.8697ZM111.601 90.8697L130.201 109.043L111.601 90.8697ZM130.201 90.8697L148.801 109.043L130.201 90.8697ZM167.401 90.8697L148.801 109.043L167.401 90.8697ZM167.401 90.8697L186.001 109.043L167.401 90.8697ZM204.601 90.8697L186.001 109.043L204.601 90.8697ZM204.601 90.8697L223.201 109.043L204.601 90.8697ZM223.201 90.8697L241.801 109.043L223.201 90.8697ZM241.801 90.8697L260.401 109.043L241.801 90.8697ZM260.401 90.8697L279.001 109.043L260.401 90.8697ZM279.001 90.8697L297.601 109.043L279.001 90.8697ZM316.201 90.8697L297.601 109.043L316.201 90.8697ZM316.201 90.8697L334.801 109.043L316.201 90.8697ZM334.801 90.8697L353.401 109.043L334.801 90.8697ZM353.401 90.8697L372.001 109.043L353.401 90.8697ZM372.001 90.8697L390.599 109.043L372.001 90.8697ZM390.599 90.8697L409.201 109.043L390.599 90.8697ZM409.201 90.8697L427.802 109.043L409.201 90.8697ZM446.399 90.8697L465 109.043L446.399 90.8697ZM465 90.8697L483.602 109.043L465 90.8697ZM483.602 90.8697L502.199 109.043L483.602 90.8697ZM520.8 90.8697L502.199 109.043L520.8 90.8697ZM520.8 90.8697L539.402 109.043L520.8 90.8697ZM558.003 90.8697L539.402 109.043L558.003 90.8697ZM558.003 90.8697L576.6 109.043L558.003 90.8697ZM576.6 90.8697L595.201 109.043L576.6 90.8697ZM595.201 90.8697L613.803 109.043L595.201 90.8697ZM632.4 90.8697L613.803 109.043L632.4 90.8697ZM632.4 90.8697L651.001 109.043L632.4 90.8697ZM669.603 90.8697L651.001 109.043L669.603 90.8697ZM669.603 90.8697L688.2 109.043L669.603 90.8697ZM688.2 90.8697L706.801 109.043L688.2 90.8697ZM706.801 90.8697L725.403 109.043L706.801 90.8697ZM725.403 90.8697L744 109.043L725.403 90.8697ZM0.00038435 109.043L18.6005 127.217L0.00038435 109.043ZM18.6005 109.043L37.2006 127.217L18.6005 109.043ZM74.4004 109.043L93.0005 127.217L74.4004 109.043ZM93.0005 109.043L111.601 127.217L93.0005 109.043ZM111.601 109.043L130.201 127.217L111.601 109.043ZM130.201 109.043L148.801 127.217L130.201 109.043ZM148.801 109.043L167.401 127.217L148.801 109.043ZM186.001 109.043L167.401 127.217L186.001 109.043ZM186.001 109.043L204.601 127.217L186.001 109.043ZM204.601 109.043L223.201 127.217L204.601 109.043ZM241.801 109.043L223.201 127.217L241.801 109.043ZM260.401 109.043L241.801 127.217L260.401 109.043ZM260.401 109.043L279.001 127.217L260.401 109.043ZM297.601 109.043L279.001 127.217L297.601 109.043ZM334.801 109.043L353.401 127.217L334.801 109.043ZM353.401 109.043L372 127.217L353.401 109.043ZM372.001 109.043L390.599 127.217L372.001 109.043ZM390.599 109.043L409.2 127.217L390.599 109.043ZM409.201 109.043L427.801 127.217L409.201 109.043ZM465 109.043L483.601 127.217L465 109.043ZM502.199 109.043L483.601 127.217L502.199 109.043ZM520.8 109.043L502.199 127.217L520.8 109.043ZM520.8 109.043L539.401 127.217L520.8 109.043ZM539.402 109.043L558.003 127.217L539.402 109.043ZM558.003 109.043L576.6 127.217L558.003 109.043ZM576.6 109.043L595.201 127.217L576.6 109.043ZM595.201 109.043L613.802 127.217L595.201 109.043ZM613.803 109.043L632.4 127.217L613.803 109.043ZM632.4 109.043L651.001 127.217L632.4 109.043ZM651.001 109.043L669.602 127.217L651.001 109.043ZM669.602 109.043L688.2 127.217L669.602 109.043ZM688.2 109.043L706.801 127.217L688.2 109.043ZM706.801 109.043L725.402 127.217L706.801 109.043ZM725.403 109.043L744 127.217L725.403 109.043ZM0 127.217L18.6001 145.391L0 127.217ZM18.6005 127.217L37.2002 145.391L18.6005 127.217ZM37.2006 127.217L55.8003 145.391L37.2006 127.217ZM74.4 127.217L55.8003 145.391L74.4 127.217ZM74.4 127.217L93.0001 145.391L74.4 127.217ZM93.0005 127.217L111.6 145.391L93.0005 127.217ZM130.2 127.217L111.6 145.391L130.2 127.217ZM130.2 127.217L148.8 145.391L130.2 127.217ZM148.8 127.217L167.4 145.391L148.8 127.217ZM167.4 127.217L186 145.391L167.4 127.217ZM186 127.217L204.6 145.391L186 127.217ZM204.601 127.217L223.2 145.391L204.601 127.217ZM223.201 127.217L241.8 145.391L223.201 127.217ZM241.801 127.217L260.401 145.391L241.801 127.217ZM353.401 127.217L372 145.391L353.401 127.217ZM372 127.217L390.599 145.391L372 127.217ZM390.599 127.217L409.2 145.391L390.599 127.217ZM409.2 127.217L427.801 145.391L409.2 127.217ZM427.801 127.217L446.399 145.391L427.801 127.217ZM465 127.217L446.399 145.391L465 127.217ZM465 127.217L483.601 145.391L465 127.217ZM483.601 127.217L502.199 145.391L483.601 127.217ZM502.199 127.217L520.8 145.391L502.199 127.217ZM576.6 127.217L558.003 145.391L576.6 127.217ZM576.6 127.217L595.201 145.391L576.6 127.217ZM613.802 127.217L595.201 145.391L613.802 127.217ZM613.802 127.217L632.4 145.391L613.802 127.217ZM632.4 127.217L651.001 145.391L632.4 127.217ZM651.001 127.217L669.602 145.391L651.001 127.217ZM669.602 127.217L688.2 145.391L669.602 127.217ZM688.2 127.217L706.801 145.391L688.2 127.217ZM725.402 127.217L706.801 145.391L725.402 127.217ZM725.402 127.217L744 145.391L725.402 127.217ZM0 145.391L18.6001 163.565L0 145.391ZM18.6001 145.391L37.2002 163.565L18.6001 145.391ZM55.8003 145.391L37.2002 163.565L55.8003 145.391ZM55.8007 145.391L74.4004 163.565L55.8007 145.391ZM74.4004 145.391L93.0005 163.565L74.4004 145.391ZM111.6 145.391L93.0005 163.565L111.6 145.391ZM111.6 145.391L130.201 163.565L111.6 145.391ZM130.201 145.391L148.801 163.565L130.201 145.391ZM167.401 145.391L148.801 163.565L167.401 145.391ZM167.401 145.391L186.001 163.565L167.401 145.391ZM186 145.391L204.601 163.565L186 145.391ZM204.6 145.391L223.201 163.565L204.6 145.391ZM223.2 145.391L241.801 163.565L223.2 145.391ZM241.8 145.391L260.401 163.565L241.8 145.391ZM260.401 145.391L279.001 163.565L260.401 145.391ZM372 145.391L390.599 163.565L372 145.391ZM409.2 145.391L390.599 163.565L409.2 145.391ZM409.2 145.391L427.802 163.565L409.2 145.391ZM427.801 145.391L446.399 163.565L427.801 145.391ZM446.399 145.391L465 163.565L446.399 145.391ZM483.601 145.391L465 163.565L483.601 145.391ZM483.601 145.391L502.199 163.565L483.601 145.391ZM502.199 145.391L520.8 163.565L502.199 145.391ZM520.8 145.391L539.402 163.565L520.8 145.391ZM558.003 145.391L539.402 163.565L558.003 145.391ZM558.003 145.391L576.6 163.565L558.003 145.391ZM576.6 145.391L595.201 163.565L576.6 145.391ZM595.201 145.391L613.803 163.565L595.201 145.391ZM613.803 145.391L632.4 163.565L613.803 145.391ZM632.4 145.391L651.001 163.565L632.4 145.391ZM651.001 145.391L669.603 163.565L651.001 145.391ZM669.603 145.391L688.2 163.565L669.603 145.391ZM706.801 145.391L688.2 163.565L706.801 145.391ZM725.403 145.391L706.801 163.565L725.403 145.391ZM744 145.391L725.403 163.565L744 145.391ZM0.00038435 163.565L18.6005 181.739L0.00038435 163.565ZM37.2002 163.565L18.6005 181.739L37.2002 163.565ZM37.2002 163.565L55.8007 181.739L37.2002 163.565ZM55.8007 163.565L74.4004 181.739L55.8007 163.565ZM74.4004 163.565L93.0005 181.739L74.4004 163.565ZM93.0005 163.565L111.601 181.739L93.0005 163.565ZM111.601 163.565L130.201 181.739L111.601 163.565ZM130.201 163.565L148.801 181.739L130.201 163.565ZM167.401 163.565L148.801 181.739L167.401 163.565ZM186.001 163.565L167.401 181.739L186.001 163.565ZM204.601 163.565L186.001 181.739L204.601 163.565ZM204.601 163.565L223.201 181.739L204.601 163.565ZM223.201 163.565L241.801 181.739L223.201 163.565ZM241.801 163.565L260.401 181.739L241.801 163.565ZM260.401 163.565L279.001 181.739L260.401 163.565ZM279.001 163.565L297.601 181.739L279.001 163.565ZM372.001 163.565L390.599 181.739L372.001 163.565ZM390.599 163.565L409.201 181.739L390.599 163.565ZM409.201 163.565L427.802 181.739L409.201 163.565ZM446.399 163.565L427.802 181.739L446.399 163.565ZM446.399 163.565L465 181.739L446.399 163.565ZM465 163.565L483.602 181.739L465 163.565ZM483.602 163.565L502.199 181.739L483.602 163.565ZM502.199 163.565L520.8 181.739L502.199 163.565ZM520.8 163.565L539.402 181.739L520.8 163.565ZM539.402 163.565L558.003 181.739L539.402 163.565ZM558.003 163.565L576.6 181.739L558.003 163.565ZM576.6 163.565L595.201 181.739L576.6 163.565ZM613.803 163.565L595.201 181.739L613.803 163.565ZM613.803 163.565L632.4 181.739L613.803 163.565ZM632.4 163.565L651.001 181.739L632.4 163.565ZM651.001 163.565L669.603 181.739L651.001 163.565ZM669.603 163.565L688.2 181.739L669.603 163.565ZM688.2 163.565L706.801 181.739L688.2 163.565ZM706.801 163.565L725.403 181.739L706.801 163.565ZM744 163.565L725.403 181.739L744 163.565ZM0.00038435 181.739L18.6005 199.912L0.00038435 181.739ZM18.6005 181.739L37.2006 199.912L18.6005 181.739ZM37.2006 181.739L55.8007 199.912L37.2006 181.739ZM55.8007 181.739L74.4004 199.912L55.8007 181.739ZM74.4004 181.739L93.0005 199.912L74.4004 181.739ZM93.0005 181.739L111.601 199.912L93.0005 181.739ZM111.601 181.739L130.201 199.912L111.601 181.739ZM148.801 181.739L130.201 199.912L148.801 181.739ZM167.401 181.739L148.801 199.912L167.401 181.739ZM167.401 181.739L186.001 199.912L167.401 181.739ZM186.001 181.739L204.601 199.912L186.001 181.739ZM204.601 181.739L223.201 199.912L204.601 181.739ZM223.201 181.739L241.801 199.912L223.201 181.739ZM260.401 181.739L241.801 199.912L260.401 181.739ZM260.401 181.739L279.001 199.912L260.401 181.739ZM279.001 181.739L297.601 199.912L279.001 181.739ZM297.601 181.739L316.201 199.912L297.601 181.739ZM334.801 181.739L316.201 199.912L334.801 181.739ZM334.801 181.739L353.401 199.912L334.801 181.739ZM372.001 181.739L390.599 199.912L372.001 181.739ZM390.599 181.739L409.201 199.912L390.599 181.739ZM409.201 181.739L427.802 199.912L409.201 181.739ZM427.802 181.739L446.399 199.912L427.802 181.739ZM446.399 181.739L465 199.912L446.399 181.739ZM465 181.739L483.602 199.912L465 181.739ZM483.602 181.739L502.199 199.912L483.602 181.739ZM502.199 181.739L520.8 199.912L502.199 181.739ZM520.8 181.739L539.402 199.912L520.8 181.739ZM558.003 181.739L539.402 199.912L558.003 181.739ZM576.6 181.739L558.003 199.912L576.6 181.739ZM576.6 181.739L595.201 199.912L576.6 181.739ZM595.201 181.739L613.803 199.912L595.201 181.739ZM613.803 181.739L632.4 199.912L613.803 181.739ZM651.001 181.739L632.4 199.912L651.001 181.739ZM651.001 181.739L669.603 199.912L651.001 181.739ZM669.603 181.739L688.2 199.912L669.603 181.739ZM688.2 181.739L706.801 199.912L688.2 181.739ZM706.801 181.739L725.403 199.912L706.801 181.739ZM725.403 181.739L744 199.912L725.403 181.739ZM0.00038435 199.912L18.6005 218.086L0.00038435 199.912ZM18.6005 199.912L37.2006 218.086L18.6005 199.912ZM37.2006 199.912L55.8007 218.086L37.2006 199.912ZM55.8007 199.912L74.4004 218.086L55.8007 199.912ZM74.4004 199.912L93.0005 218.086L74.4004 199.912ZM93.0005 199.912L111.601 218.086L93.0005 199.912ZM130.201 199.912L111.601 218.086L130.201 199.912ZM130.201 199.912L148.801 218.086L130.201 199.912ZM167.401 199.912L148.801 218.086L167.401 199.912ZM167.401 199.912L186.001 218.086L167.401 199.912ZM186.001 199.912L204.601 218.086L186.001 199.912ZM204.601 199.912L223.201 218.086L204.601 199.912ZM241.801 199.912L223.201 218.086L241.801 199.912ZM260.401 199.912L241.801 218.086L260.401 199.912ZM260.401 199.912L279.001 218.086L260.401 199.912ZM279.001 199.912L297.601 218.086L279.001 199.912ZM297.601 199.912L316.201 218.086L297.601 199.912ZM316.201 199.912L334.801 218.086L316.201 199.912ZM334.801 199.912L353.401 218.086L334.801 199.912ZM353.401 199.912L372.001 218.086L353.401 199.912ZM372.001 199.912L390.599 218.086L372.001 199.912ZM390.599 199.912L409.201 218.086L390.599 199.912ZM409.201 199.912L427.802 218.086L409.201 199.912ZM427.802 199.912L446.399 218.086L427.802 199.912ZM446.399 199.912L465 218.086L446.399 199.912ZM465 199.912L483.602 218.086L465 199.912ZM483.602 199.912L502.199 218.086L483.602 199.912ZM502.199 199.912L512.49 209.849L502.199 199.912ZM558.003 199.912L576.6 218.086L558.003 199.912ZM576.6 199.912L595.201 218.086L576.6 199.912ZM595.201 199.912L613.803 218.086L595.201 199.912ZM613.803 199.912L632.4 218.086L613.803 199.912ZM632.4 199.912L651.001 218.086L632.4 199.912ZM669.603 199.912L651.001 218.086L669.603 199.912ZM688.2 199.912L669.603 218.086L688.2 199.912ZM688.2 199.912L706.801 218.086L688.2 199.912ZM725.403 199.912L706.801 218.086L725.403 199.912ZM725.403 199.912L744 218.086L725.403 199.912ZM0.00038435 218.086L18.6005 236.26L0.00038435 218.086ZM18.6005 218.086L37.2006 236.26L18.6005 218.086ZM37.2006 218.086L55.8007 236.26L37.2006 218.086ZM74.4004 218.086L93.0005 236.26L74.4004 218.086ZM93.0005 218.086L111.601 236.26L93.0005 218.086ZM111.601 218.086L130.201 236.26L111.601 218.086ZM130.201 218.086L148.801 236.26L130.201 218.086ZM204.601 218.086L223.201 236.26L204.601 218.086ZM223.201 218.086L241.801 236.26L223.201 218.086ZM241.801 218.086L260.401 236.26L241.801 218.086ZM260.401 218.086L279.001 236.26L260.401 218.086ZM279.001 218.086L297.601 236.26L279.001 218.086ZM297.601 218.086L316.201 236.26L297.601 218.086ZM316.201 218.086L334.801 236.26L316.201 218.086ZM334.801 218.086L353.401 236.26L334.801 218.086ZM353.401 218.086L372.001 236.26L353.401 218.086ZM390.599 218.086L372.001 236.26L390.599 218.086ZM390.599 218.086L409.201 236.26L390.599 218.086ZM409.201 218.086L427.802 236.26L409.201 218.086ZM427.802 218.086L446.399 236.26L427.802 218.086ZM446.399 218.086L465 236.26L446.399 218.086ZM465 218.086L483.602 236.26L465 218.086ZM483.602 218.086L502.199 236.26L483.602 218.086ZM558.003 218.086L576.6 236.26L558.003 218.086ZM595.201 218.086L576.6 236.26L595.201 218.086ZM595.201 218.086L613.803 236.26L595.201 218.086ZM613.803 218.086L632.4 236.26L613.803 218.086ZM651.001 218.086L632.4 236.26L651.001 218.086ZM669.603 218.086L651.001 236.26L669.603 218.086ZM688.2 218.086L669.603 236.26L688.2 218.086ZM688.2 218.086L706.801 236.26L688.2 218.086ZM706.801 218.086L725.403 236.26L706.801 218.086ZM744 218.086L725.403 236.26L744 218.086ZM0.00038435 236.26L18.6005 254.434L0.00038435 236.26ZM18.6005 236.26L37.2006 254.434L18.6005 236.26ZM37.2006 236.26L55.8007 254.434L37.2006 236.26ZM55.8007 236.26L74.4004 254.434L55.8007 236.26ZM93.0005 236.26L111.601 254.434L93.0005 236.26ZM111.601 236.26L130.201 254.434L111.601 236.26ZM130.201 236.26L148.801 254.434L130.201 236.26ZM148.801 236.26L167.401 254.434L148.801 236.26ZM204.601 236.26L186.001 254.434L204.601 236.26ZM204.601 236.26L223.201 254.434L204.601 236.26ZM241.801 236.26L223.201 254.434L241.801 236.26ZM241.801 236.26L260.401 254.434L241.801 236.26ZM279.001 236.26L260.401 254.434L279.001 236.26ZM279.001 236.26L297.601 254.434L279.001 236.26ZM297.601 236.26L316.201 254.434L297.601 236.26ZM334.801 236.26L316.201 254.434L334.801 236.26ZM334.801 236.26L353.401 254.434L334.801 236.26ZM372.001 236.26L353.401 254.434L372.001 236.26ZM372.001 236.26L390.599 254.434L372.001 236.26ZM409.201 236.26L390.599 254.434L409.201 236.26ZM409.201 236.26L427.802 254.434L409.201 236.26ZM427.802 236.26L446.399 254.434L427.802 236.26ZM465 236.26L446.399 254.434L465 236.26ZM465 236.26L483.602 254.434L465 236.26ZM502.199 236.26L483.602 254.434L502.199 236.26ZM576.6 236.26L595.201 254.434L576.6 236.26ZM595.201 236.26L613.803 254.434L595.201 236.26ZM613.803 236.26L632.4 254.434L613.803 236.26ZM632.4 236.26L651.001 254.434L632.4 236.26ZM651.001 236.26L669.603 254.434L651.001 236.26ZM669.603 236.26L688.2 254.434L669.603 236.26ZM688.2 236.26L706.801 254.434L688.2 236.26ZM0.00038435 254.434L18.6005 272.608L0.00038435 254.434ZM18.6005 254.434L37.2006 272.608L18.6005 254.434ZM37.2006 254.434L55.8007 272.608L37.2006 254.434ZM55.8007 254.434L74.4004 272.608L55.8007 254.434ZM74.4004 254.434L93.0005 272.608L74.4004 254.434ZM93.0005 254.434L111.601 272.608L93.0005 254.434ZM111.601 254.434L130.201 272.608L111.601 254.434ZM130.201 254.434L148.801 272.608L130.201 254.434ZM148.801 254.434L167.401 272.608L148.801 254.434ZM186.001 254.434L167.401 272.608L186.001 254.434ZM204.601 254.434L186.001 272.608L204.601 254.434ZM204.601 254.434L223.201 272.608L204.601 254.434ZM223.201 254.434L241.801 272.608L223.201 254.434ZM241.801 254.434L260.401 272.608L241.801 254.434ZM260.401 254.434L279.001 272.608L260.401 254.434ZM279.001 254.434L297.601 272.608L279.001 254.434ZM297.601 254.434L316.201 272.608L297.601 254.434ZM353.401 254.434L372.001 272.608L353.401 254.434ZM372.001 254.434L390.599 272.608L372.001 254.434ZM390.599 254.434L409.201 272.608L390.599 254.434ZM409.201 254.434L427.802 272.608L409.201 254.434ZM446.399 254.434L427.802 272.608L446.399 254.434ZM446.399 254.434L465 272.608L446.399 254.434ZM483.602 254.434L465 272.608L483.602 254.434ZM483.602 254.434L502.199 272.608L483.602 254.434ZM595.201 254.434L576.6 272.608L595.201 254.434ZM595.201 254.434L613.803 272.608L595.201 254.434ZM613.803 254.434L632.4 272.608L613.803 254.434ZM632.4 254.434L651.001 272.608L632.4 254.434ZM669.603 254.434L651.001 272.608L669.603 254.434ZM669.603 254.434L688.2 272.608L669.603 254.434ZM688.2 254.434L706.801 272.608L688.2 254.434ZM18.6005 272.608L0.00038435 290.782L18.6005 272.608ZM37.2006 272.608L18.6005 290.782L37.2006 272.608ZM37.2006 272.608L55.8007 290.782L37.2006 272.608ZM55.8007 272.608L74.4004 290.782L55.8007 272.608ZM74.4004 272.608L93.0005 290.782L74.4004 272.608ZM93.0005 272.608L111.601 290.782L93.0005 272.608ZM111.601 272.608L130.201 290.782L111.601 272.608ZM148.801 272.608L130.201 290.782L148.801 272.608ZM148.801 272.608L167.401 290.782L148.801 272.608ZM186.001 272.608L167.401 290.782L186.001 272.608ZM186.001 272.608L204.601 290.782L186.001 272.608ZM204.601 272.608L223.201 290.782L204.601 272.608ZM223.201 272.608L241.801 290.782L223.201 272.608ZM260.401 272.608L241.801 290.782L260.401 272.608ZM260.401 272.608L279.001 290.782L260.401 272.608ZM279.001 272.608L297.601 290.782L279.001 272.608ZM297.601 272.608L316.201 290.782L297.601 272.608ZM390.599 272.608L372.001 290.782L390.599 272.608ZM390.599 272.608L409.201 290.782L390.599 272.608ZM409.201 272.608L427.802 290.782L409.201 272.608ZM427.802 272.608L446.399 290.782L427.802 272.608ZM446.399 272.608L465 290.782L446.399 272.608ZM465 272.608L483.602 290.782L465 272.608ZM502.199 272.608L483.602 290.782L502.199 272.608ZM502.199 272.608L520.8 290.782L502.199 272.608ZM529.795 281.618L539.402 290.782L529.795 281.618ZM539.402 272.608L558.003 290.782L539.402 272.608ZM576.6 272.608L558.003 290.782L576.6 272.608ZM576.6 272.608L595.201 290.782L576.6 272.608ZM595.201 272.608L613.803 290.782L595.201 272.608ZM632.4 272.608L613.803 290.782L632.4 272.608ZM632.4 272.608L651.001 290.782L632.4 272.608ZM669.603 272.608L651.001 290.782L669.603 272.608ZM669.603 272.608L688.2 290.782L669.603 272.608ZM688.2 272.608L706.801 290.782L688.2 272.608ZM706.801 272.608L725.403 290.782L706.801 272.608ZM725.403 272.608L744 290.782L725.403 272.608ZM0.00038435 290.782L18.6005 308.956L0.00038435 290.782ZM18.6005 290.782L37.2006 308.956L18.6005 290.782ZM37.2006 290.782L55.8007 308.956L37.2006 290.782ZM55.8007 290.782L74.4004 308.956L55.8007 290.782ZM93.0005 290.782L74.4004 308.956L93.0005 290.782ZM111.601 290.782L93.0005 308.956L111.601 290.782ZM111.601 290.782L130.201 308.956L111.601 290.782ZM148.801 290.782L130.201 308.956L148.801 290.782ZM148.801 290.782L167.401 308.956L148.801 290.782ZM167.401 290.782L186.001 308.956L167.401 290.782ZM186.001 290.782L204.601 308.956L186.001 290.782ZM204.601 290.782L223.201 308.956L204.601 290.782ZM223.201 290.782L241.801 308.956L223.201 290.782ZM241.801 290.782L260.401 308.956L241.801 290.782ZM260.401 290.782L279.001 308.956L260.401 290.782ZM297.601 290.782L279.001 308.956L297.601 290.782ZM297.601 290.782L316.201 308.956L297.601 290.782ZM316.201 290.782L334.801 308.956L316.201 290.782ZM334.801 290.782L353.401 308.956L334.801 290.782ZM353.401 290.782L372.001 308.956L353.401 290.782ZM372.001 290.782L390.599 308.956L372.001 290.782ZM390.599 290.782L409.201 308.956L390.599 290.782ZM409.201 290.782L427.802 308.956L409.201 290.782ZM427.802 290.782L446.399 308.956L427.802 290.782ZM446.399 290.782L465 308.956L446.399 290.782ZM465 290.782L483.602 308.956L465 290.782ZM483.602 290.782L502.199 308.956L483.602 290.782ZM502.199 290.782L520.8 308.956L502.199 290.782ZM520.8 290.782L539.402 308.956L520.8 290.782ZM539.402 290.782L558.003 308.956L539.402 290.782ZM558.003 290.782L576.6 308.956L558.003 290.782ZM595.201 290.782L576.6 308.956L595.201 290.782ZM595.201 290.782L613.803 308.956L595.201 290.782ZM613.803 290.782L632.4 308.956L613.803 290.782ZM632.4 290.782L651.001 308.956L632.4 290.782ZM651.001 290.782L669.603 308.956L651.001 290.782ZM669.603 290.782L688.2 308.956L669.603 290.782ZM688.2 290.782L706.801 308.956L688.2 290.782ZM725.403 290.782L706.801 308.956L725.403 290.782ZM725.403 290.782L744 308.956L725.403 290.782ZM0.00038435 308.956L18.6005 327.13L0.00038435 308.956ZM18.6005 308.956L37.2006 327.13L18.6005 308.956ZM55.8007 308.956L37.2006 327.13L55.8007 308.956ZM55.8007 308.956L74.4004 327.13L55.8007 308.956ZM74.4004 308.956L93.0005 327.13L74.4004 308.956ZM111.601 308.956L93.0005 327.13L111.601 308.956ZM111.601 308.956L130.201 327.13L111.601 308.956ZM130.201 308.956L148.801 327.13L130.201 308.956ZM148.801 308.956L167.401 327.13L148.801 308.956ZM167.401 308.956L186.001 327.13L167.401 308.956ZM186.001 308.956L204.601 327.13L186.001 308.956ZM204.601 308.956L223.201 327.13L204.601 308.956ZM223.201 308.956L241.801 327.13L223.201 308.956ZM241.801 308.956L260.401 327.13L241.801 308.956ZM260.401 308.956L279.001 327.13L260.401 308.956ZM279.001 308.956L297.601 327.13L279.001 308.956ZM316.201 308.956L297.601 327.13L316.201 308.956ZM334.801 308.956L316.201 327.13L334.801 308.956ZM334.801 308.956L353.401 327.13L334.801 308.956ZM372.001 308.956L353.401 327.13L372.001 308.956ZM372.001 308.956L390.599 327.13L372.001 308.956ZM390.599 308.956L409.201 327.13L390.599 308.956ZM409.201 308.956L427.802 327.13L409.201 308.956ZM446.399 308.956L427.802 327.13L446.399 308.956ZM465 308.956L446.399 327.13L465 308.956ZM483.602 308.956L465 327.13L483.602 308.956ZM483.602 308.956L502.199 327.13L483.602 308.956ZM502.199 308.956L520.8 327.13L502.199 308.956ZM520.8 308.956L539.402 327.13L520.8 308.956ZM539.402 308.956L558.003 327.13L539.402 308.956ZM558.003 308.956L576.6 327.13L558.003 308.956ZM576.6 308.956L595.201 327.13L576.6 308.956ZM595.201 308.956L613.803 327.13L595.201 308.956ZM613.803 308.956L632.4 327.13L613.803 308.956ZM632.4 308.956L651.001 327.13L632.4 308.956ZM651.001 308.956L669.603 327.13L651.001 308.956ZM669.603 308.956L688.2 327.13L669.603 308.956ZM688.2 308.956L706.801 327.13L688.2 308.956ZM706.801 308.956L725.403 327.13L706.801 308.956ZM725.403 308.956L744 327.13L725.403 308.956ZM18.6012 327.13L0.00038435 345.304L18.6012 327.13ZM18.6005 327.13L37.2006 345.304L18.6005 327.13ZM37.2006 327.13L55.8007 345.304L37.2006 327.13ZM74.4004 327.13L55.8007 345.304L74.4004 327.13ZM74.4004 327.13L93.0005 345.304L74.4004 327.13ZM111.601 327.13L93.0005 345.304L111.601 327.13ZM111.601 327.13L130.201 345.304L111.601 327.13ZM130.201 327.13L148.801 345.304L130.201 327.13ZM167.401 327.13L148.801 345.304L167.401 327.13ZM167.401 327.13L186.001 345.304L167.401 327.13ZM204.601 327.13L186.001 345.304L204.601 327.13ZM204.601 327.13L223.201 345.304L204.601 327.13ZM223.201 327.13L241.801 345.304L223.201 327.13ZM260.401 327.13L241.801 345.304L260.401 327.13ZM260.401 327.13L279.001 345.304L260.401 327.13ZM279.001 327.13L297.601 345.304L279.001 327.13ZM297.601 327.13L316.201 345.304L297.601 327.13ZM316.201 327.13L334.801 345.304L316.201 327.13ZM334.801 327.13L353.401 345.304L334.801 327.13ZM353.401 327.13L372.001 345.304L353.401 327.13ZM390.599 327.13L372.001 345.304L390.599 327.13ZM390.599 327.13L409.201 345.304L390.599 327.13ZM409.201 327.13L427.802 345.304L409.201 327.13ZM427.802 327.13L446.399 345.304L427.802 327.13ZM446.399 327.13L465 345.304L446.399 327.13ZM465 327.13L483.602 345.304L465 327.13ZM483.602 327.13L502.199 345.304L483.602 327.13ZM502.199 327.13L520.8 345.304L502.199 327.13ZM520.8 327.13L539.402 345.304L520.8 327.13ZM539.402 327.13L558.003 345.304L539.402 327.13ZM558.003 327.13L576.6 345.304L558.003 327.13ZM576.6 327.13L595.201 345.304L576.6 327.13ZM595.201 327.13L613.803 345.304L595.201 327.13ZM632.4 327.13L613.803 345.304L632.4 327.13ZM632.4 327.13L651.001 345.304L632.4 327.13ZM651.001 327.13L669.603 345.304L651.001 327.13ZM669.603 327.13L688.2 345.304L669.603 327.13ZM688.2 327.13L706.801 345.304L688.2 327.13ZM725.403 327.13L706.801 345.304L725.403 327.13ZM725.403 327.13L744 345.304L725.403 327.13ZM0.00038435 345.304L18.6005 363.477L0.00038435 345.304ZM18.6005 345.304L37.2006 363.477L18.6005 345.304ZM55.8007 345.304L37.2006 363.477L55.8007 345.304ZM55.8007 345.304L74.4004 363.477L55.8007 345.304ZM74.4004 345.304L93.0005 363.477L74.4004 345.304ZM93.0005 345.304L111.601 363.477L93.0005 345.304ZM111.601 345.304L130.201 363.477L111.601 345.304ZM130.201 345.304L148.801 363.477L130.201 345.304ZM148.801 345.304L167.401 363.477L148.801 345.304ZM167.401 345.304L186.001 363.477L167.401 345.304ZM186.001 345.304L204.601 363.477L186.001 345.304ZM204.601 345.304L223.201 363.477L204.601 345.304ZM223.201 345.304L241.801 363.477L223.201 345.304ZM241.801 345.304L260.401 363.477L241.801 345.304ZM260.401 345.304L279.001 363.477L260.401 345.304ZM279.001 345.304L297.601 363.477L279.001 345.304ZM297.601 345.304L316.201 363.477L297.601 345.304ZM316.201 345.304L334.801 363.477L316.201 345.304ZM334.801 345.304L353.401 363.477L334.801 345.304ZM353.401 345.304L372.001 363.477L353.401 345.304ZM372.001 345.304L390.599 363.477L372.001 345.304ZM409.201 345.304L390.599 363.477L409.201 345.304ZM409.201 345.304L427.802 363.477L409.201 345.304ZM427.802 345.304L446.399 363.477L427.802 345.304ZM446.399 345.304L465 363.477L446.399 345.304ZM465 345.304L483.602 363.477L465 345.304ZM502.199 345.304L483.602 363.477L502.199 345.304ZM502.199 345.304L520.8 363.477L502.199 345.304ZM520.8 345.304L539.402 363.477L520.8 345.304ZM576.6 345.304L595.201 363.477L576.6 345.304ZM595.201 345.304L613.803 363.477L595.201 345.304ZM632.4 345.304L613.803 363.477L632.4 345.304ZM632.4 345.304L651.001 363.477L632.4 345.304ZM651.001 345.304L669.603 363.477L651.001 345.304ZM669.603 345.304L688.2 363.477L669.603 345.304ZM688.2 345.304L706.801 363.477L688.2 345.304ZM725.403 345.304L706.801 363.477L725.403 345.304ZM725.403 345.304L744 363.477L725.403 345.304ZM18.6012 363.477L0.00115378 381.651L18.6012 363.477ZM18.6012 363.477L37.2013 381.651L18.6012 363.477ZM37.2013 363.477L55.8014 381.651L37.2013 363.477ZM74.4012 363.477L55.8014 381.651L74.4012 363.477ZM93.0012 363.477L74.4012 381.651L93.0012 363.477ZM93.0012 363.477L111.601 381.651L93.0012 363.477ZM111.601 363.477L130.201 381.651L111.601 363.477ZM130.201 363.477L148.802 381.651L130.201 363.477ZM148.802 363.477L167.402 381.651L148.802 363.477ZM167.402 363.477L186.001 381.651L167.402 363.477ZM186.001 363.477L204.601 381.651L186.001 363.477ZM204.601 363.477L223.202 381.651L204.601 363.477ZM223.202 363.477L241.802 381.651L223.202 363.477ZM241.802 363.477L260.402 381.651L241.802 363.477ZM260.402 363.477L279.001 381.651L260.402 363.477ZM279.001 363.477L297.602 381.651L279.001 363.477ZM316.202 363.477L297.601 381.651L316.202 363.477ZM316.201 363.477L334.801 381.651L316.201 363.477ZM353.401 363.477L334.801 381.651L353.401 363.477ZM372.001 363.477L353.401 381.651L372.001 363.477ZM372.001 363.477L390.599 381.651L372.001 363.477ZM390.599 363.477L409.201 381.651L390.599 363.477ZM409.201 363.477L427.802 381.651L409.201 363.477ZM427.802 363.477L446.399 381.651L427.802 363.477ZM446.399 363.477L465 381.651L446.399 363.477ZM465 363.477L483.602 381.651L465 363.477ZM483.602 363.477L502.199 381.651L483.602 363.477ZM502.199 363.477L520.8 381.651L502.199 363.477ZM520.8 363.477L539.402 381.651L520.8 363.477ZM595.201 363.477L613.803 381.651L595.201 363.477ZM632.4 363.477L613.803 381.651L632.4 363.477ZM632.4 363.477L651.001 381.651L632.4 363.477ZM669.603 363.477L651.001 381.651L669.603 363.477ZM669.603 363.477L688.2 381.651L669.603 363.477ZM688.2 363.477L706.801 381.651L688.2 363.477ZM706.801 363.477L725.403 381.651L706.801 363.477ZM725.403 363.477L744 381.651L725.403 363.477ZM0.00038435 381.651L18.6005 399.825L0.00038435 381.651ZM37.2006 381.651L18.6005 399.825L37.2006 381.651ZM37.2006 381.651L55.8007 399.825L37.2006 381.651ZM55.8007 381.651L74.4004 399.825L55.8007 381.651ZM74.4004 381.651L93.0005 399.825L74.4004 381.651ZM93.0005 381.651L111.601 399.825L93.0005 381.651ZM111.601 381.651L130.201 399.825L111.601 381.651ZM130.201 381.651L148.801 399.825L130.201 381.651ZM148.801 381.651L167.401 399.825L148.801 381.651ZM167.401 381.651L186.001 399.825L167.401 381.651ZM186.001 381.651L204.601 399.825L186.001 381.651ZM223.201 381.651L204.601 399.825L223.201 381.651ZM223.201 381.651L241.801 399.825L223.201 381.651ZM241.801 381.651L260.401 399.825L241.801 381.651ZM260.401 381.651L279.001 399.825L260.401 381.651ZM297.601 381.651L279.001 399.825L297.601 381.651ZM297.601 381.651L316.201 399.825L297.601 381.651ZM334.801 381.651L316.201 399.825L334.801 381.651ZM353.401 381.651L334.801 399.825L353.401 381.651ZM353.401 381.651L372.001 399.825L353.401 381.651ZM390.599 381.651L372.001 399.825L390.599 381.651ZM390.599 381.651L409.201 399.825L390.599 381.651ZM409.201 381.651L427.802 399.825L409.201 381.651ZM446.399 381.651L427.802 399.825L446.399 381.651ZM446.399 381.651L465 399.825L446.399 381.651ZM465 381.651L483.602 399.825L465 381.651ZM483.602 381.651L502.199 399.825L483.602 381.651ZM502.199 381.651L520.8 399.825L502.199 381.651ZM520.8 381.651L539.402 399.825L520.8 381.651ZM595.201 381.651L613.803 399.825L595.201 381.651ZM613.803 381.651L632.4 399.825L613.803 381.651ZM651.001 381.651L632.4 399.825L651.001 381.651ZM651.001 381.651L669.603 399.825L651.001 381.651ZM669.603 381.651L688.2 399.825L669.603 381.651ZM688.2 381.651L706.801 399.825L688.2 381.651ZM725.403 381.651L706.801 399.825L725.403 381.651ZM725.403 381.651L744 399.825L725.403 381.651ZM0.00038435 399.825L18.6005 418L0.00038435 399.825ZM18.6005 399.825L37.2006 418L18.6005 399.825ZM37.2006 399.825L55.8007 418L37.2006 399.825ZM55.8007 399.825L74.4004 418L55.8007 399.825ZM74.4004 399.825L93.0005 418L74.4004 399.825ZM93.0005 399.825L111.601 418L93.0005 399.825ZM111.601 399.825L130.201 418L111.601 399.825ZM130.201 399.825L148.801 418L130.201 399.825ZM167.401 399.825L148.801 418L167.401 399.825ZM167.401 399.825L186.001 418L167.401 399.825ZM186.001 399.825L204.601 418L186.001 399.825ZM204.601 399.825L223.201 418L204.601 399.825ZM223.201 399.825L241.801 418L223.201 399.825ZM260.401 399.825L241.801 418L260.401 399.825ZM279.001 399.825L260.401 418L279.001 399.825ZM279.001 399.825L297.601 418L279.001 399.825ZM297.601 399.825L316.201 418L297.601 399.825ZM316.201 399.825L334.801 418L316.201 399.825ZM334.801 399.825L353.401 418L334.801 399.825ZM372.001 399.825L353.401 418L372.001 399.825ZM390.599 399.825L372.001 418L390.599 399.825ZM390.599 399.825L409.201 418L390.599 399.825ZM427.802 399.825L409.201 418L427.802 399.825ZM446.399 399.825L427.802 418L446.399 399.825ZM446.399 399.825L465 418L446.399 399.825ZM465 399.825L483.602 418L465 399.825ZM483.602 399.825L502.199 418L483.602 399.825ZM502.199 399.825L520.8 418L502.199 399.825ZM520.8 399.825L539.402 418L520.8 399.825ZM539.402 399.825L558.003 418L539.402 399.825ZM558.003 399.825L576.6 418L558.003 399.825ZM595.201 399.825L576.6 418L595.201 399.825ZM595.201 399.825L613.803 418L595.201 399.825ZM632.4 399.825L613.803 418L632.4 399.825ZM632.4 399.825L651.001 418L632.4 399.825ZM651.001 399.825L669.603 418L651.001 399.825ZM688.2 399.825L669.603 418L688.2 399.825ZM706.801 399.825L688.2 418L706.801 399.825ZM706.801 399.825L725.403 418L706.801 399.825ZM725.403 399.825L744 418L725.403 399.825ZM502.199 181.739L520.8 199.912L502.199 181.739Z" fill="url(#paint0_linear_4364_13797)"/>
<path d="M37.2006 18.1739L18.6005 0.000375544L0.00038435 18.1739L18.6005 36.3479L37.2006 54.5218M37.2006 0L55.8007 18.1739M55.8007 18.1739L37.2006 36.3479M55.8007 18.1739L74.4004 36.3479L93.0005 54.5218L111.601 36.3479L93.0005 18.1739M55.8007 0L74.4004 18.1739L93.0005 36.3479M74.4004 0L93.0005 18.1739M93.0005 18.1739L111.601 0M148.801 18.1739L130.201 0L111.601 18.1739L130.201 36.3479M148.801 0L167.401 18.1739M167.401 18.1739L148.801 36.3479M167.401 18.1739L186.001 36.3479M167.401 0L186.001 18.1739L204.601 0M204.601 18.1739L223.201 0L241.801 18.1739L260.401 36.3479M204.601 18.1739L186.001 36.3479M204.601 18.1739L223.201 36.3479L241.801 54.5218L260.401 72.6957M241.801 0L260.401 18.1739L279.001 36.3479L260.401 54.5218M260.401 0L279.001 18.1739L297.601 36.3479M279.001 0L297.601 18.1739L316.201 36.3479L334.801 54.5218M297.601 0L316.201 18.1739L334.801 36.3479M316.201 0L334.801 18.1739M334.801 0L353.401 18.1739L334.801 36.3479M353.401 0L372.001 18.1739M372.001 18.1739L353.401 36.3479M372.001 18.1739L390.599 36.3479M372.001 0L390.599 18.1739M390.599 0L409.201 18.1739M409.201 18.1739L390.599 36.3479M409.201 18.1739L427.802 36.3479L446.399 54.5218M409.201 0L427.802 18.1739M427.802 18.1739L446.399 0L465 18.1739M427.802 18.1739L446.399 36.3479L465 54.5218M465 18.1739L483.602 0M465 18.1739L483.602 36.3479M520.8 18.1739L502.199 0L483.602 18.1739L502.199 36.3479L520.8 54.5218M520.8 18.1739L539.402 0L558.003 18.1739L576.6 36.3479L595.201 54.5218M520.8 18.1739L539.402 36.3479L558.003 54.5218L576.6 72.6957M558.003 0L576.6 18.1739L595.201 36.3479L613.803 18.1739L632.4 36.3479M576.6 0L595.201 18.1739L613.803 0L632.4 18.1739L651.001 36.3479L669.603 54.5218M632.4 0L651.001 18.1739L669.603 36.3479M651.001 0L669.603 18.1739L688.2 36.3479M669.603 0L688.2 18.1739L706.801 36.3479L725.403 54.5218M688.2 0L706.801 18.1739L725.403 36.3479L744 54.5218L725.403 72.6957M706.801 0L725.403 18.1739L744 36.3479M725.403 0L744 18.1739M18.6005 18.1739L37.2006 36.3479M37.2006 36.3479L55.8007 54.5218M130.201 36.3479L111.601 54.5218L93.0005 72.6957M130.201 36.3479L148.801 54.5218L130.201 72.6957L148.801 90.8696M130.201 18.1739L148.801 36.3479M148.801 36.3479L167.401 54.5218M186.001 36.3479L167.401 54.5218M186.001 36.3479L204.601 54.5218L223.201 72.6957L241.801 90.8696M223.201 18.1739L241.801 36.3479L260.401 54.5218M297.601 36.3479L279.001 54.5218L297.601 72.6957M297.601 36.3479L316.201 54.5218L334.801 72.6957M334.801 36.3479L353.401 54.5218M390.599 36.3479L372.001 54.5218M390.599 36.3479L409.201 54.5218L427.802 72.6957L446.399 90.8696L465 109.043L483.601 127.217M446.399 18.1739L465 36.3479M483.602 36.3479L465 54.5218M483.602 36.3479L502.199 54.5218L520.8 72.6957M502.199 18.1739L520.8 36.3479L539.402 54.5218M539.402 18.1739L558.003 36.3479L576.6 54.5218M632.4 36.3479L613.803 54.5218M632.4 36.3479L651.001 54.5218L669.603 72.6957M688.2 36.3479L669.603 54.5218M688.2 36.3479L706.801 54.5218L725.403 72.6957M0.00038435 36.3479L18.6005 54.5218L37.2006 72.6957L55.8007 54.5218M55.8007 54.5218L74.4004 72.6957M55.8007 36.3479L74.4004 54.5218L93.0005 72.6957M167.401 54.5218L148.801 72.6957L167.401 90.8696M167.401 54.5218L186.001 72.6957L204.601 90.8696M204.601 36.3479L223.201 54.5218L241.801 72.6957M260.401 54.5218L279.001 72.6957M353.401 54.5218L372.001 36.3479M353.401 54.5218L334.801 72.6957M353.401 54.5218L372.001 72.6957M409.201 36.3479L427.802 54.5218L446.399 72.6957M465 54.5218L446.399 72.6957M539.402 54.5218L520.8 72.6957M539.402 54.5218L558.003 72.6957L576.6 90.8696L595.201 109.043L613.802 127.217M595.201 54.5218L613.803 36.3479M595.201 54.5218L576.6 72.6957M613.803 54.5218L595.201 72.6957L613.803 90.8696M613.803 54.5218L632.4 72.6957L651.001 90.8696M669.603 54.5218L688.2 72.6957M0.00038435 54.5218L18.6005 72.6957M18.6005 72.6957L0.00038435 90.8696L18.6005 109.043L37.2006 127.217L55.8003 145.391M18.6005 72.6957L37.2006 90.8696L55.8007 72.6957M74.4004 72.6957L55.8007 90.8696L74.4004 109.043M74.4004 72.6957L93.0005 90.8696M93.0005 72.6957L111.601 90.8696L130.201 109.043L148.801 127.217M130.201 54.5218L111.601 72.6957L130.201 90.8696L148.801 109.043M186.001 54.5218L204.601 72.6957L223.201 90.8696L241.801 109.043L223.201 127.217M260.401 72.6957L241.801 90.8696M260.401 72.6957L279.001 90.8696M297.601 72.6957L279.001 90.8696M297.601 72.6957L316.201 90.8696M297.601 54.5218L316.201 72.6957L334.801 90.8696L353.401 109.043L372 127.217L390.599 145.391M334.801 72.6957L353.401 90.8696M372.001 72.6957L390.599 54.5218L409.201 72.6957L427.802 90.8696M372.001 72.6957L353.401 90.8696M372.001 72.6957L390.599 90.8696L409.201 109.043L427.801 127.217L446.399 145.391M446.399 72.6957L465 90.8696M465 72.6957L483.602 54.5218L502.199 72.6957M502.199 72.6957L483.602 90.8696L502.199 109.043M502.199 72.6957L520.8 90.8696M520.8 72.6957L539.402 90.8696M576.6 72.6957L595.201 90.8696L613.803 109.043M632.4 54.5218L651.001 72.6957L669.603 90.8696M688.2 72.6957L669.603 90.8696M688.2 72.6957L706.801 90.8696L725.403 109.043L744 127.217M688.2 54.5218L706.801 72.6957L725.403 90.8696L744 109.043M725.403 72.6957L744 90.8696M93.0005 90.8696L74.4004 109.043M93.0005 90.8696L111.601 109.043L130.201 127.217M167.401 90.8696L148.801 109.043M167.401 90.8696L186.001 109.043M167.401 72.6957L186.001 90.8696M204.601 90.8696L186.001 109.043M204.601 90.8696L223.201 109.043M241.801 90.8696L260.401 109.043M279.001 90.8696L297.601 109.043M316.201 90.8696L297.601 109.043M316.201 90.8696L334.801 109.043L353.401 127.217L372 145.391L390.599 163.565M353.401 90.8696L372.001 109.043L390.599 127.217L409.2 145.391M390.599 72.6957L409.201 90.8696L427.802 109.043M465 90.8696L483.602 72.6957M465 90.8696L483.602 109.043M520.8 90.8696L502.199 109.043M520.8 90.8696L539.402 109.043M539.402 72.6957L558.003 90.8696M558.003 90.8696L539.402 109.043M558.003 90.8696L576.6 109.043L595.201 127.217M613.803 72.6957L632.4 90.8696M632.4 90.8696L613.803 109.043M632.4 90.8696L651.001 109.043L669.603 90.8696M669.603 90.8696L688.2 109.043L706.801 127.217M18.6005 90.8696L37.2006 109.043M74.4004 109.043L93.0005 127.217L111.6 145.391M148.801 109.043L167.401 127.217L186.001 109.043M186.001 109.043L204.601 127.217L223.2 145.391L241.801 163.565L260.401 181.739M260.401 109.043L241.801 127.217L260.401 145.391L279.001 163.565L297.601 181.739L316.201 199.912M260.401 109.043L279.001 127.217L297.601 109.043M260.401 90.8696L279.001 109.043M372.001 90.8696L390.599 109.043L409.2 127.217L427.801 145.391L446.399 163.565M502.199 109.043L483.601 127.217M539.402 109.043L558.002 127.217M613.803 109.043L632.4 127.217L651.001 145.391M688.2 90.8696L706.801 109.043L725.402 127.217M0.00038435 109.043L18.6005 127.217L37.2002 145.391M93.0005 109.043L111.601 127.217M204.601 109.043L223.201 127.217M223.201 127.217L241.8 145.391L260.401 163.565L279.001 181.739L297.601 199.912L316.201 218.086L334.801 236.26M483.601 127.217L502.199 145.391L520.8 163.565L539.402 181.739M539.401 127.217L520.8 109.043L502.199 127.217L520.8 145.391L539.402 163.565M558.002 109.043L576.6 127.217M576.6 127.217L558.002 145.391M576.6 127.217L595.201 145.391M613.802 127.217L595.201 145.391M613.802 127.217L632.4 145.391M632.4 109.043L651.001 127.217L669.602 145.391M651.001 109.043L669.602 127.217L688.2 145.391M669.602 109.043L688.2 127.217L706.801 145.391M725.402 127.217L706.801 145.391M725.402 127.217L744 145.391L725.403 163.565M0 127.217L18.6001 145.391L37.2002 163.565M55.8003 145.391L74.4 127.217L93.0001 145.391M55.8003 145.391L37.2002 163.565M111.6 145.391L130.2 127.217L148.8 145.391M111.6 145.391L93.0005 163.565M111.6 145.391L130.201 163.565L148.801 181.739M148.8 127.217L167.4 145.391M167.4 127.217L186 145.391L204.601 163.565M186 127.217L204.6 145.391L223.201 163.565L241.801 181.739M409.2 145.391L390.599 163.565M409.2 145.391L427.802 163.565M446.399 145.391L465 127.217L483.601 145.391M446.399 145.391L465 163.565M483.601 145.391L465 163.565M483.601 145.391L502.199 163.565L520.8 181.739L539.402 199.912L558.003 181.739L539.402 163.565M558.002 145.391L539.402 163.565M558.002 145.391L576.6 163.565L595.201 181.739M595.201 145.391L613.803 163.565M706.801 145.391L688.2 163.565M0 145.391L18.6001 163.565M37.2002 163.565L18.6005 181.739M37.2002 163.565L55.8007 181.739L74.4004 199.912L93.0005 218.086L111.601 236.26L130.201 254.434L148.801 272.608M55.8007 145.391L74.4004 163.565L93.0005 181.739L111.601 199.912M74.4004 145.391L93.0005 163.565M93.0005 163.565L111.601 181.739L130.201 199.912M130.201 145.391L148.801 163.565L167.401 145.391L186.001 163.565L167.401 181.739M204.601 163.565L186.001 181.739L204.601 199.912L223.201 218.086M204.601 163.565L223.201 181.739L241.801 199.912M390.599 163.565L409.201 181.739L427.802 199.912L446.399 218.086L465 236.26M446.399 163.565L427.802 181.739M446.399 163.565L465 181.739L483.602 199.912L502.199 218.086M465 163.565L483.602 181.739L502.199 199.912L512.49 209.849M576.6 145.391L595.201 163.565M613.803 163.565L595.201 181.739M613.803 163.565L632.4 181.739M613.803 145.391L632.4 163.565L651.001 181.739M632.4 145.391L651.001 163.565L669.603 181.739L688.2 199.912M651.001 145.391L669.603 163.565L688.2 181.739L706.801 199.912M669.603 145.391L688.2 163.565M688.2 163.565L706.801 181.739L725.403 199.912M725.403 145.391L706.801 163.565L725.403 181.739M0.00038435 163.565L18.6005 181.739M18.6005 181.739L37.2006 199.912L55.8007 218.086M55.8007 163.565L74.4004 181.739L93.0005 199.912L111.601 218.086M111.601 163.565L130.201 181.739M148.801 181.739L167.401 163.565M148.801 181.739L130.201 199.912M167.401 181.739L148.801 199.912M167.401 181.739L186.001 199.912L204.601 218.086L223.201 236.26M260.401 181.739L241.801 199.912M260.401 181.739L279.001 199.912L297.601 218.086L316.201 236.26M372.001 163.565L390.599 181.739L409.201 199.912L427.802 218.086L446.399 236.26M409.201 163.565L427.802 181.739M427.802 181.739L446.399 199.912L465 218.086L483.602 236.26M483.602 163.565L502.199 181.739L520.8 199.912M558.003 163.565L576.6 181.739M576.6 181.739L558.003 199.912L576.6 218.086M576.6 181.739L595.201 199.912L613.803 218.086L632.4 236.26M595.201 181.739L613.803 199.912L632.4 218.086M651.001 181.739L632.4 199.912M651.001 181.739L669.603 199.912L651.001 218.086M725.403 181.739L744 163.565M725.403 181.739L744 199.912M0.00038435 181.739L18.6005 199.912L37.2006 218.086L55.8007 236.26L74.4004 254.434L93.0005 272.608L111.601 290.782M37.2006 181.739L55.8007 199.912L74.4004 218.086L93.0005 236.26L111.601 254.434L130.201 272.608M130.201 199.912L111.601 218.086M130.201 199.912L148.801 218.086L167.401 199.912L186.001 218.086M204.601 181.739L223.201 199.912M241.801 199.912L223.201 218.086M316.201 199.912L334.801 181.739L353.401 199.912L372.001 218.086M316.201 199.912L334.801 218.086L353.401 236.26M372.001 181.739L390.599 199.912L409.201 218.086L427.802 236.26L446.399 254.434M446.399 181.739L465 199.912L483.602 218.086L502.199 236.26L483.602 254.434M613.803 181.739L632.4 199.912M632.4 199.912L651.001 218.086M688.2 199.912L669.603 218.086L651.001 236.26L669.603 254.434M688.2 199.912L706.801 218.086M725.403 199.912L706.801 218.086M725.403 199.912L744 218.086L725.403 236.26L706.801 218.086M0.00038435 199.912L18.6005 218.086L37.2006 236.26L55.8007 254.434L74.4004 272.608L93.0005 290.782L74.4004 308.956M111.601 218.086L130.201 236.26L148.801 254.434L167.401 272.608L186.001 254.434L204.601 236.26L223.201 254.434M223.201 218.086L241.801 236.26M334.801 199.912L353.401 218.086L372.001 236.26M372.001 199.912L390.599 218.086M390.599 218.086L372.001 236.26M390.599 218.086L409.201 236.26M576.6 199.912L595.201 218.086M595.201 218.086L576.6 236.26M595.201 218.086L613.803 236.26L632.4 254.434L651.001 272.608L669.603 254.434M651.001 218.086L632.4 236.26M0.00038435 218.086L18.6005 236.26L37.2006 254.434L55.8007 272.608L74.4004 290.782M130.201 218.086L148.801 236.26L167.401 254.434M241.801 236.26L223.201 254.434M241.801 236.26L260.401 254.434M260.401 236.26L241.801 218.086L260.401 199.912L279.001 218.086L297.601 236.26L316.201 254.434L334.801 236.26M260.401 218.086L279.001 236.26M279.001 236.26L260.401 254.434M279.001 236.26L297.601 254.434L316.201 272.608M334.801 236.26L353.401 254.434M372.001 236.26L353.401 254.434M372.001 236.26L390.599 254.434M409.201 236.26L390.599 254.434M409.201 236.26L427.802 254.434M465 236.26L446.399 254.434M465 236.26L483.602 254.434M558.003 218.086L576.6 236.26M576.6 236.26L595.201 254.434M632.4 236.26L651.001 254.434M706.801 236.26L688.2 218.086L669.603 236.26L688.2 254.434L706.801 272.608L725.403 290.782M0.00038435 236.26L18.6005 254.434L37.2006 272.608M223.201 254.434L241.801 272.608M260.401 254.434L279.001 272.608L297.601 290.782M353.401 254.434L372.001 272.608M390.599 254.434L409.201 272.608L427.802 290.782L446.399 308.956L427.802 327.13M446.399 254.434L427.802 272.608M446.399 254.434L465 272.608M483.602 254.434L465 272.608M483.602 254.434L502.199 272.608M595.201 254.434L576.6 272.608M595.201 254.434L613.803 272.608M595.201 236.26L613.803 254.434L632.4 272.608M669.603 254.434L688.2 272.608L706.801 290.782M688.2 236.26L706.801 254.434M0.00038435 254.434L18.6005 272.608L0.00038435 290.782L18.6005 308.956L37.2006 327.13M37.2006 272.608L18.6005 290.782L37.2006 308.956M37.2006 272.608L55.8007 290.782L74.4004 308.956M93.0005 254.434L111.601 272.608L130.201 290.782L148.801 272.608M148.801 272.608L167.401 290.782M186.001 272.608L204.601 254.434L223.201 272.608L241.801 290.782M186.001 272.608L167.401 290.782M186.001 272.608L204.601 290.782L223.201 308.956L241.801 327.13M241.801 254.434L260.401 272.608M260.401 272.608L241.801 290.782M260.401 272.608L279.001 290.782M279.001 254.434L297.601 272.608L316.201 290.782L334.801 308.956M372.001 254.434L390.599 272.608M390.599 272.608L372.001 290.782L390.599 308.956L409.201 327.13L427.802 345.304L446.399 363.477L465 381.651L483.602 399.825L502.199 418M390.599 272.608L409.201 290.782L427.802 308.956M409.201 254.434L427.802 272.608M427.802 272.608L446.399 290.782L465 308.956L446.399 327.13L465 345.304L483.602 363.477M465 272.608L483.602 290.782M502.199 272.608L483.602 290.782M502.199 272.608L520.8 290.782L539.402 308.956L558.003 327.13L576.6 345.304L595.201 363.477L613.803 381.651M576.6 272.608L558.003 290.782M576.6 272.608L595.201 290.782M632.4 272.608L613.803 290.782M632.4 272.608L651.001 290.782M111.601 290.782L93.0005 308.956M111.601 290.782L130.201 308.956M167.401 290.782L186.001 308.956L204.601 327.13M204.601 272.608L223.201 290.782L241.801 308.956L260.401 327.13M241.801 290.782L260.401 308.956L279.001 327.13L297.601 345.304L316.201 363.477L334.801 381.651M297.601 290.782L279.001 308.956M297.601 290.782L316.201 308.956L297.601 327.13M446.399 272.608L465 290.782L483.602 308.956M483.602 290.782L502.199 308.956L520.8 327.13L539.402 345.304M529.795 281.618L539.402 290.782L558.003 308.956L576.6 327.13L595.201 345.304L613.803 363.477L632.4 345.304L651.001 363.477M539.402 272.608L558.003 290.782M558.003 290.782L576.6 308.956M595.201 290.782L576.6 308.956M595.201 290.782L613.803 308.956L632.4 327.13M595.201 272.608L613.803 290.782M613.803 290.782L632.4 308.956L651.001 327.13L669.603 345.304L688.2 363.477L706.801 381.651M651.001 290.782L669.603 272.608L688.2 290.782L706.801 308.956M651.001 290.782L669.603 308.956L688.2 327.13L706.801 345.304L725.403 327.13M725.403 290.782L706.801 308.956M725.403 290.782L744 308.956M725.403 272.608L744 290.782M37.2006 290.782L55.8007 308.956M55.8007 308.956L37.2006 327.13M55.8007 308.956L74.4004 327.13M74.4004 308.956L93.0005 327.13L111.601 308.956L130.201 327.13L148.801 345.304M130.201 308.956L148.801 290.782L167.401 308.956L186.001 327.13M130.201 308.956L148.801 327.13M186.001 290.782L204.601 308.956L223.201 327.13L241.801 345.304M260.401 290.782L279.001 308.956M279.001 308.956L297.601 327.13M334.801 308.956L316.201 327.13L334.801 345.304L353.401 363.477L334.801 381.651M334.801 308.956L353.401 327.13M334.801 290.782L353.401 308.956M353.401 290.782L372.001 308.956M372.001 308.956L353.401 327.13M372.001 308.956L390.599 327.13M390.599 290.782L409.201 308.956L427.802 327.13M483.602 308.956L465 327.13L483.602 345.304M483.602 308.956L502.199 327.13L520.8 345.304L539.402 363.477M502.199 290.782L520.8 308.956L539.402 327.13L558.003 345.304M576.6 308.956L595.201 327.13L613.803 345.304L632.4 327.13M632.4 290.782L651.001 308.956L669.603 327.13L688.2 345.304L706.801 363.477M669.603 290.782L688.2 308.956L706.801 327.13M706.801 308.956L725.403 327.13M0.00038435 308.956L18.6005 327.13L37.2006 345.304M37.2006 327.13L55.8007 345.304M74.4004 327.13L55.8007 345.304M74.4004 327.13L93.0005 345.304M148.801 308.956L167.401 327.13M167.401 327.13L148.801 345.304M167.401 327.13L186.001 345.304M204.601 327.13L186.001 345.304M204.601 327.13L223.201 345.304L241.801 363.477M260.401 327.13L241.801 345.304M260.401 327.13L279.001 345.304L297.601 363.477M297.601 327.13L316.201 345.304L334.801 363.477M353.401 327.13L372.001 345.304M390.599 327.13L372.001 345.304M390.599 327.13L409.201 345.304M427.802 327.13L446.399 345.304L465 363.477L483.602 381.651L502.199 399.825L520.8 418M595.201 308.956L613.803 327.13M632.4 327.13L651.001 345.304L669.603 363.477M725.403 327.13L744 345.304M725.403 308.956L744 327.13M18.6012 327.13L0.00038435 345.304L18.6005 363.477M55.8007 345.304L37.2006 363.477L18.6005 345.304M55.8007 345.304L74.4004 363.477M93.0005 345.304L111.601 327.13L130.201 345.304L148.801 363.477M93.0005 345.304L111.601 363.477M148.801 345.304L167.401 363.477M186.001 345.304L204.601 363.477M241.801 345.304L260.401 363.477M334.801 327.13L353.401 345.304L372.001 363.477M372.001 345.304L390.599 363.477M409.201 345.304L390.599 363.477M409.201 345.304L427.802 363.477L446.399 381.651M483.602 327.13L502.199 345.304M502.199 345.304L483.602 363.477M502.199 345.304L520.8 363.477L539.402 381.651M74.4004 345.304L93.0005 363.477M111.601 345.304L130.201 363.477M167.401 345.304L186.001 363.477M204.601 345.304L223.201 363.477M260.401 345.304L279.001 363.477M372.001 363.477L353.401 381.651M372.001 363.477L390.599 381.651M390.599 363.477L409.201 381.651L427.802 399.825M483.602 363.477L502.199 381.651L520.8 399.825L539.402 418M669.603 363.477L651.001 381.651M669.603 363.477L688.2 381.651L706.801 399.825M706.801 363.477L725.403 345.304L744 363.477M706.801 363.477L725.403 381.651M0.00115378 381.651L18.6012 363.477L37.2013 381.651M37.2013 363.477L55.8014 381.651L74.4012 363.477M74.4012 381.651L93.0012 363.477L111.601 381.651M111.601 363.477L130.201 381.651M130.201 363.477L148.802 381.651M148.802 363.477L167.402 381.651M167.402 363.477L186.001 381.651M186.001 363.477L204.601 381.651M204.601 363.477L223.202 381.651M223.202 363.477L241.802 381.651M241.802 363.477L260.402 381.651M260.402 363.477L279.001 381.651M279.001 363.477L297.602 381.651M316.202 363.477L297.601 381.651M297.601 381.651L279.001 399.825M297.601 381.651L316.201 399.825M334.801 381.651L316.201 399.825M353.401 381.651L334.801 399.825L353.401 418L372.001 399.825M353.401 381.651L372.001 399.825M390.599 381.651L372.001 399.825M390.599 381.651L409.201 399.825M409.201 363.477L427.802 381.651M446.399 381.651L427.802 399.825M446.399 381.651L465 399.825L483.602 418M502.199 363.477L520.8 381.651L539.402 399.825L558.003 418M613.803 381.651L632.4 363.477L651.001 381.651M613.803 381.651L632.4 399.825M651.001 381.651L632.4 399.825M651.001 381.651L669.603 399.825M725.403 381.651L706.801 399.825M725.403 381.651L744 399.825M725.403 363.477L744 381.651M0.00038435 381.651L18.6005 399.825M18.6005 399.825L37.2006 381.651L55.8007 399.825L74.4004 418M18.6005 399.825L37.2006 418M55.8007 381.651L74.4004 399.825L93.0005 418M74.4004 381.651L93.0005 399.825L111.601 418M93.0005 381.651L111.601 399.825L130.201 418M111.601 381.651L130.201 399.825L148.801 418L167.401 399.825M130.201 381.651L148.801 399.825M148.801 381.651L167.401 399.825M167.401 399.825L186.001 418M167.401 381.651L186.001 399.825L204.601 418M186.001 381.651L204.601 399.825M204.601 399.825L223.201 381.651L241.801 399.825M204.601 399.825L223.201 418M241.801 381.651L260.401 399.825L241.801 418L223.201 399.825M260.401 381.651L279.001 399.825M279.001 399.825L260.401 418M279.001 399.825L297.601 418M316.201 399.825L334.801 418M427.802 399.825L409.201 418L390.599 399.825L372.001 418M595.201 381.651L613.803 399.825M632.4 399.825L613.803 418L595.201 399.825L576.6 418L558.003 399.825M632.4 399.825L651.001 418M669.603 381.651L688.2 399.825L669.603 418L651.001 399.825M706.801 399.825L688.2 418M706.801 399.825L725.403 418M0.00038435 399.825L18.6005 418M37.2006 399.825L55.8007 418M297.601 399.825L316.201 418M427.802 418L446.399 399.825L465 418M725.403 399.825L744 418" stroke="url(#paint1_linear_4364_13797)" stroke-width="4"/>
<defs>
<linearGradient id="paint0_linear_4364_13797" x1="178.25" y1="396.229" x2="290.923" y2="-14.8924" gradientUnits="userSpaceOnUse">
<stop stop-color="#863CFF"/>
<stop offset="1" stop-color="#FF7878"/>
</linearGradient>
<linearGradient id="paint1_linear_4364_13797" x1="178.25" y1="396.229" x2="290.923" y2="-14.8924" gradientUnits="userSpaceOnUse">
<stop stop-color="#863CFF"/>
<stop offset="1" stop-color="#FF7878"/>
</linearGradient>
</defs>
</svg>
