<svg width="1920" height="1080" viewBox="0 0 1920 1080" fill="none" xmlns="http://www.w3.org/2000/svg">
<path d="M82 -69.46L-2532.4 1148L82 -69.46Z" fill="black"/>
<path d="M82 -69.46L-2532.4 1148" stroke="#F7F7FF" stroke-miterlimit="10"/>
<path d="M126.34 -69.46L-2488.03 1148" stroke="#F7F7FF" stroke-miterlimit="10"/>
<path d="M170.72 -69.46L-2443.65 1148" stroke="#F7F7FF" stroke-miterlimit="10"/>
<path d="M215.09 -69.46L-2399.28 1148" stroke="#F7F7FF" stroke-miterlimit="10"/>
<path d="M259.46 -69.46L-2354.91 1148" stroke="#F7F7FF" stroke-miterlimit="10"/>
<path d="M303.84 -69.46L-2310.53 1148" stroke="#F7F7FF" stroke-miterlimit="10"/>
<path d="M348.21 -69.46L-2266.16 1148" stroke="#F7F7FF" stroke-miterlimit="10"/>
<path d="M392.58 -69.46L-2221.79 1148" stroke="#F7F7FF" stroke-miterlimit="10"/>
<path d="M436.95 -69.46L-2177.42 1148" stroke="#F7F7FF" stroke-miterlimit="10"/>
<path d="M481.33 -69.46L-2133.04 1148" stroke="#F7F7FF" stroke-miterlimit="10"/>
<path d="M525.7 -69.46L-2088.67 1148" stroke="#F7F7FF" stroke-miterlimit="10"/>
<path d="M570.07 -69.46L-2044.3 1148" stroke="#F7F7FF" stroke-miterlimit="10"/>
<path d="M614.45 -69.46L-1999.92 1148" stroke="#F7F7FF" stroke-miterlimit="10"/>
<path d="M658.82 -69.46L-1955.55 1148" stroke="#F7F7FF" stroke-miterlimit="10"/>
<path d="M703.19 -69.46L-1911.18 1148" stroke="#F7F7FF" stroke-miterlimit="10"/>
<path d="M747.56 -69.46L-1866.81 1148" stroke="#F7F7FF" stroke-miterlimit="10"/>
<path d="M791.94 -69.46L-1822.43 1148" stroke="#F7F7FF" stroke-miterlimit="10"/>
<path d="M836.31 -69.46L-1778.06 1148" stroke="#F7F7FF" stroke-miterlimit="10"/>
<path d="M880.68 -69.46L-1733.69 1148" stroke="#F7F7FF" stroke-miterlimit="10"/>
<path d="M925.06 -69.46L-1689.31 1148" stroke="#F7F7FF" stroke-miterlimit="10"/>
<path d="M969.43 -69.46L-1644.94 1148" stroke="#F7F7FF" stroke-miterlimit="10"/>
<path d="M1013.8 -69.46L-1600.57 1148" stroke="#F7F7FF" stroke-miterlimit="10"/>
<path d="M1058.18 -69.46L-1556.2 1148" stroke="#F7F7FF" stroke-miterlimit="10"/>
<path d="M1102.55 -69.46L-1511.82 1148" stroke="#F7F7FF" stroke-miterlimit="10"/>
<path d="M1146.92 -69.46L-1467.45 1148" stroke="#F7F7FF" stroke-miterlimit="10"/>
<path d="M1191.29 -69.46L-1423.08 1148" stroke="#F7F7FF" stroke-miterlimit="10"/>
<path d="M1235.67 -69.46L-1378.7 1148" stroke="#F7F7FF" stroke-miterlimit="10"/>
<path d="M1280.04 -69.46L-1334.33 1148" stroke="#F7F7FF" stroke-miterlimit="10"/>
<path d="M1324.41 -69.46L-1289.96 1148" stroke="#F7F7FF" stroke-miterlimit="10"/>
<path d="M1368.79 -69.46L-1245.59 1148" stroke="#F7F7FF" stroke-miterlimit="10"/>
<path d="M1413.16 -69.46L-1201.21 1148" stroke="#F7F7FF" stroke-miterlimit="10"/>
<path d="M1457.53 -69.46L-1156.84 1148" stroke="#F7F7FF" stroke-miterlimit="10"/>
<path d="M1501.9 -69.46L-1112.47 1148" stroke="#F7F7FF" stroke-miterlimit="10"/>
<path d="M1546.28 -69.46L-1068.09 1148" stroke="#F7F7FF" stroke-miterlimit="10"/>
<path d="M1590.65 -69.46L-1023.72 1148" stroke="#F7F7FF" stroke-miterlimit="10"/>
<path d="M1635.02 -69.46L-979.35 1148" stroke="#F7F7FF" stroke-miterlimit="10"/>
<path d="M1679.4 -69.46L-934.97 1148" stroke="#F7F7FF" stroke-miterlimit="10"/>
<path d="M1723.77 -69.46L-890.6 1148" stroke="#F7F7FF" stroke-miterlimit="10"/>
<path d="M1768.14 -69.46L-846.23 1148" stroke="#F7F7FF" stroke-miterlimit="10"/>
<path d="M1812.51 -69.46L-801.86 1148" stroke="#F7F7FF" stroke-miterlimit="10"/>
<path d="M1856.89 -69.46L-757.48 1148" stroke="#F7F7FF" stroke-miterlimit="10"/>
<path d="M1901.26 -69.46L-713.11 1148" stroke="#F7F7FF" stroke-miterlimit="10"/>
<path d="M1945.63 -69.46L-668.74 1148" stroke="#F7F7FF" stroke-miterlimit="10"/>
<path d="M1990.01 -69.46L-624.36 1148" stroke="#F7F7FF" stroke-miterlimit="10"/>
<path d="M2034.38 -69.46L-579.99 1148" stroke="#F7F7FF" stroke-miterlimit="10"/>
<path d="M2078.75 -69.46L-535.62 1148" stroke="#F7F7FF" stroke-miterlimit="10"/>
<path d="M2123.12 -69.46L-491.25 1148" stroke="#F7F7FF" stroke-miterlimit="10"/>
<path d="M2167.5 -69.46L-446.87 1148" stroke="#F7F7FF" stroke-miterlimit="10"/>
<path d="M2211.87 -69.46L-402.5 1148" stroke="#F7F7FF" stroke-miterlimit="10"/>
<path d="M2256.24 -69.46L-358.13 1148" stroke="#F7F7FF" stroke-miterlimit="10"/>
<path d="M2300.62 -69.46L-313.75 1148" stroke="#F7F7FF" stroke-miterlimit="10"/>
<path d="M2344.99 -69.46L-269.38 1148" stroke="#F7F7FF" stroke-miterlimit="10"/>
<path d="M2389.36 -69.46L-225.01 1148" stroke="#F7F7FF" stroke-miterlimit="10"/>
<path d="M2433.73 -69.46L-180.64 1148" stroke="#F7F7FF" stroke-miterlimit="10"/>
<path d="M2478.11 -69.46L-136.26 1148" stroke="#F7F7FF" stroke-miterlimit="10"/>
<path d="M2522.48 -69.46L-91.8901 1148" stroke="#F7F7FF" stroke-miterlimit="10"/>
<path d="M2566.85 -69.46L-47.52 1148" stroke="#F7F7FF" stroke-miterlimit="10"/>
<path d="M2611.23 -69.46L-3.14014 1148" stroke="#F7F7FF" stroke-miterlimit="10"/>
<path d="M2655.6 -69.46L41.23 1148" stroke="#F7F7FF" stroke-miterlimit="10"/>
<path d="M2699.97 -69.46L85.5999 1148" stroke="#F7F7FF" stroke-miterlimit="10"/>
<path d="M2744.34 -69.46L129.97 1148" stroke="#F7F7FF" stroke-miterlimit="10"/>
<path d="M2788.72 -69.46L174.35 1148" stroke="#F7F7FF" stroke-miterlimit="10"/>
<path d="M2833.09 -69.46L218.72 1148" stroke="#F7F7FF" stroke-miterlimit="10"/>
<path d="M2877.46 -69.46L263.09 1148" stroke="#F7F7FF" stroke-miterlimit="10"/>
<path d="M2921.84 -69.46L307.47 1148" stroke="#F7F7FF" stroke-miterlimit="10"/>
<path d="M2966.21 -69.46L351.84 1148" stroke="#F7F7FF" stroke-miterlimit="10"/>
<path d="M3010.58 -69.46L396.21 1148" stroke="#F7F7FF" stroke-miterlimit="10"/>
<path d="M3054.96 -69.46L440.58 1148" stroke="#F7F7FF" stroke-miterlimit="10"/>
<path d="M3099.33 -69.46L484.96 1148" stroke="#F7F7FF" stroke-miterlimit="10"/>
<path d="M3143.7 -69.46L529.33 1148" stroke="#F7F7FF" stroke-miterlimit="10"/>
<path d="M3188.07 -69.46L573.7 1148" stroke="#F7F7FF" stroke-miterlimit="10"/>
<path d="M3232.45 -69.46L618.08 1148" stroke="#F7F7FF" stroke-miterlimit="10"/>
<path d="M3276.82 -69.46L662.45 1148" stroke="#F7F7FF" stroke-miterlimit="10"/>
<path d="M3321.19 -69.46L706.82 1148" stroke="#F7F7FF" stroke-miterlimit="10"/>
<path d="M3365.57 -69.46L751.19 1148" stroke="#F7F7FF" stroke-miterlimit="10"/>
<path d="M3409.94 -69.46L795.57 1148" stroke="#F7F7FF" stroke-miterlimit="10"/>
<path d="M3454.31 -69.46L839.94 1148" stroke="#F7F7FF" stroke-miterlimit="10"/>
<path d="M3498.68 -69.46L884.31 1148" stroke="#F7F7FF" stroke-miterlimit="10"/>
<path d="M3543.06 -69.46L928.69 1148" stroke="#F7F7FF" stroke-miterlimit="10"/>
<path d="M3587.43 -69.46L973.06 1148" stroke="#F7F7FF" stroke-miterlimit="10"/>
<path d="M3631.8 -69.46L1017.43 1148" stroke="#F7F7FF" stroke-miterlimit="10"/>
<path d="M3676.18 -69.46L1061.81 1148" stroke="#F7F7FF" stroke-miterlimit="10"/>
<path d="M3720.55 -69.46L1106.18 1148" stroke="#F7F7FF" stroke-miterlimit="10"/>
<path d="M3764.92 -69.46L1150.55 1148" stroke="#F7F7FF" stroke-miterlimit="10"/>
<path d="M3809.29 -69.46L1194.92 1148" stroke="#F7F7FF" stroke-miterlimit="10"/>
<path d="M3853.67 -69.46L1239.3 1148" stroke="#F7F7FF" stroke-miterlimit="10"/>
<path d="M3898.04 -69.46L1283.67 1148" stroke="#F7F7FF" stroke-miterlimit="10"/>
<path d="M3942.41 -69.46L1328.04 1148" stroke="#F7F7FF" stroke-miterlimit="10"/>
<path d="M3986.79 -69.46L1372.42 1148" stroke="#F7F7FF" stroke-miterlimit="10"/>
<path d="M4031.16 -69.46L1416.79 1148" stroke="#F7F7FF" stroke-miterlimit="10"/>
<path d="M4075.53 -69.46L1461.16 1148" stroke="#F7F7FF" stroke-miterlimit="10"/>
<path d="M4119.9 -69.46L1505.53 1148" stroke="#F7F7FF" stroke-miterlimit="10"/>
<path d="M4164.28 -69.46L1549.91 1148" stroke="#F7F7FF" stroke-miterlimit="10"/>
<path d="M4208.65 -69.46L1594.28 1148" stroke="#F7F7FF" stroke-miterlimit="10"/>
<path d="M4253.02 -69.46L1638.65 1148" stroke="#F7F7FF" stroke-miterlimit="10"/>
<path d="M4297.4 -69.46L1683.03 1148" stroke="#F7F7FF" stroke-miterlimit="10"/>
<path d="M4341.77 -69.46L1727.4 1148" stroke="#F7F7FF" stroke-miterlimit="10"/>
<path d="M4386.14 -69.46L1771.77 1148" stroke="#F7F7FF" stroke-miterlimit="10"/>
<path d="M4430.51 -69.46L1816.14 1148" stroke="#F7F7FF" stroke-miterlimit="10"/>
<path d="M4474.89 -69.46L1860.52 1148" stroke="#F7F7FF" stroke-miterlimit="10"/>
<path d="M4519.26 -69.46L1904.89 1148" stroke="#F7F7FF" stroke-miterlimit="10"/>
<path d="M1904.89 -69.46L4519.26 1148" stroke="#F7F7FF" stroke-miterlimit="10"/>
<path d="M1860.52 -69.46L4474.89 1148" stroke="#F7F7FF" stroke-miterlimit="10"/>
<path d="M1816.14 -69.46L4430.51 1148" stroke="#F7F7FF" stroke-miterlimit="10"/>
<path d="M1771.77 -69.46L4386.14 1148" stroke="#F7F7FF" stroke-miterlimit="10"/>
<path d="M1727.4 -69.46L4341.77 1148" stroke="#F7F7FF" stroke-miterlimit="10"/>
<path d="M1683.03 -69.46L4297.4 1148" stroke="#F7F7FF" stroke-miterlimit="10"/>
<path d="M1638.65 -69.46L4253.02 1148" stroke="#F7F7FF" stroke-miterlimit="10"/>
<path d="M1594.28 -69.46L4208.65 1148" stroke="#F7F7FF" stroke-miterlimit="10"/>
<path d="M1549.91 -69.46L4164.28 1148" stroke="#F7F7FF" stroke-miterlimit="10"/>
<path d="M1505.53 -69.46L4119.9 1148" stroke="#F7F7FF" stroke-miterlimit="10"/>
<path d="M1461.16 -69.46L4075.53 1148" stroke="#F7F7FF" stroke-miterlimit="10"/>
<path d="M1416.79 -69.46L4031.16 1148" stroke="#F7F7FF" stroke-miterlimit="10"/>
<path d="M1372.42 -69.46L3986.79 1148" stroke="#F7F7FF" stroke-miterlimit="10"/>
<path d="M1328.04 -69.46L3942.41 1148" stroke="#F7F7FF" stroke-miterlimit="10"/>
<path d="M1283.67 -69.46L3898.04 1148" stroke="#F7F7FF" stroke-miterlimit="10"/>
<path d="M1239.3 -69.46L3853.67 1148" stroke="#F7F7FF" stroke-miterlimit="10"/>
<path d="M1194.92 -69.46L3809.29 1148" stroke="#F7F7FF" stroke-miterlimit="10"/>
<path d="M1150.55 -69.46L3764.92 1148" stroke="#F7F7FF" stroke-miterlimit="10"/>
<path d="M1106.18 -69.46L3720.55 1148" stroke="#F7F7FF" stroke-miterlimit="10"/>
<path d="M1061.81 -69.46L3676.18 1148" stroke="#F7F7FF" stroke-miterlimit="10"/>
<path d="M1017.43 -69.46L3631.8 1148" stroke="#F7F7FF" stroke-miterlimit="10"/>
<path d="M973.06 -69.46L3587.43 1148" stroke="#F7F7FF" stroke-miterlimit="10"/>
<path d="M928.69 -69.46L3543.06 1148" stroke="#F7F7FF" stroke-miterlimit="10"/>
<path d="M884.31 -69.46L3498.68 1148" stroke="#F7F7FF" stroke-miterlimit="10"/>
<path d="M839.94 -69.46L3454.31 1148" stroke="#F7F7FF" stroke-miterlimit="10"/>
<path d="M795.57 -69.46L3409.94 1148" stroke="#F7F7FF" stroke-miterlimit="10"/>
<path d="M751.19 -69.46L3365.57 1148" stroke="#F7F7FF" stroke-miterlimit="10"/>
<path d="M706.82 -69.46L3321.19 1148" stroke="#F7F7FF" stroke-miterlimit="10"/>
<path d="M662.45 -69.46L3276.82 1148" stroke="#F7F7FF" stroke-miterlimit="10"/>
<path d="M618.08 -69.46L3232.45 1148" stroke="#F7F7FF" stroke-miterlimit="10"/>
<path d="M573.7 -69.46L3188.07 1148" stroke="#F7F7FF" stroke-miterlimit="10"/>
<path d="M529.33 -69.46L3143.7 1148" stroke="#F7F7FF" stroke-miterlimit="10"/>
<path d="M484.96 -69.46L3099.33 1148" stroke="#F7F7FF" stroke-miterlimit="10"/>
<path d="M440.58 -69.46L3054.96 1148" stroke="#F7F7FF" stroke-miterlimit="10"/>
<path d="M396.21 -69.46L3010.58 1148" stroke="#F7F7FF" stroke-miterlimit="10"/>
<path d="M351.84 -69.46L2966.21 1148" stroke="#F7F7FF" stroke-miterlimit="10"/>
<path d="M307.47 -69.46L2921.84 1148" stroke="#F7F7FF" stroke-miterlimit="10"/>
<path d="M263.09 -69.46L2877.46 1148" stroke="#F7F7FF" stroke-miterlimit="10"/>
<path d="M218.72 -69.46L2833.09 1148" stroke="#F7F7FF" stroke-miterlimit="10"/>
<path d="M174.35 -69.46L2788.72 1148" stroke="#F7F7FF" stroke-miterlimit="10"/>
<path d="M129.97 -69.46L2744.34 1148" stroke="#F7F7FF" stroke-miterlimit="10"/>
<path d="M85.5999 -69.46L2699.97 1148" stroke="#F7F7FF" stroke-miterlimit="10"/>
<path d="M41.23 -69.46L2655.6 1148" stroke="#F7F7FF" stroke-miterlimit="10"/>
<path d="M-3.14014 -69.46L2611.23 1148" stroke="#F7F7FF" stroke-miterlimit="10"/>
<path d="M-47.52 -69.46L2566.85 1148" stroke="#F7F7FF" stroke-miterlimit="10"/>
<path d="M-91.8901 -69.46L2522.48 1148" stroke="#F7F7FF" stroke-miterlimit="10"/>
<path d="M-136.26 -69.46L2478.11 1148" stroke="#F7F7FF" stroke-miterlimit="10"/>
<path d="M-180.64 -69.46L2433.73 1148" stroke="#F7F7FF" stroke-miterlimit="10"/>
<path d="M-225.01 -69.46L2389.36 1148" stroke="#F7F7FF" stroke-miterlimit="10"/>
<path d="M-269.38 -69.46L2344.99 1148" stroke="#F7F7FF" stroke-miterlimit="10"/>
<path d="M-313.75 -69.46L2300.62 1148" stroke="#F7F7FF" stroke-miterlimit="10"/>
<path d="M-358.13 -69.46L2256.24 1148" stroke="#F7F7FF" stroke-miterlimit="10"/>
<path d="M-402.5 -69.46L2211.87 1148" stroke="#F7F7FF" stroke-miterlimit="10"/>
<path d="M-446.87 -69.46L2167.5 1148" stroke="#F7F7FF" stroke-miterlimit="10"/>
<path d="M-491.25 -69.46L2123.12 1148" stroke="#F7F7FF" stroke-miterlimit="10"/>
<path d="M-535.62 -69.46L2078.75 1148" stroke="#F7F7FF" stroke-miterlimit="10"/>
<path d="M-579.99 -69.46L2034.38 1148" stroke="#F7F7FF" stroke-miterlimit="10"/>
<path d="M-624.36 -69.46L1990.01 1148" stroke="#F7F7FF" stroke-miterlimit="10"/>
<path d="M-668.74 -69.46L1945.63 1148" stroke="#F7F7FF" stroke-miterlimit="10"/>
<path d="M-713.11 -69.46L1901.26 1148" stroke="#F7F7FF" stroke-miterlimit="10"/>
<path d="M-757.48 -69.46L1856.89 1148" stroke="#F7F7FF" stroke-miterlimit="10"/>
<path d="M-801.86 -69.46L1812.51 1148" stroke="#F7F7FF" stroke-miterlimit="10"/>
<path d="M-846.23 -69.46L1768.14 1148" stroke="#F7F7FF" stroke-miterlimit="10"/>
<path d="M-890.6 -69.46L1723.77 1148" stroke="#F7F7FF" stroke-miterlimit="10"/>
<path d="M-934.97 -69.46L1679.4 1148" stroke="#F7F7FF" stroke-miterlimit="10"/>
<path d="M-979.35 -69.46L1635.02 1148" stroke="#F7F7FF" stroke-miterlimit="10"/>
<path d="M-1023.72 -69.46L1590.65 1148" stroke="#F7F7FF" stroke-miterlimit="10"/>
<path d="M-1068.09 -69.46L1546.28 1148" stroke="#F7F7FF" stroke-miterlimit="10"/>
<path d="M-1112.47 -69.46L1501.9 1148" stroke="#F7F7FF" stroke-miterlimit="10"/>
<path d="M-1156.84 -69.46L1457.53 1148" stroke="#F7F7FF" stroke-miterlimit="10"/>
<path d="M-1201.21 -69.46L1413.16 1148" stroke="#F7F7FF" stroke-miterlimit="10"/>
<path d="M-1245.59 -69.46L1368.79 1148" stroke="#F7F7FF" stroke-miterlimit="10"/>
<path d="M-1289.96 -69.46L1324.41 1148" stroke="#F7F7FF" stroke-miterlimit="10"/>
<path d="M-1334.33 -69.46L1280.04 1148" stroke="#F7F7FF" stroke-miterlimit="10"/>
<path d="M-1378.7 -69.46L1235.67 1148" stroke="#F7F7FF" stroke-miterlimit="10"/>
<path d="M-1423.08 -69.46L1191.29 1148" stroke="#F7F7FF" stroke-miterlimit="10"/>
<path d="M-1467.45 -69.46L1146.92 1148" stroke="#F7F7FF" stroke-miterlimit="10"/>
<path d="M-1511.82 -69.46L1102.55 1148" stroke="#F7F7FF" stroke-miterlimit="10"/>
<path d="M-1556.2 -69.46L1058.18 1148" stroke="#F7F7FF" stroke-miterlimit="10"/>
<path d="M-1600.57 -69.46L1013.8 1148" stroke="#F7F7FF" stroke-miterlimit="10"/>
<path d="M-1644.94 -69.46L969.43 1148" stroke="#F7F7FF" stroke-miterlimit="10"/>
<path d="M-1689.31 -69.46L925.06 1148" stroke="#F7F7FF" stroke-miterlimit="10"/>
<path d="M-1733.69 -69.46L880.68 1148" stroke="#F7F7FF" stroke-miterlimit="10"/>
<path d="M-1778.06 -69.46L836.31 1148" stroke="#F7F7FF" stroke-miterlimit="10"/>
<path d="M-1822.43 -69.46L791.94 1148" stroke="#F7F7FF" stroke-miterlimit="10"/>
<path d="M-1866.81 -69.46L747.56 1148" stroke="#F7F7FF" stroke-miterlimit="10"/>
<path d="M-1911.18 -69.46L703.19 1148" stroke="#F7F7FF" stroke-miterlimit="10"/>
<path d="M-1955.55 -69.46L658.82 1148" stroke="#F7F7FF" stroke-miterlimit="10"/>
<path d="M-1999.92 -69.46L614.45 1148" stroke="#F7F7FF" stroke-miterlimit="10"/>
<path d="M-2044.3 -69.46L570.07 1148" stroke="#F7F7FF" stroke-miterlimit="10"/>
<path d="M-2088.67 -69.46L525.7 1148" stroke="#F7F7FF" stroke-miterlimit="10"/>
<path d="M-2133.04 -69.46L481.33 1148" stroke="#F7F7FF" stroke-miterlimit="10"/>
<path d="M-2177.42 -69.46L436.95 1148" stroke="#F7F7FF" stroke-miterlimit="10"/>
<path d="M-2221.79 -69.46L392.58 1148" stroke="#F7F7FF" stroke-miterlimit="10"/>
<path d="M-2266.16 -69.46L348.21 1148" stroke="#F7F7FF" stroke-miterlimit="10"/>
<path d="M-2310.53 -69.46L303.84 1148" stroke="#F7F7FF" stroke-miterlimit="10"/>
<path d="M-2354.91 -69.46L259.46 1148" stroke="#F7F7FF" stroke-miterlimit="10"/>
<path d="M-2399.28 -69.46L215.09 1148" stroke="#F7F7FF" stroke-miterlimit="10"/>
<path d="M-2443.65 -69.46L170.72 1148" stroke="#F7F7FF" stroke-miterlimit="10"/>
<path d="M-2488.03 -69.46L126.34 1148" stroke="#F7F7FF" stroke-miterlimit="10"/>
<path d="M-2532.4 -69.46L82 1148L-2532.4 -69.46Z" fill="black"/>
<path d="M-2532.4 -69.46L82 1148" stroke="#F7F7FF" stroke-miterlimit="10"/>
</svg>
