<svg width="26" height="27" viewBox="0 0 26 27" fill="none" xmlns="http://www.w3.org/2000/svg">
<path d="M22.1357 0C23.6979 0 24.9579 1.26333 25.0324 2.75V26.6667L22.0579 24.1411L20.4246 22.6544L18.6424 21.1011L19.3868 23.5511H3.78902C2.23124 23.5511 0.966797 22.3678 0.966797 20.8V2.75556C0.966797 1.26889 2.23346 0.00333333 3.79457 0.00333333H22.1279L22.1357 0ZM15.3379 6.31444H15.3046L15.0801 6.53667C17.3835 7.20333 18.4979 8.24444 18.4979 8.24444C17.0135 7.50222 15.6757 7.13111 14.3379 6.98111C13.3712 6.83111 12.4046 6.91 11.5879 6.98111H11.3657C10.8435 6.98111 9.73235 7.20333 8.24346 7.79778C7.72457 8.02333 7.4268 8.17111 7.4268 8.17111C7.4268 8.17111 8.54013 7.05778 10.9935 6.46333L10.8435 6.31333C10.8435 6.31333 8.98569 6.24222 6.98013 7.72444C6.98013 7.72444 4.97457 11.2178 4.97457 15.5244C4.97457 15.5244 6.08568 17.4578 9.13346 17.5311C9.13346 17.5311 9.57791 16.9389 10.0279 16.4178C8.3168 15.8978 7.65013 14.8578 7.65013 14.8578C7.65013 14.8578 7.79902 14.9311 8.02235 15.08H8.08902C8.12235 15.08 8.13791 15.0967 8.15569 15.1133V15.12C8.17346 15.1378 8.18902 15.1533 8.22235 15.1533C8.58902 15.3044 8.95569 15.4533 9.25569 15.5978C9.89728 15.8724 10.5684 16.0723 11.2557 16.1933C12.289 16.3433 13.4735 16.4156 14.8224 16.1933C15.489 16.0433 16.1557 15.8967 16.8224 15.5989C17.2557 15.3767 17.789 15.1544 18.3746 14.78C18.3746 14.78 17.7079 15.82 15.9246 16.34C16.2912 16.8578 16.8079 17.4511 16.8079 17.4511C19.8568 17.3844 21.0412 15.4511 21.1079 15.5333C21.1079 11.2333 19.0912 7.73333 19.0912 7.73333C17.2746 6.38444 15.5746 6.33333 15.2746 6.33333L15.3368 6.31111L15.3379 6.31444ZM15.5246 11.2178C16.3057 11.2178 16.9357 11.8844 16.9357 12.7011C16.9357 13.5233 16.3024 14.19 15.5246 14.19C14.7468 14.19 14.1135 13.5233 14.1135 12.7078C14.1157 11.8856 14.7501 11.2211 15.5246 11.2211V11.2178ZM10.4768 11.2178C11.2546 11.2178 11.8835 11.8844 11.8835 12.7011C11.8835 13.5233 11.2501 14.19 10.4724 14.19C9.69457 14.19 9.06124 13.5233 9.06124 12.7078C9.06124 11.8856 9.69457 11.2211 10.4724 11.2211L10.4768 11.2178Z" fill="white"/>
</svg>
