<svg width="40" height="40" viewBox="0 0 40 40" fill="none" xmlns="http://www.w3.org/2000/svg">
<g clip-path="url(#clip0_5801_16148)">
<path d="M29.1357 6C30.6979 6 31.9579 7.26333 32.0324 8.75V32.6667L29.0579 30.1411L27.4246 28.6544L25.6424 27.1011L26.3868 29.5511H10.789C9.23124 29.5511 7.9668 28.3678 7.9668 26.8V8.75556C7.9668 7.26889 9.23346 6.00333 10.7946 6.00333H29.1279L29.1357 6ZM22.3379 12.3144H22.3046L22.0801 12.5367C24.3835 13.2033 25.4979 14.2444 25.4979 14.2444C24.0135 13.5022 22.6757 13.1311 21.3379 12.9811C20.3712 12.8311 19.4046 12.91 18.5879 12.9811H18.3657C17.8435 12.9811 16.7324 13.2033 15.2435 13.7978C14.7246 14.0233 14.4268 14.1711 14.4268 14.1711C14.4268 14.1711 15.5401 13.0578 17.9935 12.4633L17.8435 12.3133C17.8435 12.3133 15.9857 12.2422 13.9801 13.7244C13.9801 13.7244 11.9746 17.2178 11.9746 21.5244C11.9746 21.5244 13.0857 23.4578 16.1335 23.5311C16.1335 23.5311 16.5779 22.9389 17.0279 22.4178C15.3168 21.8978 14.6501 20.8578 14.6501 20.8578C14.6501 20.8578 14.799 20.9311 15.0224 21.08H15.089C15.1224 21.08 15.1379 21.0967 15.1557 21.1133V21.12C15.1735 21.1378 15.189 21.1533 15.2224 21.1533C15.589 21.3044 15.9557 21.4533 16.2557 21.5978C16.8973 21.8724 17.5684 22.0723 18.2557 22.1933C19.289 22.3433 20.4735 22.4156 21.8224 22.1933C22.489 22.0433 23.1557 21.8967 23.8224 21.5989C24.2557 21.3767 24.789 21.1544 25.3746 20.78C25.3746 20.78 24.7079 21.82 22.9246 22.34C23.2912 22.8578 23.8079 23.4511 23.8079 23.4511C26.8568 23.3844 28.0412 21.4511 28.1079 21.5333C28.1079 17.2333 26.0912 13.7333 26.0912 13.7333C24.2746 12.3844 22.5746 12.3333 22.2746 12.3333L22.3368 12.3111L22.3379 12.3144ZM22.5246 17.2178C23.3057 17.2178 23.9357 17.8844 23.9357 18.7011C23.9357 19.5233 23.3024 20.19 22.5246 20.19C21.7468 20.19 21.1135 19.5233 21.1135 18.7078C21.1157 17.8856 21.7501 17.2211 22.5246 17.2211V17.2178ZM17.4768 17.2178C18.2546 17.2178 18.8835 17.8844 18.8835 18.7011C18.8835 19.5233 18.2501 20.19 17.4724 20.19C16.6946 20.19 16.0612 19.5233 16.0612 18.7078C16.0612 17.8856 16.6946 17.2211 17.4724 17.2211L17.4768 17.2178Z" fill="white"/>
</g>
<defs>
<clipPath id="clip0_5801_16148">
<rect width="26.6667" height="26.6667" fill="white" transform="translate(6.66699 6)"/>
</clipPath>
</defs>
</svg>
