<svg width="40" height="40" viewBox="0 0 40 40" fill="none" xmlns="http://www.w3.org/2000/svg">
<path d="M20 3.875C12.7528 3.875 6.875 9.90028 6.875 17.3318C6.875 23.2775 10.6353 28.3215 15.8514 30.1012C16.5066 30.2257 16.7188 29.8085 16.7188 29.4541V26.9489C13.0678 27.7631 12.3077 25.361 12.3077 25.361C11.7105 23.8056 10.8497 23.3919 10.8497 23.3919C9.65859 22.5564 10.9405 22.5744 10.9405 22.5744C12.2584 22.6685 12.9519 23.9615 12.9519 23.9615C14.1222 26.0182 16.022 25.4238 16.7712 25.0796C16.8883 24.2105 17.2284 23.6161 17.6047 23.2808C14.6898 22.9388 11.6252 21.7849 11.6252 16.6298C11.6252 15.1597 12.1381 13.9598 12.977 13.0178C12.8414 12.678 12.3919 11.3088 13.105 9.45621C13.105 9.45621 14.2075 9.09512 16.7155 10.8355C17.7622 10.5372 18.8844 10.3881 20 10.3825C21.1156 10.3881 22.2389 10.5372 23.2878 10.8355C25.7936 9.09512 26.8939 9.45621 26.8939 9.45621C27.6081 11.3099 27.1586 12.6791 27.023 13.0178C27.8652 13.9598 28.3737 15.1608 28.3737 16.6298C28.3737 21.7983 25.3036 22.9366 22.3811 23.2696C22.8514 23.6868 23.2812 24.5054 23.2812 25.7614V29.4541C23.2812 29.8119 23.4912 30.2324 24.1573 30.1001C29.3691 28.3182 33.125 23.2752 33.125 17.3318C33.125 9.90028 27.2483 3.875 20 3.875Z" fill="white"/>
</svg>
