<svg width="28" height="23" viewBox="0 0 28 23" fill="none" xmlns="http://www.w3.org/2000/svg">
<path d="M9.05288 22.4771C19.1157 22.4771 24.6197 13.9018 24.6197 6.46539C24.6197 6.22182 24.6197 5.97935 24.6037 5.73798C25.6746 4.94135 26.5989 3.95499 27.3334 2.82507C26.3349 3.28038 25.2757 3.57884 24.1911 3.71046C25.3332 3.00724 26.1881 1.90107 26.5964 0.59786C25.5224 1.25341 24.3474 1.71538 23.1222 1.96381C22.2972 1.0616 21.2062 0.464193 20.0181 0.264013C18.8297 0.063834 17.6106 0.272048 16.5489 0.856434C15.4873 1.44082 14.6425 2.36881 14.1453 3.49678C13.6481 4.62474 13.5262 5.88981 13.7985 7.09624C11.6233 6.98401 9.49536 6.40256 7.55281 5.38964C5.61025 4.37672 3.89648 2.95496 2.52275 1.21666C1.82311 2.4555 1.60883 3.92206 1.92352 5.31771C2.23822 6.71336 3.05823 7.93318 4.21661 8.72879C3.3459 8.70255 2.49413 8.46093 1.73341 8.02443V8.09574C1.73376 9.395 2.17103 10.6541 2.97105 11.6596C3.77106 12.665 4.8846 13.3549 6.12275 13.6122C5.31728 13.8382 4.47216 13.8712 3.65235 13.7087C4.0021 14.8268 4.68278 15.8045 5.59923 16.5053C6.5157 17.2059 7.62211 17.5945 8.76381 17.6168C7.62946 18.5338 6.33043 19.2119 4.94105 19.6122C3.55168 20.0123 2.09921 20.127 0.666748 19.9493C3.16878 21.6008 6.08 22.4766 9.05288 22.4727" fill="white"/>
</svg>
