<svg width="40" height="40" viewBox="0 0 40 40" fill="none" xmlns="http://www.w3.org/2000/svg">
<path d="M6.07158 6.01718C6.05969 6.03551 7.02335 7.38607 8.20712 9.01163C9.39088 10.6372 11.9071 14.0961 13.7988 16.6933L17.237 21.4172L17.0169 21.6739C16.892 21.8144 14.3639 24.6194 11.4015 27.9072C8.43911 31.2011 6.00615 33.9144 6.0002 33.945C5.9883 33.9756 6.50583 34 7.2494 33.9939L8.51644 33.9878L8.93284 33.5172C9.16484 33.2606 11.3182 30.8711 13.7214 28.2005C16.1247 25.53 18.1591 23.2689 18.2423 23.1711L18.3911 22.9939L19.5808 24.6317C20.2351 25.53 22.0375 28.0111 23.5841 30.1378L26.4038 34H30.7165C34.3035 34 35.0232 33.9878 34.9994 33.9206C34.9816 33.8717 33.8871 32.3561 32.5665 30.5411C31.2459 28.7322 29.735 26.6544 29.2115 25.9333C28.6821 25.2122 27.1295 23.0672 25.7494 21.1789C24.3694 19.2844 23.2391 17.7078 23.2391 17.6833C23.2391 17.6405 30.5321 9.50663 33.0126 6.78718L33.7205 6.01107H32.4178L31.121 6.01718L29.6041 7.70385C28.7713 8.63274 26.7309 10.9061 25.0653 12.7455L22.0494 16.0944L18.3911 11.0711L14.7267 6.04163L10.414 6.01107C8.04056 5.99274 6.08348 5.99885 6.07158 6.01718ZM16.2912 11.4316C17.701 13.375 19.8782 16.3633 21.1274 18.0805C22.3766 19.7916 25.1486 23.605 27.2901 26.5444C29.4316 29.49 31.2043 31.9283 31.234 31.9711C31.2697 32.0261 30.8473 32.0444 29.3067 32.0444H27.3377L23.4354 26.6789C14.4293 14.3161 9.88461 8.07052 9.83107 7.97885C9.79538 7.92385 10.1999 7.90552 11.7525 7.90552H13.7214L16.2912 11.4316Z" fill="white"/>
</svg>
